<svg xmlns="http://www.w3.org/2000/svg" width="1.25rem" height="1.25rem" viewBox="0 0 67.733334 67.733329"><path fill="#1185fe" d="m 14.682069,7.993748 c 7.76545,5.845271 16.11808,17.697047 19.18474,24.057404 3.0669,-6.359887 11.41906,-18.212253 19.18474,-24.057404 5.60314,-4.217718 14.68168,-7.4811475 14.68168,2.903252 0,2.073909 -1.18591,17.421888 -1.88146,19.913572 -2.41771,8.662833 -11.22777,10.872322 -19.06445,9.535039 13.69838,2.337595 17.18311,10.080549 9.65741,17.823502 -14.29279,14.705397 -20.5429,-3.689629 -22.14513,-8.403115 -0.29359,-0.864092 -0.43097,-1.268324 -0.43299,-0.924596 -0.002,-0.343738 -0.1394,0.06046 -0.43299,0.924596 -1.60153,4.713486 -7.85152,23.108982 -22.14513,8.403115 C 3.7626693,50.42616 7.2472893,42.682736 20.945909,40.345611 13.108979,41.682894 4.2988093,39.473385 1.8814493,30.810572 1.1858793,28.318659 -6.5773923e-7,12.97067 -6.5773923e-7,10.897 -6.5773923e-7,0.5126005 9.0787693,3.77603 14.681669,7.993748 Z"/></svg>
