<svg xmlns="http://www.w3.org/2000/svg" width="1.25rem" height="1.25rem" viewBox="0 0 67.733334 67.733329"><path fill="#1d9bf0" d="m 60.799001,20.049337 c 0.0413,0.59712 0.0413,1.19424 0.0413,1.796863 0,18.362127 -13.978687,39.539251 -39.539316,39.539251 v -0.011 C 13.750291,61.385451 6.3564501,59.222621 0,55.14459 c 1.0979331,0.13209 2.2013682,0.19813 3.3075553,0.20088 6.2573889,0.005 12.3359197,-2.094051 17.2587287,-5.960191 -5.946451,-0.11282 -11.1609391,-3.989981 -12.9825716,-9.650232 2.083045,0.40175 4.2293746,0.3192 6.2738986,-0.2394 C 7.374583,38.185836 2.7104341,32.489805 2.7104341,25.874707 v -0.17611 c 1.9317007,1.075917 4.0945448,1.673037 6.306919,1.739078 C 2.9113095,23.356896 1.02914,15.233862 4.716431,8.8829266 11.771817,17.564557 22.181537,22.842327 33.356228,23.400923 c -1.119952,-4.826491 0.410001,-9.884125 4.020248,-13.276978 5.596981,-5.2612604 14.399697,-4.9915934 19.660967,0.602625 3.112186,-0.613631 6.095032,-1.7555894 8.824737,-3.3735914 -1.037402,3.2167444 -3.208496,5.9491864 -6.108801,7.6855124 2.754465,-0.324701 5.44563,-1.062158 7.979955,-2.187605 -1.865654,2.795733 -4.215618,5.230991 -6.934303,7.198461 z"/></svg>
