<svg viewBox="0 0 36 36" version="1.1" xmlns="http://www.w3.org/2000/svg"> <path fill="#f18f26" d="m 29.086046,32.99817 c 0.180453,0.771461 1.171513,2.176895 1.94011,1.996442 0.769551,-0.181408 1.028296,-1.881868 0.847843,-2.651419 -0.180453,-0.771461 -0.952869,-1.247896 -1.72242,-1.066488 -0.768597,0.181408 -1.246941,0.951914 -1.065533,1.721465 z m -5.188266,0.619652 c 0.0029,0.792466 0.650204,2.385036 1.440761,2.382172 0.790556,-0.0038 1.426439,-1.601164 1.423574,-2.392675 -0.0029,-0.791511 -0.646385,-1.429303 -1.436941,-1.427394 -0.790557,0.0038 -1.430258,0.646385 -1.427394,1.437897 z m -5.032637,-2.335388 c -0.311257,0.72945 -0.348494,2.447097 0.378093,2.759309 0.728496,0.309348 1.944883,-0.904175 2.256141,-1.632671 0.310303,-0.727541 -0.02673,-1.568701 -0.75332,-1.880913 -0.727541,-0.310303 -1.568701,0.02578 -1.880914,0.754275 z M 14.061653,20.74168 c -0.77528,0.164222 -2.203628,1.119955 -2.042271,1.893326 0.165177,0.77337 1.857044,1.073171 2.632324,0.909904 0.774326,-0.163267 1.268901,-0.923271 1.107543,-1.696641 -0.164222,-0.773371 -0.921361,-1.269856 -1.697596,-1.106589 z M 12.11677,15.967789 c -0.77528,0.164221 -2.2036287,1.119955 -2.042271,1.893325 0.165177,0.773371 1.857044,1.073171 2.632324,0.909904 0.774325,-0.163267 1.2689,-0.923271 1.107543,-1.696641 -0.164222,-0.773371 -0.922316,-1.269856 -1.697596,-1.106588 z" /> <path fill="#ffcc4e" d="M 10.012704,0 C 9.4885319,0 8.8046862,1.742711 8.3511666,3.4909084 7.7868931,2.1723608 7.0503999,0.85967348 6.5758755,0.85967348 c -0.6110574,0 -1.2199683,2.16961642 -1.521678,4.04288962 -1.604026,1.0951298 -2.7748247,2.6825712 -2.7748247,4.5501158 0,2.5778991 3.8672267,3.2062511 5.1561763,3.2578091 1.3567724,0.08981 2.2817495,0.234597 2.9189679,0.928671 0.613923,1.228798 1.98676,4.897209 2.511888,6.717014 0.330353,1.144779 0.599572,2.071885 0.757109,2.545455 1.692821,5.076552 4.455493,8.490756 8.214451,10.148249 1.768248,0.781008 3.489254,1.04056 4.992074,1.04056 2.702975,0 4.702881,-0.837669 5.027505,-0.980886 2.168299,-0.964325 3.145188,-3.503516 2.181818,-5.670861 -0.953823,-2.14825 -3.45348,-3.125466 -5.607459,-2.207925 -0.126985,0.04774 -1.712635,0.619397 -3.19254,-0.069 C 23.47207,24.339699 22.380801,22.002414 21.776427,20.188337 21.638939,19.777783 21.40927,18.97156 21.121881,17.976682 19.340267,11.798322 18.416635,10.066048 17.317686,8.6004646 16.213639,6.9884793 14.094906,5.3267584 11.726457,4.2759898 11.411381,2.5182446 10.7011,0 10.012704,0 Z" /> <path d="m 30.342534,33.101287 c -0.08498,0 -0.17186,-0.01146 -0.256835,-0.03437 -0.507942,-0.141308 -0.805833,-0.667391 -0.664526,-1.175333 0.722767,-2.598906 -0.735179,-4.336603 -0.749501,-4.353789 -0.342765,-0.400052 -0.297891,-1.003472 0.102161,-1.346238 0.399098,-0.342765 1.003473,-0.29789 1.346238,0.102162 0.08784,0.102161 2.132975,2.53971 1.14096,6.107717 -0.116483,0.422967 -0.501259,0.699853 -0.918497,0.699853 z m -6.873449,-0.537541 c -0.233921,0 -0.467842,-0.08498 -0.653069,-0.25779 -0.384775,-0.360906 -0.404826,-0.965281 -0.04487,-1.350056 1.417846,-1.515234 1.387293,-4.003386 1.386338,-4.029165 -0.01528,-0.527038 0.400052,-0.966236 0.928045,-0.981512 0.517489,-0.0048 0.96719,0.400052 0.981512,0.928044 0.0038,0.132714 0.0697,3.281573 -1.900964,5.388769 -0.188091,0.200504 -0.443017,0.30171 -0.696988,0.30171 z m -8.155717,-8.302752 c -0.458294,0 -0.86312,-0.331309 -0.940457,-0.79915 -0.08593,-0.519399 0.265429,-1.012065 0.785783,-1.09704 2.934988,-0.486937 4.558112,-2.269509 4.574343,-2.287649 0.348494,-0.391459 0.952869,-0.428696 1.345283,-0.0802 0.393368,0.348494 0.432514,0.948095 0.08688,1.342419 -0.08307,0.09452 -2.058503,2.305789 -5.694299,2.908255 -0.05347,0.0095 -0.10598,0.01337 -0.157538,0.01337 z m 2.788907,4.637358 c -0.40578,0 -0.781963,-0.2597 -0.910858,-0.666435 -0.158493,-0.502214 0.120302,-1.039754 0.622515,-1.198247 2.571219,-0.814426 3.704541,-2.702023 3.715998,-2.721118 0.267338,-0.45543 0.851662,-0.608194 1.306137,-0.340856 0.455429,0.266383 0.607239,0.852617 0.340856,1.306137 -0.06015,0.103116 -1.522872,2.542574 -4.786304,3.57469 -0.09643,0.03151 -0.19382,0.04583 -0.288344,0.04583 z M 13.692154,18.710867 c -0.47357,0 -0.885079,-0.352313 -0.946185,-0.835431 -0.06588,-0.523219 0.304574,-1.000608 0.827793,-1.067442 2.567399,-0.324625 4.446403,-1.881869 4.464543,-1.8981 0.402917,-0.337991 1.005382,-0.289298 1.344328,0.113619 0.339901,0.401961 0.291208,1.002517 -0.109799,1.343373 -0.09261,0.07925 -2.310564,1.937245 -5.459423,2.335388 -0.04106,0.0057 -0.08116,0.0086 -0.121257,0.0086 z m -1.738651,-4.551429 c -0.405781,0 -0.781964,-0.260654 -0.910859,-0.669299 -0.157538,-0.503169 0.121257,-1.038799 0.624425,-1.197292 2.988457,-0.938548 4.060673,-2.5702642 4.104592,-2.6390083 0.28166,-0.4411076 0.869804,-0.5776409 1.312821,-0.2978908 0.443972,0.2787953 0.583369,0.8583461 0.309348,1.3042271 -0.05729,0.09261 -1.437896,2.28765 -5.154849,3.455343 -0.09452,0.0296 -0.190955,0.04392 -0.285478,0.04392 z" fill="#f18f26" /> <circle fill="#292f33" r="0.85930049" cy="7.2006497" cx="8.3085175" /> <path fill="#e75a70" d="m 3.7016792,8.243268 c -0.646385,0.4038712 -0.646385,1.6966411 -0.9691001,1.6966411 -0.3227151,0 -0.9691001,-0.7600035 -0.9691001,-1.6966411 -9.547e-4,-0.9366376 2.7325758,-0.4964848 1.9382002,0 z" /> <path fill="#fee7b8" d="m 7.1331527,9.6592043 c -0.039146,0.024824 -0.08593,0.034372 -0.1355786,0.024824 C 6.9803881,9.6802094 5.5195772,9.4539269 4.5676632,9.8234262 4.4444967,9.8711651 4.2420837,9.8014663 4.1733397,9.6410635 4.1045956,9.4806607 4.1952996,9.2925694 4.318466,9.2448305 5.6933469,8.7015616 7.0462678,9.0214123 7.1197858,9.0366888 7.2525,9.0643774 7.3059676,9.2180967 7.2992841,9.3918664 7.295465,9.5007111 7.1999872,9.6162393 7.1331527,9.6592043 Z M 6.6824973,11.892432 c -0.045829,0.0086 -0.092613,-9.55e-4 -0.1346238,-0.0296 -0.014322,-0.0095 -1.27081,-0.792466 -2.2933776,-0.814426 -0.1317595,-0.0029 -0.2912075,-0.147036 -0.2912075,-0.32558 0,-0.177588 0.1575385,-0.31985 0.2902527,-0.317941 1.481816,0.02291 2.6008163,0.850708 2.6628769,0.894628 0.111709,0.07829 0.099297,0.243469 0.025779,0.404826 -0.046784,0.102162 -0.1804531,0.17377 -0.2596997,0.188092 z" /> <path fill="#f18f26" d="m 8.3514499,3.4894264 c 0,0 0.3551777,-0.037236 0.8201548,0.031508 C 9.3787916,3.0817363 9.7301502,2.674046 9.7301502,2.674046 c 0,0 0.2682928,0.6377919 0.3685448,1.1256837 0.02387,0.1145734 0.208141,0.1117091 0.307439,0.1804531 0,0 0.03628,-3.30639749 -0.8239746,-3.66252983 9.548e-4,-0.00191 -0.7208577,1.07317093 -1.2307095,3.17177343 z M 5.0526906,4.9015436 c 0,0 0.3666349,-0.2549258 0.8430693,-0.5480428 C 6.1029468,3.7577191 6.438074,3.0807813 6.438074,3.0807813 c 0,0 0.293117,0.5747766 0.3293985,0.7733705 C 6.967976,3.745307 6.967976,3.7529452 7.1522482,3.6727439 c 0,0 -0.1088447,-2.1826234 -1.0493014,-2.412725 0,0 -0.6988978,1.3099559 -1.0502562,3.6415247 z" /> </svg>