<svg
   viewBox="0 0 36 36"
   version="1.1"
   xmlns="http://www.w3.org/2000/svg">
   <path
      fill="#ffcc4d"
      d="m 32.348,13.999 c 0,0 3.445,-8.812 1.651,-11.998 -0.604,-1.073 -8,1.998 -10.723,5.442 0,0 -2.586,-0.86 -5.276,-0.86 -2.69,0 -5.276,0.86 -5.276,0.86 C 10.001,3.999 2.605,0.928 2.001,2.001 0.207,5.187 3.652,13.999 3.652,13.999 c -0.897,1.722 -1.233,4.345 -1.555,7.16 -0.354,3.086 0.35,5.546 0.658,6.089 0.35,0.617 2.123,2.605 4.484,4.306 C 10.826,34.137 16.206,35 18,35 c 1.794,0 7.174,-0.862 10.761,-3.446 2.361,-1.701 4.134,-3.689 4.484,-4.306 0.308,-0.543 1.011,-3.003 0.658,-6.089 -0.324,-2.814 -0.658,-5.438 -1.555,-7.16 z" />
   <path
      fill="#f18f26"
      d="m 2.359,2.971 c 0.2,-0.599 5.348,2.173 6.518,5.404 0,0 -3.808,2.624 -4.528,4.624 0,0 -2.99,-7.028 -1.99,-10.028 z" />
   <path
      fill="#ffcc4d"
      d="m 5.98,7.261 c 0,-1.414 5.457,2.733 4.457,3.733 -1,1 -1.255,0.72 -2.255,1.72 -1,1 -2.202,-4.453 -2.202,-5.453 z" />
   <path
      fill="#f18f26"
      d="m 33.641,2.971 c -0.2,-0.599 -5.348,2.173 -6.518,5.404 0,0 3.808,2.624 4.528,4.624 0,0 2.99,-7.028 1.99,-10.028 z" />
   <path
      fill="#ffcc4d"
      d="m 30.02,7.261 c 0,-1.414 -5.457,2.733 -4.457,3.733 1,1 1.255,0.72 2.255,1.72 1,1 2.202,-4.453 2.202,-5.453 z" />
   <path
      d="m 26,20 c 0,1.105553 -0.896,2 -2,2 -1.105,0 -2,-0.894447 -2,-2 0,-1.104552 0.895,-2 2,-2 1.105,0 2,0.896448 2,2 z"
      fill="#292f33" />
   <path
      d="m 14,18.195 c 0,1.547774 -0.896,2.8 -2,2.8 -1.104,0 -2,-1.252226 -2,-2.8 0,-1.546373 0.896,-2.8 2,-2.8 1.104,0 2,1.255027 2,2.8 z"
      fill="#292f33" />
   <path
      fill="#fee7b8"
      d="m 2.2020267,30.458751 c -0.1479904,0 -0.2939809,-0.065 -0.3929745,-0.19 -0.1709889,-0.217 -0.1339913,-0.531 0.082995,-0.702 0.1619895,-0.127 4.0197388,-3.12 10.6473078,-2.605 0.274982,0.021 0.481643,0.261249 0.460645,0.536249 -0.021,0.275 -0.257659,0.500751 -0.53764,0.459751 -6.2325946,-0.474 -9.9143554,2.366 -9.9503531,2.395 -0.092994,0.07 -0.2019868,0.106 -0.3099802,0.106 z m 8.8674233,-4.663 c -0.049,0 -0.09999,-0.007 -0.14899,-0.022 -4.7896886,-1.497 -8.7364321,-0.347 -8.7764295,-0.336 -0.2649828,0.081 -0.5429648,-0.07 -0.6229596,-0.335 -0.078995,-0.265 0.070995,-0.543 0.3349783,-0.622 0.1729887,-0.052 4.2857215,-1.247 9.3613918,0.338 0.263982,0.083 0.410973,0.363 0.327978,0.627 -0.066,0.213 -0.262983,0.35 -0.475969,0.35 z m 22.728523,4.663 c 0.147991,0 0.293981,-0.065 0.392975,-0.19 0.170989,-0.217 0.133991,-0.531 -0.08299,-0.702 -0.161989,-0.127 -4.019739,-3.12 -10.647308,-2.605 -0.274982,0.021 -0.481649,0.261 -0.46065,0.536 0.022,0.275 0.257663,0.501 0.537645,0.46 6.232595,-0.474 9.914356,2.366 9.950353,2.395 0.09299,0.07 0.201987,0.106 0.30998,0.106 z m -8.867424,-4.663 c 0.049,0 0.09999,-0.007 0.148991,-0.022 4.789689,-1.497 8.736432,-0.347 8.77643,-0.336 0.264982,0.081 0.542964,-0.07 0.622959,-0.335 0.07899,-0.265 -0.071,-0.543 -0.334978,-0.622 -0.172989,-0.052 -4.285722,-1.247 -9.361392,0.338 -0.263983,0.083 -0.410973,0.363 -0.327979,0.627 0.066,0.213 0.262983,0.35 0.475969,0.35 z" />
   <path
      d="m 18,26.613281 c -0.276,0 -0.488281,0.224001 -0.488281,0.5 v 2.373047 c -0.809999,0.115 -1.346407,0.440141 -1.816407,0.744141 -0.567999,0.366999 -1.059985,0.683593 -2.083984,0.683593 -0.481999,0 -1.004641,-0.103547 -1.55664,-0.310546 -0.258,-0.095 -0.548532,0.03592 -0.644532,0.294922 -0.097,0.258999 0.03497,0.547531 0.292969,0.644531 0.663999,0.247 1.307204,0.371093 1.908203,0.371093 1.318999,0 2.013954,-0.44775 2.626953,-0.84375 0.524,-0.338999 0.89372,-0.630765 1.761719,-0.634765 0.867999,0.004 1.237719,0.295766 1.761719,0.634765 0.612999,0.396 1.307954,0.84375 2.626953,0.84375 0.600999,0 1.244204,-0.124093 1.908203,-0.371093 0.258,-0.097 0.389969,-0.385532 0.292969,-0.644531 -0.096,-0.259 -0.386532,-0.389922 -0.644532,-0.294922 -0.551999,0.206999 -1.074641,0.310546 -1.55664,0.310546 -1.023999,0 -1.515985,-0.316594 -2.083984,-0.683593 -0.47,-0.304 -1.006408,-0.629141 -1.816407,-0.744141 v -2.373047 c 0,-0.275999 -0.212281,-0.5 -0.488281,-0.5 z"
      fill="#67757f" />
   <path
      fill="#e75a70"
      d="m 19.4,24.807 h -2.8 c -0.64,0 -1.163,0.523 -1.163,1.163 0,0.639 0.523,1.163 1.163,1.163 h 0.237 v 0.345 c 0,0.639 0.523,1.163 1.163,1.163 0.64,0 1.163,-0.523 1.163,-1.163 V 27.133 H 19.4 c 0.639,0 1.163,-0.523 1.163,-1.163 0,-0.64 -0.524,-1.163 -1.163,-1.163 z" />
   <ellipse
      fill="#f4f7f9"
      cx="24.999666"
      cy="16.7057"
      rx="6.1173325"
      ry="6.1173582" />
   <path
      fill="#292f33"
      d="m 32.059222,36 c -0.52,0 -0.941334,-0.421335 -0.941334,-0.941337 V 17.176812 c 0,-0.520002 0.421334,-0.941337 0.941334,-0.941337 0.52,0 0.941333,0.421335 0.941333,0.941337 v 17.88274 C 32.999666,35.578665 32.579222,36 32.059222,36 Z" />
   <path
      fill="#67757f"
      d="m 32.059222,15.294137 c -0.048,0 -0.09333,0.01067 -0.140445,0.01422 C 31.268111,12.083454 28.413889,9.647 24.999667,9.647 c -3.892444,0 -7.058666,3.166235 -7.058666,7.058696 0,3.89246 3.166222,7.058695 7.058666,7.058695 3.082666,0 5.70311,-1.989341 6.66311,-4.749352 0.128,0.02755 0.259556,0.04356 0.395556,0.04356 1.04,0 1.882666,-0.84267 1.882666,-1.882674 0,-1.039116 -0.842666,-1.881786 -1.881777,-1.881786 z m -7.059555,6.588472 c -2.854222,0 -5.176,-2.321787 -5.176,-5.17691 0,-2.855123 2.322667,-5.17691 5.176,-5.17691 2.854222,0 5.176888,2.321787 5.176888,5.17691 0,2.855123 -2.322666,5.17691 -5.176888,5.17691 z" />
   <path
      d="m 27.814778,12.365237 c -0.810667,-0.527114 -1.776,-0.83556 -2.815111,-0.83556 -2.858667,0 -5.176889,2.317343 -5.176889,5.176911 0,1.039115 0.309334,2.004452 0.835556,2.815123 z m -5.024,9.016925 c 0.671111,0.317335 1.417778,0.500447 2.208889,0.500447 2.858666,0 5.176888,-2.317343 5.176888,-5.17691 0,-0.791114 -0.183111,-1.538674 -0.500444,-2.208898 z"
      fill="#bdddf4" />
   <path
      d="m 14.357868,13.820651 c -0.286223,0 -0.568889,-0.129778 -0.753778,-0.376 -0.880889,-1.174222 -1.802667,-1.803555 -2.740444,-1.870222 -1.2355556,-0.08444 -2.2426666,0.841778 -2.4302221,1.029333 -0.368,0.368 -0.9635555,0.368 -1.3306666,0 -0.3679999,-0.368 -0.3679999,-0.963555 0,-1.330666 0.4062222,-0.406222 1.8924443,-1.7208891 3.8942217,-1.5760001 1.506667,0.106667 2.889778,0.9875551 4.112889,2.6177771 0.312,0.416 0.227555,1.006223 -0.187556,1.317334 -0.170667,0.127111 -0.368889,0.188444 -0.564444,0.188444 z"
      fill="#292f33" />
</svg>