<svg viewBox="0 0 36 36" version="1.1" xmlns="http://www.w3.org/2000/svg"> <path fill="#FFCC4D" d="M32.348 13.999s3.445-8.812 1.651-11.998c-.604-1.073-8 1.998-10.723 5.442 0 0-2.586-.86-5.276-.86s-5.276.86-5.276.86C10.001 3.999 2.605.928 2.001 2.001.207 5.187 3.652 13.999 3.652 13.999c-.897 1.722-1.233 4.345-1.555 7.16-.354 3.086.35 5.546.658 6.089.35.617 2.123 2.605 4.484 4.306 3.587 2.583 8.967 3.445 10.761 3.445s7.174-.861 10.761-3.445c2.361-1.701 4.134-3.689 4.484-4.306.308-.543 1.012-3.003.659-6.089-.324-2.814-.659-5.438-1.556-7.16z" /> <path fill="#e8596e" d="m 15,31.709001 c 0,1.248488 1.61346,2.241643 3,2.251706 1.38654,0.01 3,-0.955149 3,-2.251706 -0.69095,-0.429024 -1.282018,-1.274 -3,-1.274 -1.717982,0 -2.224701,0.89102 -3,1.274 z" /> <path fill="#dd2f45" d="m 18,32.08983 c 0.183195,0 0.331682,-0.14851 0.331682,-0.331656 v -1.323173 h -0.663973 v 1.323173 C 17.668309,31.94138 17.81682,32.08983 18,32.08983 Z" /> <path fill="#f18f26" d="m 2.359,2.971 c 0.2,-0.599 5.348,2.173 6.518,5.404 0,0 -3.808,2.624 -4.528,4.624 0,0 -2.99,-7.028 -1.99,-10.028 z" /> <path fill="#ffcc4d" d="m 5.98,7.261 c 0,-1.414 5.457,2.733 4.457,3.733 -1,1 -1.255,0.72 -2.255,1.72 -1,1 -2.202,-4.453 -2.202,-5.453 z" /> <path fill="#F18F26" d="M33.641 2.971c-.2-.599-5.348 2.173-6.518 5.404 0 0 3.808 2.624 4.528 4.624 0 0 2.99-7.028 1.99-10.028z" /> <path fill="#FFCC4D" d="M30.02 7.261c0-1.414-5.457 2.733-4.457 3.733s1.255.72 2.255 1.72 2.202-4.453 2.202-5.453z" /> <path fill="#fee7b8" d="m 2.201,30.458002 c -0.148,0 -0.294,-0.06501 -0.393,-0.190001 -0.171,-0.216999 -0.134,-0.531 0.083,-0.701998 0.162,-0.127 4.02,-3.12 10.648,-2.605003 0.275,0.02101 0.481,0.261001 0.46,0.536002 -0.021,0.274998 -0.257,0.500998 -0.537,0.46 -6.233,-0.473999 -9.915,2.366001 -9.951,2.395001 -0.093,0.06999 -0.202,0.105999 -0.31,0.105999 z m 8.868,-4.663001 c -0.049,0 -0.1,-0.0071 -0.149,-0.022 C 6.13,24.276 2.183,25.426 2.143,25.437002 1.878,25.518001 1.6,25.367 1.52,25.102001 1.441,24.837001 1.591,24.559 1.855,24.48 c 0.173,-0.052 4.286,-1.247 9.362,0.338002 0.264,0.08299 0.411,0.362999 0.328,0.627 -0.066,0.212998 -0.263,0.349999 -0.476,0.349999 z m 22.73,4.663001 c 0.148,0 0.294,-0.06501 0.393,-0.190001 0.171,-0.216999 0.134,-0.531 -0.083,-0.701998 -0.162,-0.127 -4.02,-3.12 -10.648,-2.605003 -0.275,0.02101 -0.481,0.261001 -0.46,0.536002 0.022,0.274998 0.257,0.500998 0.537,0.46 6.233,-0.473999 9.915,2.366001 9.951,2.395001 0.093,0.06999 0.202,0.105999 0.31,0.105999 z m -8.868,-4.663001 c 0.049,0 0.1,-0.0071 0.149,-0.022 4.79,-1.497002 8.737,-0.347002 8.777,-0.336 0.265,0.081 0.543,-0.07001 0.623,-0.335001 0.079,-0.265 -0.071,-0.543001 -0.335,-0.622001 -0.173,-0.052 -4.286,-1.247 -9.362,0.338002 -0.264,0.08299 -0.411,0.362999 -0.328,0.627 0.066,0.212998 0.263,0.349999 0.476,0.35 z" /> <path fill="#67757f" d="m 24.736,30.898001 c -0.097,-0.257998 -0.384,-0.391999 -0.643,-0.294 -0.552,0.206003 -1.076,0.311 -1.559,0.311 -1.152,0 -1.561,-0.305998 -2.033,-0.658998 -0.451,-0.338001 -0.956,-0.715 -1.99,-0.803 v -2.339002 c 0,-0.275999 -0.224,-0.5 -0.5,-0.5 -0.276,0 -0.5,0.224001 -0.5,0.5 v 2.373002 c -0.81,0.114999 -1.346,0.438998 -1.816,0.743 -0.568,0.366999 -1.059,0.684998 -2.083,0.684998 -0.482,0 -1.006,-0.103999 -1.558,-0.311 -0.258,-0.09501 -0.547,0.03501 -0.643,0.294 -0.097,0.259002 0.035,0.547002 0.293,0.644003 0.664,0.246998 1.306,0.373 1.907,0.373 1.319,0 2.014,-0.449003 2.627,-0.845 0.524,-0.339003 0.894,-0.631001 1.762,-0.635003 0.992,0.008 1.444,0.278002 1.901,0.621 0.538,0.403002 1.147,0.859003 2.633,0.859003 0.601,0 1.244,-0.126002 1.908,-0.373 0.259,-0.09699 0.391,-0.385001 0.294,-0.644003 z" /> <path fill="#e75a70" d="m 19.4,24.807001 h -2.8 c -0.64,0 -1.163,0.522999 -1.163,1.163 0,0.639001 0.523,1.163002 1.163,1.163002 h 0.237 V 27.478 c 0,0.639001 0.523,1.163002 1.163,1.163002 0.64,0 1.163,-0.523 1.163,-1.163002 V 27.133003 H 19.4 c 0.639,0 1.163,-0.523 1.163,-1.163002 0,-0.640001 -0.524,-1.163 -1.163,-1.163 z" /> <path d="M 15.461616,20.930667 C 15.408286,20.810669 14.129171,18 11.499838,18 c -2.6284436,0 -3.9084435,2.810669 -3.9617768,2.930667 -0.081778,0.184001 -0.028444,0.399111 0.128,0.525333 0.1573333,0.127113 0.3795555,0.130668 0.5422221,0.01244 0.011556,-0.0079 1.1217777,-0.801775 3.2915547,-0.801775 2.156444,0 3.265778,0.78311 3.290667,0.800888 0.07822,0.05868 0.171555,0.088 0.264888,0.088 0.09778,0 0.196445,-0.03289 0.276445,-0.09689 0.159111,-0.126222 0.211555,-0.343112 0.129778,-0.528 z" fill="#292f33" /> <path fill="#292f33" d="M 28.461616,20.930667 C 28.408286,20.810669 27.129172,18 24.499838,18 c -2.628444,0 -3.908444,2.810669 -3.961777,2.930667 -0.08178,0.184001 -0.02844,0.399111 0.128,0.525333 0.157333,0.127113 0.379556,0.130668 0.542222,0.01244 0.01156,-0.0079 1.121778,-0.801775 3.291555,-0.801775 2.156445,0 3.265778,0.78311 3.290667,0.800888 0.07822,0.05868 0.171555,0.088 0.264889,0.088 0.09778,0 0.196444,-0.03289 0.276444,-0.09689 0.159111,-0.126222 0.211556,-0.343112 0.129778,-0.528 z" /> </svg> 