<svg xmlns="http://www.w3.org/2000/svg" viewBox="0 0 36 36"><rect width="0.79549503" height="22.185619" x="12.304788" y="-1.8992965" fill="#e3dbdb" transform="rotate(13.795)"/><path fill="#009736" d="m 10.104223,9.562835 c 1.352389,-0.5300768 2.506569,-1.2082406 4.203375,-1.499875 5.19067,1.1534216 8.428174,-0.021963 13.109625,2.554875 l -0.672125,2.77325 C 22.280315,10.767626 13.70839,12.040199 10.104223,9.562835 Z"/><path fill="#ffffff" d="m 14.919223,5.137835 c 4.975147,0.1714207 9.603968,0.6405211 13.185,2.644 -0.238588,0.9072681 -0.446417,1.9307495 -0.687,2.836 -5.172416,-2.3652637 -8.794076,-1.4833139 -13.14009,-2.5723956 0.703112,-0.3643601 1.49753,-0.749441 2.25709,-1.0446044 -0.860049,-0.6446818 -0.977282,-1.126323 -1.615,-1.863 z"/><path fill="#000000" d="m 12.089223,1.234835 c 3.410488,2.3329282 12.456584,1.1161379 16.655875,3.828125 l -0.640875,2.718875 c -3.804249,-2.244971 -8.448367,-1.6046704 -13.185,-2.644 -1.167917,-1.359375 -2.198218,-2.543625 -2.83,-3.903 z"/><path fill="#ee2a35" d="m 12.089223,1.234835 c 1.169248,2.0667322 2.843243,3.9449169 4.445,5.766 -2.129332,1.109375 -3.84645,1.7495 -6.43,2.562 z"/><path fill="#f18f26" d="m 12.247482,26.31175 c 0,0 0.504865,1.640452 -0.242364,5.748415 -0.133768,0.737161 -0.330823,1.490144 -0.43079,2.107202 -1.263601,0 -1.331204,1.4398 -1.062949,1.4398 h 1.505965 c 0.961545,0 2.136688,-2.39775 2.771725,-5.725402 0.635037,-3.327651 -2.541587,-3.570015 -2.541587,-3.570015 z m 9.379562,2.662409 c 0,0 1.63398,0.877401 1.573569,2.934978 -0.02373,0.813394 -0.179077,1.503808 -0.25531,2.174804 -1.31754,0 -1.322574,1.427575 -0.938531,1.427575 h 1.3348 c 0.663804,0 2.158263,-2.271174 2.430114,-5.236358 0.272569,-2.964466 -4.144642,-1.300999 -4.144642,-1.300999 z"/><path fill="#ffcc4e" d="m 30.602426,16.248965 c 0,-3.53981 -2.97813,-5.355742 -6.472631,-5.355742 -0.397707,0 -0.719181,0.322193 -0.719181,0.719181 0,0.396988 0.321474,0.719181 0.719181,0.719181 1.297403,0 4.83074,0.671715 4.83074,3.91738 0,2.071962 -1.126957,3.928169 -2.711313,4.302143 -0.117946,-0.0525 -0.248118,-0.07479 -0.366063,-0.138083 -5.206153,-2.817033 -9.678022,0.648702 -10.950254,-0.208563 -1.260006,-0.850072 -0.387639,-2.340935 -2.030968,-3.770667 -0.23733,-1.324013 -0.771681,-3.219774 -1.290211,-3.219774 -0.394831,0 -0.909764,1.312505 -1.251375,2.629326 -0.4250368,-0.993189 -0.9802438,-1.982063 -1.3376768,-1.982063 -0.460276,0 -0.919114,1.634699 -1.146375,3.045732 -1.208225,0.824901 -2.089941,2.020181 -2.089941,3.426899 0,1.941789 2.912684,2.414292 3.883579,2.453127 0.9708938,0.03884 2.1740838,2.561724 2.5782638,3.647688 0.893223,3.140664 1.475041,6.256157 1.940351,8.042604 -1.18593,0 -1.297403,1.518191 -0.969456,1.518191 0.512776,0 1.404561,-0.0022 1.600178,0 0.99319,0.01007 1.457061,-3.384467 1.457061,-6.364035 0,-0.152466 -0.0079,-0.450926 -0.0079,-0.450926 0,0 1.388019,0.363186 4.342416,-0.14959 1.757679,-0.304933 3.617482,0.610585 4.132415,2.27477 0.379009,1.225485 1.006135,2.376894 1.343431,3.224809 -1.142779,0 -1.111135,1.464972 -0.779593,1.464972 0.565996,0 1.295246,0.01007 1.569973,0 1.055758,-0.03956 0.462434,-5.447079 0.740757,-7.261573 0.278323,-1.814494 0.911203,-4.011593 -0.164693,-6.326637 2.327271,-1.275828 3.149295,-3.959093 3.149295,-6.15835 z"/><circle cx="9.0226736" cy="18.637365" r="0.64726311" fill="#292f33"/><path fill="#e75a70" d="m 6.8579382,19.422712 c -0.486886,0.304214 -0.486886,1.277986 -0.729969,1.277986 -0.243083,0 -0.729969,-0.572469 -0.729969,-1.277986 -7.19e-4,-0.705516 2.058297,-0.373974 1.459938,0 z"/><path fill="#fee7b8" d="m 9.4426752,20.489258 c -0.02949,0.0187 -0.06473,0.02589 -0.102123,0.0187 -0.01295,-0.0029 -1.113293,-0.173323 -1.830317,0.105 -0.09277,0.03596 -0.24524,-0.01654 -0.297021,-0.137363 -0.05178,-0.120823 0.01654,-0.262501 0.109315,-0.29846 1.035621,-0.409215 2.054701,-0.168289 2.110078,-0.156782 0.09997,0.02086 0.14024,0.136645 0.135206,0.267535 -0.0029,0.08199 -0.07479,0.169008 -0.125138,0.201371 z m -0.339453,1.682165 c -0.03452,0.0065 -0.06976,-7.19e-4 -0.101405,-0.02229 -0.01079,-0.0072 -0.95723,-0.596921 -1.727473,-0.613462 -0.09925,-0.0022 -0.21935,-0.110754 -0.21935,-0.245241 0,-0.133768 0.118665,-0.240926 0.218631,-0.239487 1.116169,0.01726 1.95905,0.64079 2.005796,0.673873 0.08414,0.05897 0.07479,0.183391 0.01942,0.304932 -0.03524,0.07695 -0.135925,0.130891 -0.195617,0.141679 z"/><path fill="#f18f26" d="m 10.360351,15.841909 c 0,0 0.267535,-0.02805 0.617776,0.02373 0.156063,-0.330824 0.420721,-0.637914 0.420721,-0.637914 0,0 0.20209,0.480413 0.277604,0.847915 0.01798,0.0863 0.156782,0.08414 0.231577,0.135925 0,0 0.02733,-2.490525 -0.620654,-2.758779 7.19e-4,-0.0014 -0.542982,0.808359 -0.927024,2.38912 z m -2.4847708,1.063669 c 0,0 0.276165,-0.192021 0.635037,-0.41281 0.156062,-0.448769 0.408495,-0.958669 0.408495,-0.958669 0,0 0.220788,0.432947 0.248117,0.582537 0.151028,-0.08199 0.151028,-0.07623 0.28983,-0.136644 0,0 -0.08199,-1.644049 -0.79038,-1.817371 0,0 -0.526441,0.986716 -0.791099,2.742957 z"/><path fill="#ffdd99" d="m 17.980795,27.178363 c -1.905111,0.409933 -1.711651,2.000762 -1.711651,2.000762 0,0 1.38802,0.363187 4.342416,-0.149589 0.767366,-0.133049 1.548397,-0.02158 2.234496,0.271131 -1.155724,-2.191345 -3.103267,-2.502032 -4.865261,-2.122304 z"/><path fill="#f18f26" d="m 15.273797,20.32097 c 0.34233,0.486166 1.723877,1.703021 1.974152,1.552712 0.243084,-0.145994 0.424317,-1.477917 0.24596,-1.946104 -0.955792,0.258186 -1.715247,0.473221 -2.220112,0.393392 z m 5.051529,1.933878 c 0.44805,0.09925 1.083806,-2.142441 1.014046,-2.965184 -1.042094,0.01223 -1.999324,0.18411 -2.851554,0.3862 0.240926,0.776716 1.404561,2.482614 1.837508,2.578984 z m 1.889289,-2.935698 c 0.03021,0.519968 0.706236,1.872029 0.924148,1.968399 0.220789,0.09853 1.21182,-0.9486 1.341992,-1.482232 -0.781031,-0.271851 -1.540486,-0.429351 -2.26614,-0.486167 z"/></svg>
