<svg viewBox="0 0 36 36" version="1.1" xmlns="http://www.w3.org/2000/svg"> <path fill="#FFCC4D" d="M32.348 13.999s3.445-8.812 1.651-11.998c-.604-1.073-8 1.998-10.723 5.442 0 0-2.586-.86-5.276-.86s-5.276.86-5.276.86C10.001 3.999 2.605.928 2.001 2.001.207 5.187 3.652 13.999 3.652 13.999c-.897 1.722-1.233 4.345-1.555 7.16-.354 3.086.35 5.546.658 6.089.35.617 2.123 2.605 4.484 4.306 3.587 2.583 8.967 3.445 10.761 3.445s7.174-.861 10.761-3.445c2.361-1.701 4.134-3.689 4.484-4.306.308-.543 1.012-3.003.659-6.089-.324-2.814-.659-5.438-1.556-7.16z" /> <path fill="#F18F26" d="M2.359 2.971c.2-.599 5.348 2.173 6.518 5.404 0 0-3.808 2.624-4.528 4.624 0 0-2.99-7.028-1.99-10.028z" /> <path fill="#FFCC4D" d="M5.98 7.261c0-1.414 5.457 2.733 4.457 3.733s-1.255.72-2.255 1.72S5.98 8.261 5.98 7.261z" /> <path fill="#F18F26" d="M33.641 2.971c-.2-.599-5.348 2.173-6.518 5.404 0 0 3.808 2.624 4.528 4.624 0 0 2.99-7.028 1.99-10.028z" /> <path fill="#FFCC4D" d="M30.02 7.261c0-1.414-5.457 2.733-4.457 3.733s1.255.72 2.255 1.72 2.202-4.453 2.202-5.453z" /> <path d="m 26,20 c 0,1.105553 -0.896,2 -2,2 -1.105,0 -2,-0.894447 -2,-2 0,-1.104552 0.895,-2 2,-2 1.105,0 2,0.896448 2,2 z" fill="#292f33"/> <path d="m 14,20 c 0,1.105553 -0.896,2 -2,2 -1.104,0 -2,-0.894447 -2,-2 0,-1.104552 0.896,-2 2,-2 1.104,0 2,0.896448 2,2 z" fill="#292f33"/> <path fill="#67757F" d="M24.736 30.898c-.097-.258-.384-.392-.643-.294-.552.206-1.076.311-1.559.311-1.152 0-1.561-.306-2.033-.659-.451-.338-.956-.715-1.99-.803v-2.339c0-.276-.224-.5-.5-.5s-.5.224-.5.5v2.373c-.81.115-1.346.439-1.816.743-.568.367-1.059.685-2.083.685-.482 0-1.006-.104-1.558-.311-.258-.095-.547.035-.643.294-.097.259.035.547.293.644.664.247 1.306.373 1.907.373 1.319 0 2.014-.449 2.627-.845.524-.339.98-.631 1.848-.635.992.008 1.358.278 1.815.621.538.403 1.147.859 2.633.859.601 0 1.244-.126 1.908-.373.259-.097.391-.385.294-.644z" /> <path fill="#E75A70" d="M19.4 24.807h-2.8c-.64 0-1.163.523-1.163 1.163 0 .639.523 1.163 1.163 1.163h.237v.345c0 .639.523 1.163 1.163 1.163s1.163-.523 1.163-1.163v-.345h.237c.639 0 1.163-.523 1.163-1.163s-.524-1.163-1.163-1.163z" /> <path d="m 2.3671875,18.976562 c -0.066879,0.48419 -0.1258935,0.989095 -0.1855469,1.494141 l 7.0859375,3.369141 v 4.80664 L 3.1367188,27.773438 c 0.3810493,0.473919 0.9860441,1.13244 1.7714843,1.863281 l 4.6894531,0.648437 C 10.823532,31.287642 13.263843,34.746094 18,34.746094 c 4.736157,0 7.176468,-3.458452 8.402344,-4.460938 l 4.689453,-0.648437 c 0.78544,-0.730841 1.390435,-1.389362 1.771484,-1.863281 l -6.130859,0.873046 v -4.80664 l 7.08789,-3.371094 c -0.05986,-0.50428 -0.120578,-1.008621 -0.1875,-1.492188 L 25.931641,22.625 C 24.547893,22.171117 21.4645,21.328125 18,21.328125 c -3.4645,0 -6.547893,0.842992 -7.931641,1.296875 z" fill="#ffffff" /> <path fill="#fee7b8" d="m 1.8554688,24.480469 c -0.2639825,0.079 -0.412979,0.358047 -0.3339844,0.623047 0.079995,0.264996 0.3580652,0.414984 0.6230468,0.333984 0.03528,-0.0097 3.1112401,-0.904052 7.1230469,-0.08789 V 24.330078 C 6.744257,23.879177 4.3868913,23.887841 1.8554688,24.480469 Z M 26.732422,24.330078 v 1.019531 c 4.011807,-0.816159 7.087766,0.07819 7.123047,0.08789 0.264978,0.081 0.543052,-0.06899 0.623047,-0.333984 0.07899,-0.265 -0.07001,-0.544047 -0.333985,-0.623047 -2.600968,-0.54495 -4.881097,-0.627661 -7.412109,-0.15039 z M 9.2675781,26.988281 c -2.7163944,0.263629 -5.3035794,1.203118 -7.375,2.578125 -0.2169855,0.171 -0.2549737,0.486125 -0.083984,0.703125 0.098994,0.125 0.2445881,0.189453 0.3925781,0.189453 0.107993,0 0.2175529,-0.03547 0.3105469,-0.105468 1.9299447,-1.331508 4.4684958,-2.036253 6.7558593,-2.355469 z m 17.4648439,0 v 1.009766 c 2.443686,0.267665 4.666318,1.002585 6.755859,2.355469 0.09299,0.07 0.202554,0.105468 0.310547,0.105468 0.147991,0 0.293584,-0.06445 0.392578,-0.189453 0.170989,-0.217 0.132985,-0.532125 -0.08398,-0.703125 -2.038765,-1.447734 -4.931013,-2.332122 -7.375,-2.578125 z" /> </svg> 