<svg xmlns="http://www.w3.org/2000/svg" viewBox="0 0 36 36"><path fill="#FFCC4D" d="M32.348 13.999s3.445-8.812 1.651-11.998c-.604-1.073-8 1.998-10.723 5.442 0 0-2.586-.86-5.276-.86s-5.276.86-5.276.86C10.001 3.999 2.605.928 2.001 2.001.207 5.187 3.652 13.999 3.652 13.999c-.897 1.722-1.233 4.345-1.555 7.16-.354 3.086.35 5.546.658 6.089.35.617 2.123 2.605 4.484 4.306 3.587 2.583 8.967 3.445 10.761 3.445s7.174-.861 10.761-3.445c2.361-1.701 4.134-3.689 4.484-4.306.308-.543 1.012-3.003.659-6.089-.324-2.814-.659-5.438-1.556-7.16z"/><path fill="#F18F26" d="M2.359 2.971c.2-.599 5.348 2.173 6.518 5.404 0 0-3.808 2.624-4.528 4.624 0 0-2.99-7.028-1.99-10.028z"/><path fill="#FFCC4D" d="M5.98 7.261c0-1.414 5.457 2.733 4.457 3.733s-1.255.72-2.255 1.72S5.98 8.261 5.98 7.261z"/><path fill="#F18F26" d="M33.641 2.971c-.2-.599-5.348 2.173-6.518 5.404 0 0 3.808 2.624 4.528 4.624 0 0 2.99-7.028 1.99-10.028z"/><path fill="#FFCC4D" d="M30.02 7.261c0-1.414-5.457 2.733-4.457 3.733s1.255.72 2.255 1.72 2.202-4.453 2.202-5.453z"/><path fill="#fee7b8" d="m 2.2020267,30.958751 c -0.1479904,0 -0.2939809,-0.065 -0.3929745,-0.19 -0.1709889,-0.217 -0.1339913,-0.531 0.082995,-0.702 0.1619895,-0.127 4.0197388,-3.12 10.6473078,-2.605 0.274982,0.021 0.481643,0.261249 0.460645,0.536249 -0.021,0.275 -0.257659,0.500751 -0.53764,0.459751 -6.2325946,-0.474 -9.9143554,2.366 -9.9503531,2.395 -0.092994,0.07 -0.2019868,0.106 -0.3099802,0.106 z m 8.8674233,-4.663 c -0.049,0 -0.09999,-0.007 -0.14899,-0.022 -4.7896886,-1.497 -8.7364321,-0.347 -8.7764295,-0.336 -0.2649828,0.081 -0.5429648,-0.07 -0.6229596,-0.335 -0.078995,-0.265 0.070995,-0.543 0.3349783,-0.622 0.1729887,-0.052 4.2857215,-1.247 9.3613918,0.338 0.263982,0.083 0.410973,0.363 0.327978,0.627 -0.066,0.213 -0.262983,0.35 -0.475969,0.35 z m 22.728523,4.663 c 0.147991,0 0.293981,-0.065 0.392975,-0.19 0.170989,-0.217 0.133991,-0.531 -0.08299,-0.702 -0.161989,-0.127 -4.019739,-3.12 -10.647308,-2.605 -0.274982,0.021 -0.481649,0.261 -0.46065,0.536 0.022,0.275 0.257663,0.501 0.537645,0.46 6.232595,-0.474 9.914356,2.366 9.950353,2.395 0.09299,0.07 0.201987,0.106 0.30998,0.106 z m -8.867424,-4.663 c 0.049,0 0.09999,-0.007 0.148991,-0.022 4.789689,-1.497 8.736432,-0.347 8.77643,-0.336 0.264982,0.081 0.542964,-0.07 0.622959,-0.335 0.07899,-0.265 -0.071,-0.543 -0.334978,-0.622 -0.172989,-0.052 -4.285722,-1.247 -9.361392,0.338 -0.263983,0.083 -0.410973,0.363 -0.327979,0.627 0.066,0.213 0.262983,0.35 0.475969,0.35 z"/><path fill="#67757F" d="M24.736 30.898c-.097-.258-.384-.392-.643-.294-.552.206-1.076.311-1.559.311-1.152 0-1.561-.306-2.033-.659-.451-.338-.956-.715-1.99-.803v-2.339c0-.276-.224-.5-.5-.5s-.5.224-.5.5v2.373c-.81.115-1.346.439-1.816.743-.568.367-1.059.685-2.083.685-.482 0-1.006-.104-1.558-.311-.258-.095-.547.035-.643.294-.097.259.035.547.293.644.664.247 1.306.373 1.907.373 1.319 0 2.014-.449 2.627-.845.524-.339.98-.631 1.848-.635.992.008 1.358.278 1.815.621.538.403 1.147.859 2.633.859.601 0 1.244-.126 1.908-.373.259-.097.391-.385.294-.644z"/><path fill="#E75A70" d="M19.4 24.807h-2.8c-.64 0-1.163.523-1.163 1.163 0 .639.523 1.163 1.163 1.163h.237v.345c0 .639.523 1.163 1.163 1.163s1.163-.523 1.163-1.163v-.345h.237c.639 0 1.163-.523 1.163-1.163s-.524-1.163-1.163-1.163z"/><path fill="#dd2e44" d="M 35.025464,6.1718014 C 34.433466,5.9263198 33.75701,6.0620845 33.304724,6.5143706 32.605378,7.2129277 30.149772,9.208354 28.106197,9.208354 c -0.547006,0 -1.055334,0.283369 -1.34265,0.749074 -0.287316,0.464915 -0.313364,1.046651 -0.06946,1.536036 l 1.57866,3.15732 c 0.267582,0.534376 0.813799,0.872209 1.412111,0.872209 4.99488,0 6.31464,-5.163007 6.31464,-7.8932991 0,-0.638568 -0.384404,-1.2139895 -0.974033,-1.4578925 z"/><path fill="#dd2e44" d="M 7.8933,9.208354 C 5.8568286,9.208354 3.4485828,7.2618661 2.6947726,6.5135813 2.2440652,6.0620845 1.5636627,5.9271091 0.9748225,6.1718014 0.3844037,6.4157044 0,6.9911259 0,7.6296939 c 0,2.7302921 1.3197598,7.8932991 6.31464,7.8932991 0.597523,0 1.144529,-0.337833 1.412111,-0.872999 l 1.57866,-3.15732 C 9.550104,11.00329 9.524056,10.422343 9.23595,9.956638 8.948634,9.491723 8.440306,9.208354 7.8933,9.208354 Z"/><path fill="#292f33" d="m 28.888222,16.391 c -0.196445,0 -4.845334,0.03378 -7.739556,2.927111 -0.347555,0.347555 -0.347555,0.909333 0,1.256889 0.173334,0.173333 0.400889,0.260444 0.628445,0.260444 0.01155,0 0.02133,-0.0062 0.032,-0.0062 -0.01422,0.148444 -0.032,0.296 -0.032,0.450667 0,1.719111 0.994666,3.111111 2.222222,3.111111 1.227555,0 2.222222,-1.392 2.222222,-3.111111 0,-1.003556 -0.345778,-1.887112 -0.872889,-2.456 1.829333,-0.635556 3.514667,-0.655111 3.541333,-0.655111 0.489778,-0.0018 0.887112,-0.4 0.886223,-0.890667 -8.89e-4,-0.489778 -0.397334,-0.887111 -0.888,-0.887111 z"/><path fill="#292f33" d="M 14.84934,19.318111 C 11.956079,16.424778 7.3064188,16.391 7.1099792,16.391 c -0.4906543,0 -0.8879777,0.397333 -0.8879777,0.887111 -8.888e-4,0.490667 0.3964345,0.888889 0.8870888,0.890666 0.025777,0 1.7110681,0.01956 3.5403557,0.655112 -0.527098,0.568888 -0.8728668,1.452555 -0.8728668,2.456111 0,1.719111 0.9946418,3.111 2.2221658,3.111 1.227525,0 2.222166,-1.392 2.222166,-3.111111 0,-0.154667 -0.01689,-0.302223 -0.03289,-0.450667 0.01156,0 0.02222,0.0062 0.03289,0.0062 0.22755,0 0.4551,-0.08711 0.628429,-0.260444 0.347547,-0.347556 0.347547,-0.909334 0,-1.256889 z"/></svg>
