<svg viewBox="0 0 36 36" version="1.1" xmlns="http://www.w3.org/2000/svg"> <path fill="#ffcc4d" d="m 32.348,13.999 c 0,0 3.445,-8.812 1.651,-11.998 -0.604,-1.073 -8,1.998 -10.723,5.442 0,0 -2.586,-0.86 -5.276,-0.86 -2.69,0 -5.276,0.86 -5.276,0.86 C 10.001,3.999 2.605,0.928 2.001,2.001 0.207,5.187 3.652,13.999 3.652,13.999 c -0.897,1.722 -1.233,4.345 -1.555,7.16 -0.354,3.086 0.35,5.546 0.658,6.089 0.35,0.617 2.123,2.605 4.484,4.306 C 10.826,34.137 16.206,35 18,35 c 1.794,0 7.174,-0.862 10.761,-3.446 2.361,-1.701 4.134,-3.689 4.484,-4.306 0.308,-0.543 1.012,-3.003 0.659,-6.089 -0.324,-2.814 -0.659,-5.438 -1.556,-7.16 z" /> <path fill="#f18f26" d="m 2.359,2.971 c 0.2,-0.599 5.348,2.173 6.518,5.404 0,0 -3.808,2.624 -4.528,4.624 0,0 -2.99,-7.028 -1.99,-10.028 z" /> <path fill="#ffcc4d" d="m 5.98,7.261 c 0,-1.414 5.457,2.733 4.457,3.733 -1,1 -1.255,0.72 -2.255,1.72 -1,1 -2.202,-4.453 -2.202,-5.453 z" /> <path fill="#f18f26" d="m 33.641,2.971 c -0.2,-0.599 -5.348,2.173 -6.518,5.404 0,0 3.808,2.624 4.528,4.624 0,0 2.99,-7.028 1.99,-10.028 z" /> <path fill="#ffcc4d" d="m 30.02,7.261 c 0,-1.414 -5.457,2.733 -4.457,3.733 1,1 1.255,0.72 2.255,1.72 1,1 2.202,-4.453 2.202,-5.453 z" /> <path d="m 26,20 c 0,1.105553 -0.896,2 -2,2 -1.105,0 -2,-0.894447 -2,-2 0,-1.104552 0.895,-2 2,-2 1.105,0 2,0.896448 2,2 z" fill="#292f33"/> <path d="m 14,20 c 0,1.105553 -0.896,2 -2,2 -1.104,0 -2,-0.894447 -2,-2 0,-1.104552 0.896,-2 2,-2 1.104,0 2,0.896448 2,2 z" fill="#292f33"/> <path fill="#fee7b8" d="m 2.2020267,30.458751 c -0.1479904,0 -0.2939809,-0.065 -0.3929745,-0.19 -0.1709889,-0.217 -0.1339913,-0.531 0.082995,-0.702 0.1619895,-0.127 4.0197388,-3.12 10.6473078,-2.605 0.274982,0.021 0.481643,0.261249 0.460645,0.536249 -0.021,0.275 -0.257659,0.500751 -0.53764,0.459751 -6.2325946,-0.474 -9.9143554,2.366 -9.9503531,2.395 -0.092994,0.07 -0.2019868,0.106 -0.3099802,0.106 z m 8.8674233,-4.663 c -0.049,0 -0.09999,-0.007 -0.14899,-0.022 -4.7896886,-1.497 -8.7364321,-0.347 -8.7764295,-0.336 -0.2649828,0.081 -0.5429648,-0.07 -0.6229596,-0.335 -0.078995,-0.265 0.070995,-0.543 0.3349783,-0.622 0.1729887,-0.052 4.2857215,-1.247 9.3613918,0.338 0.263982,0.083 0.410973,0.363 0.327978,0.627 -0.066,0.213 -0.262983,0.35 -0.475969,0.35 z m 22.728523,4.663 c 0.147991,0 0.293981,-0.065 0.392975,-0.19 0.170989,-0.217 0.133991,-0.531 -0.08299,-0.702 -0.161989,-0.127 -4.019739,-3.12 -10.647308,-2.605 -0.274982,0.021 -0.481649,0.261 -0.46065,0.536 0.022,0.275 0.257663,0.501 0.537645,0.46 6.232595,-0.474 9.914356,2.366 9.950353,2.395 0.09299,0.07 0.201987,0.106 0.30998,0.106 z m -8.867424,-4.663 c 0.049,0 0.09999,-0.007 0.148991,-0.022 4.789689,-1.497 8.736432,-0.347 8.77643,-0.336 0.264982,0.081 0.542964,-0.07 0.622959,-0.335 0.07899,-0.265 -0.071,-0.543 -0.334978,-0.622 -0.172989,-0.052 -4.285722,-1.247 -9.361392,0.338 -0.263983,0.083 -0.410973,0.363 -0.327979,0.627 0.066,0.213 0.262983,0.35 0.475969,0.35 z" /> <path fill="#67757f" d="m 24.736,30.898 c -0.097,-0.258 -0.384,-0.392 -0.643,-0.294 -0.552,0.206 -1.076,0.311 -1.559,0.311 -1.152,0 -1.561,-0.306 -2.033,-0.659 -0.451,-0.338 -0.956,-0.715 -1.99,-0.803 v -2.339 c 0,-0.276 -0.224,-0.5 -0.5,-0.5 -0.276,0 -0.5,0.224 -0.5,0.5 v 2.373 c -0.81,0.115 -1.346,0.439 -1.816,0.743 -0.568,0.367 -1.059,0.685 -2.083,0.685 -0.482,0 -1.006,-0.104 -1.558,-0.311 -0.258,-0.095 -0.547,0.035 -0.643,0.294 -0.097,0.259 0.035,0.547 0.293,0.644 0.664,0.247 1.306,0.373 1.907,0.373 1.319,0 2.014,-0.449 2.627,-0.845 0.524,-0.339 0.98,-0.631 1.848,-0.635 0.992,0.008 1.358,0.278 1.815,0.621 0.538,0.403 1.147,0.859 2.633,0.859 0.601,0 1.244,-0.126 1.908,-0.373 0.259,-0.097 0.391,-0.385 0.294,-0.644 z" /> <path fill="#e75a70" d="m 19.4,24.807 h -2.8 c -0.64,0 -1.163,0.523 -1.163,1.163 0,0.639 0.523,1.163 1.163,1.163 h 0.237 v 0.345 c 0,0.639 0.523,1.163 1.163,1.163 0.64,0 1.163,-0.523 1.163,-1.163 V 27.133 H 19.4 c 0.639,0 1.163,-0.523 1.163,-1.163 0,-0.64 -0.524,-1.163 -1.163,-1.163 z" /> <path fill="#77b255" d="m 7.6771875,1.5557527 c -3.419941,0 -6.1936875,2.7737465 -6.1936875,6.1936875 0,1.9520399 0.9044264,4.4714738 2.3165843,5.6069808 C 2.9995649,13.98517 2.7507163,15.243149 2.4754578,16.10245 5.8449504,15.013478 10.238297,12.5 18,12.5 c 7.761703,0 12.15505,2.513478 15.524542,3.60245 -0.275257,-0.859301 -0.524106,-2.11728 -1.324627,-2.746029 1.412159,-1.135507 2.316585,-3.6549409 2.316585,-5.6069808 0,-3.419941 -2.773746,-6.1936875 -6.193688,-6.1936875 -2.95335,0 -5.420058,2.0692617 -6.040457,4.8368022 C 20.952779,5.8939641 19.51229,5.6102793 18,5.6102793 c -1.51229,0 -2.952779,0.2836848 -4.282355,0.7822756 C 13.097246,3.6250144 10.630538,1.5557527 7.6771875,1.5557527 Z" /> <circle fill="#ffffff" cx="7.1610465" cy="7.2341223" r="3.6129844" /> <circle fill="#292f33" cx="7.1610465" cy="7.2341223" r="1.5484219" /> <circle fill="#ffffff" cx="28.838955" cy="7.2341223" r="3.6129844" /> <circle fill="#292f33" cx="28.838955" cy="7.2341223" r="1.5484219" /> </svg>