<svg viewBox="0 0 36 36" version="1.1" xmlns="http://www.w3.org/2000/svg"> <path fill="#f4900c" d="m 18,35.8 c -0.39,0 -0.745,-0.218 -0.921,-0.565 l -1.8,-3.554 -3.024,2.596 c -0.191,0.161 -0.43,0.247 -0.672,0.247 -0.133,0 -0.267,-0.025 -0.394,-0.078 -0.359,-0.148 -0.606,-0.487 -0.634,-0.873 l -0.304,-3.976 -3.7880001,1.241 c -0.105,0.034 -0.213,0.051 -0.321,0.051 -0.27,0 -0.532,-0.106 -0.73,-0.303 -0.274,-0.273 -0.3710001,-0.681 -0.25,-1.051 l 1.24,-3.788 -3.972,-0.301 c -0.387,-0.031 -0.7260001,-0.275 -0.875,-0.634 -0.148,-0.361 -0.083,-0.772 0.17,-1.067 l 2.594,-3.024 -3.55400006,-1.8 C 0.41799986,18.745 0.19999985,18.388 0.19999985,18 c 0,-0.388 0.21800001,-0.745 0.56499999,-0.921 l 3.55400006,-1.8 -2.594,-3.024 c -0.2520001,-0.295 -0.318,-0.708 -0.17,-1.066 0.1489999,-0.359 0.4869999,-0.606 0.875,-0.634 l 3.972,-0.304 -1.24,-3.788 c -0.1210001,-0.37 -0.024,-0.775 0.25,-1.051 0.198,-0.196 0.46,-0.301 0.73,-0.301 0.108,0 0.216,0.017 0.321,0.051 L 10.251,6.402 10.555,2.43 c 0.029,-0.3880001 0.275,-0.726 0.634,-0.875 0.127,-0.052 0.261,-0.078 0.394,-0.078 0.242,0 0.481,0.084 0.672,0.248 l 3.024,2.594 1.8,-3.5540001 C 17.255,0.4179999 17.61,0.2 18,0.2 c 0.388,0 0.745,0.2179999 0.92,0.5649999 L 20.722,4.319 23.746,1.725 c 0.19,-0.164 0.431,-0.248 0.671,-0.248 0.135,0 0.268,0.026 0.396,0.078 0.358,0.149 0.603,0.4869999 0.634,0.875 l 0.303,3.972 3.785,-1.24 c 0.105,-0.035 0.215,-0.051 0.321,-0.051 0.27,0 0.534,0.105 0.729,0.3009999 0.276,0.276 0.373,0.682 0.252,1.0510001 l -1.241,3.788 3.976,0.304 c 0.386,0.029 0.725,0.275 0.873,0.634 0.148,0.358 0.084,0.771 -0.169,1.066 l -2.596,3.024 3.554,1.8 c 0.348,0.177 0.566,0.533 0.566,0.921 0,0.388 -0.218,0.744 -0.565,0.921 l -3.554,1.8 2.596,3.024 c 0.253,0.295 0.317,0.706 0.169,1.067 -0.148,0.358 -0.487,0.603 -0.876,0.634 l -3.973,0.301 1.241,3.788 c 0.121,0.371 0.024,0.777 -0.252,1.051 -0.195,0.197 -0.46,0.303 -0.729,0.303 -0.106,0 -0.216,-0.017 -0.321,-0.051 l -3.785,-1.241 -0.303,3.973 c -0.031,0.389 -0.275,0.728 -0.634,0.876 -0.129,0.053 -0.262,0.078 -0.396,0.078 -0.24,0 -0.48,-0.086 -0.671,-0.247 l -3.024,-2.596 -1.802,3.554 C 18.745,35.582 18.388,35.8 18,35.8 Z" /> <path fill="#ffcc4d" d="m 29.65775,12.4815 c 0,0 2.799063,-7.15975 1.341438,-9.748375 -0.49075,-0.8718125 -6.5,1.623375 -8.712438,4.421625 0,0 -2.101125,-0.69875 -4.28675,-0.69875 -2.185625,0 -4.28675,0.69875 -4.28675,0.69875 C 11.500812,4.3565 5.4915624,1.8613125 5.0008124,2.733125 3.5431874,5.32175 6.3422499,12.4815 6.3422499,12.4815 5.6134374,13.880625 5.3404374,16.011812 5.0788124,18.299 c -0.287625,2.507375 0.284375,4.506125 0.534625,4.947313 0.284375,0.501312 1.7249375,2.116562 3.64325,3.498625 2.9144376,2.098687 7.2856876,2.799875 8.7433126,2.799875 1.457625,0 5.828875,-0.700375 8.743313,-2.799875 1.918312,-1.382063 3.358875,-2.997313 3.64325,-3.498625 0.25025,-0.441188 0.821437,-2.439938 0.534625,-4.947313 -0.26325,-2.286375 -0.534625,-4.418375 -1.263438,-5.8175 z" /> <path fill="#f18f26" d="m 5.2916874,3.52125 c 0.1625,-0.4866875 4.34525,1.7655625 5.2958746,4.3907501 0,0 -3.0939996,2.1319999 -3.6789996,3.7569999 0,0 -2.429375,-5.71025 -1.616875,-8.14775 z" /> <path fill="#ffcc4d" d="m 8.2337499,7.006875 c 0,-1.148875 4.4338121,2.2205621 3.6213121,3.033062 -0.8125,0.8125 -1.019687,0.585 -1.832187,1.3975 -0.8125001,0.8125 -1.7891251,-3.6180619 -1.7891251,-4.430562 z" /> <path fill="#f18f26" d="m 30.708313,3.52125 c -0.1625,-0.4866875 -4.34525,1.7655625 -5.295875,4.3907501 0,0 3.094,2.1319999 3.679,3.7569999 0,0 2.429375,-5.71025 1.616875,-8.14775 z" /> <path fill="#ffcc4d" d="m 27.76625,7.006875 c 0,-1.148875 -4.433812,2.2205621 -3.621312,3.033062 0.8125,0.8125 1.019687,0.585 1.832187,1.3975 0.8125,0.8125 1.789125,-3.6180619 1.789125,-4.430562 z" /> <path d="m 24.5,17.357312 c 0,0.898262 -0.728,1.625 -1.625,1.625 -0.897812,0 -1.625,-0.726738 -1.625,-1.625 0,-0.897448 0.727188,-1.625 1.625,-1.625 0.897813,0 1.625,0.728364 1.625,1.625 z" fill="#292f33" /> <path d="m 14.75,17.357312 c 0,0.898262 -0.728,1.625 -1.625,1.625 -0.897,0 -1.625,-0.726738 -1.625,-1.625 0,-0.897448 0.728,-1.625 1.625,-1.625 0.897,0 1.625,0.728364 1.625,1.625 z" fill="#292f33" /> <path fill="#fee7b8" d="m 5.1641466,25.855048 c -0.1202422,0 -0.2388595,-0.05281 -0.3192918,-0.154375 -0.1389285,-0.176313 -0.1088679,-0.431438 0.067433,-0.570375 0.1316165,-0.103188 3.2660378,-2.535 8.6509382,-2.116563 0.223423,0.01706 0.391335,0.212265 0.374274,0.435703 -0.01706,0.223437 -0.209348,0.40686 -0.436833,0.373547 -5.0639831,-0.385125 -8.0554138,1.922375 -8.0846619,1.945938 -0.075558,0.05687 -0.1641143,0.08612 -0.2518589,0.08612 z M 12.368928,22.06636 c -0.03981,0 -0.08124,-0.0057 -0.121054,-0.01788 C 8.3562517,20.832168 5.1495225,21.766543 5.1170247,21.77548 4.9017261,21.84129 4.6758658,21.7186 4.61087,21.503293 4.546686,21.28798 4.668553,21.062105 4.8830399,20.997918 c 0.1405533,-0.04225 3.4821487,-1.013188 7.6061311,0.274625 0.214485,0.06744 0.333915,0.294937 0.266482,0.509437 -0.05363,0.173063 -0.213674,0.284375 -0.386725,0.284375 z m 18.466925,3.788688 c 0.120243,0 0.23886,-0.05281 0.319292,-0.154375 0.138929,-0.176313 0.108868,-0.431438 -0.06743,-0.570375 -0.131616,-0.103188 -3.266038,-2.535 -8.650938,-2.116563 -0.223423,0.01706 -0.39134,0.212063 -0.374278,0.4355 0.01788,0.223438 0.209351,0.407063 0.436837,0.37375 5.063983,-0.385125 8.055414,1.922375 8.084661,1.945938 0.07555,0.05687 0.164115,0.08612 0.251859,0.08612 z M 23.631071,22.06636 c 0.03981,0 0.08124,-0.0057 0.121055,-0.01788 3.891623,-1.216312 7.098351,-0.281937 7.13085,-0.273 0.215298,0.06581 0.441158,-0.05688 0.506154,-0.272187 0.06418,-0.215313 -0.05769,-0.441188 -0.27217,-0.505375 -0.140553,-0.04225 -3.482149,-1.013188 -7.606131,0.274625 -0.214486,0.06744 -0.333915,0.294937 -0.266483,0.509437 0.05363,0.173063 0.213674,0.284375 0.386725,0.284375 z" /> <path d="m 18,22.730603 c -0.22425,0 -0.396728,0.182001 -0.396728,0.40625 v 1.928101 c -0.658125,0.09344 -1.093956,0.357615 -1.475831,0.604615 -0.461499,0.298186 -0.861238,0.555419 -1.693237,0.555419 -0.391624,0 -0.816271,-0.08413 -1.26477,-0.252319 -0.209625,-0.07719 -0.445682,0.02919 -0.523682,0.239624 -0.07881,0.210437 0.02841,0.444869 0.238037,0.523682 0.539499,0.200687 1.062103,0.301513 1.550415,0.301513 1.071687,0 1.636338,-0.363797 2.134399,-0.685547 0.42575,-0.275437 0.726148,-0.512497 1.431397,-0.515747 0.705249,0.0033 1.005647,0.24031 1.431397,0.515747 0.498061,0.32175 1.062712,0.685547 2.134399,0.685547 0.488312,0 1.010916,-0.100826 1.550415,-0.301513 0.209625,-0.07881 0.31685,-0.313245 0.238037,-0.523682 -0.078,-0.210437 -0.314057,-0.316811 -0.523682,-0.239624 -0.448499,0.168187 -0.873146,0.252319 -1.26477,0.252319 -0.831999,0 -1.231738,-0.257233 -1.693237,-0.555419 -0.381875,-0.247 -0.817707,-0.511177 -1.475831,-0.604615 v -1.928101 c 0,-0.224249 -0.172478,-0.40625 -0.396728,-0.40625 z" fill="#67757f" /> <path fill="#e75a70" d="m 19.1375,21.263 h -2.275 c -0.52,0 -0.944938,0.424937 -0.944938,0.944938 0,0.519187 0.424938,0.944937 0.944938,0.944937 h 0.192562 v 0.280313 c 0,0.519187 0.424938,0.944937 0.944938,0.944937 0.52,0 0.944937,-0.424937 0.944937,-0.944937 V 23.152875 H 19.1375 c 0.519187,0 0.944937,-0.424937 0.944937,-0.944937 0,-0.520001 -0.42575,-0.944938 -0.944937,-0.944938 z" /> </svg>