<svg xmlns="http://www.w3.org/2000/svg" viewBox="0 0 36 36"><path fill="#ffcc4d" d="M 4.6835938,0.41992188 C 4.5571359,0.41200624 4.4433828,0.41265486 4.34375,0.421875 4.1160179,0.4429496 3.96379,0.50853787 3.9042969,0.62695312 2.6762872,3.0703459 5.0153245,8.9931104 5.6523438,10.509766 c -0.00214,0.003 -0.00371,0.0048 -0.00586,0.0078 -0.7723149,1.482639 -1.0626027,3.740354 -1.3398438,6.164063 -0.3047931,2.657037 0.3138489,4.770723 0.5683594,5.24414 0.5108096,0.950162 0.5595224,1.110078 0.6738281,1.712891 0.1038239,0.547533 0,1.671875 0,1.671875 0,0.96533 -0.7690445,1.79601 -1.734375,1.777344 -1.0548475,-0.02164 -1.8969139,0.874414 -1.8085937,1.925781 0.076444,0.94133 0.9370375,1.630859 1.8828125,1.630859 h 7.1464837 c 0.929621,-0.0027 1.393858,1.122146 0.734375,1.777344 l -2.6933587,0.673828 c -1.1488005,0.288192 -1.1488005,1.920793 0,2.208985 1.7173277,0.42933 3.4802287,0.654988 5.2499997,0.671874 L 16.736328,36 c 1.249774,0.01244 2.492256,-0.277295 3.582031,-0.890625 1.522622,-0.856519 3.298627,-1.143142 5.013672,-0.810547 2.691549,0.522666 5.48288,0.0298 7.833985,-1.380859 0.681554,-0.409769 0.988842,-1.236155 0.742187,-1.992188 -0.230222,-0.719997 -0.95059,-1.169922 -1.707031,-1.169922 H 30.4375 c -1.185182,0 -1.185182,-1.777343 0,-1.777343 h 1.332031 c 1.777771,-0.02371 1.742627,-2.691673 -0.03516,-2.667969 -0.711108,0.01867 -1.296875,-0.552564 -1.296875,-1.263672 v -0.0039 c 0,-0.260445 0.105498,-0.496554 0.15625,-0.751953 0.122048,-0.614192 0.182012,-0.672071 0.53125,-1.365235 0.241846,-0.480011 0.872292,-2.587103 0.568359,-5.24414 -0.421038,-2.136954 -0.488163,-4.480878 -1.40625,-6.238282 0.666179,-1.5941967 2.937323,-7.3995613 1.722657,-9.81640588 -0.475492,-0.94641622 -6.948704,1.39044278 -9.435547,4.23828128 -0.0097,0.00373 -0.02169,0.00379 -0.03125,0.00781 0,0 -2.226885,-0.7402344 -4.542969,-0.7402344 -2.316084,0 -4.543,0.7402344 -4.543,0.7402344 C 11.128872,2.8957746 7.8472324,0.71825012 4.6835938,0.41992188 Z"/><path fill="#f18f26" d="m 4.533099,1.0223322 c 0.1722,-0.51573901 4.604628,1.870953 5.611998,4.652844 0,0 -3.278688,2.2592637 -3.898608,3.9812637 0,0 -2.57439,-6.0511077 -1.71339,-8.6341077 z"/><path fill="#ffcc4d" d="m 7.65078,4.7160222 c 0,-1.217454 4.698477,2.3531127 3.837477,3.2141127 -0.861,0.861 -1.080555,0.61992 -1.941555,1.48092 C 8.685702,10.272055 7.65078,5.5770222 7.65078,4.7160222 Z"/><path fill="#f18f26" d="m 31.661939,1.4472032 c -0.147714,-0.52327815 -4.68765,1.6519684 -5.824947,4.3833175 0,0 3.168622,2.411203 3.706737,4.1604936 0,0 2.856578,-5.9231199 2.11821,-8.5438111 z"/><path fill="#ffcc4d" d="m 28.373722,4.9899299 c 0.05735,-1.2161025 -4.804107,2.1291719 -3.984622,3.0297747 0.819486,0.9006028 1.050153,0.6701329 1.869639,1.5707358 0.819485,0.9006036 2.074425,-3.7404663 2.114983,-4.6005105 z"/><path fill="#292f33" d="m 24.887139,17.611583 c 0,0.951405 -0.771456,1.721139 -1.722,1.721139 -0.951405,0 -1.722,-0.769734 -1.722,-1.721139 0,-0.950544 0.770595,-1.721139 1.722,-1.721139 0.951405,0 1.722,0.771456 1.722,1.721139 z"/><path fill="#292f33" d="m 14.556861,16.030917 c 0,0.951405 -0.771456,1.721139 -1.722,1.721139 -0.950544,0 -1.722,-0.769734 -1.722,-1.721139 0,-0.950544 0.771456,-1.721139 1.722,-1.721139 0.950544,0 1.722,0.771456 1.722,1.721139 z"/><path fill="#fee7b8" d="m 28.271484,21.252901 c -1.270547,0.01668 -2.792728,0.191369 -4.43164,0.703125 -0.227304,0.07146 -0.352713,0.313712 -0.28125,0.541016 0.05683,0.183393 0.22481,0.300781 0.408203,0.300781 0.04219,0 0.08672,-0.0066 0.128906,-0.01953 4.124186,-1.288916 7.522201,-0.298534 7.556641,-0.289063 0.228165,0.06974 0.468229,-0.0609 0.537109,-0.289062 0.06802,-0.228165 -0.06176,-0.467137 -0.289062,-0.535156 -0.0931,-0.02798 -1.511328,-0.439915 -3.628907,-0.41211 z m -4.527343,2.5 c -0.337842,0.0055 -0.6863,0.02111 -1.042969,0.04883 -0.236775,0.01808 -0.412612,0.224163 -0.394531,0.460938 0.01894,0.236775 0.219857,0.431785 0.460937,0.396484 5.366608,-0.408113 8.537364,2.037531 8.56836,2.0625 0.08007,0.06027 0.17459,0.0918 0.267578,0.0918 0.127427,0 0.252651,-0.05643 0.33789,-0.164062 0.147231,-0.186837 0.114568,-0.458238 -0.07227,-0.605469 -0.130765,-0.102513 -3.057375,-2.372863 -8.125,-2.291016 z"/><path fill="#fee7b8" d="m 7.4160156,19.475153 c -1.943775,0.01345 -3.2279655,0.385527 -3.3164062,0.41211 -0.2273038,0.06802 -0.3570815,0.306991 -0.2890625,0.535156 0.06888,0.228165 0.3089446,0.358803 0.5371093,0.289062 0.03444,-0.0095 3.4324548,-0.999855 7.5566408,0.289063 0.04219,0.01294 0.08672,0.01953 0.128906,0.01953 0.183393,0 0.351373,-0.117388 0.408203,-0.300781 0.07146,-0.227304 -0.05395,-0.469556 -0.28125,-0.541016 -1.775488,-0.554402 -3.414189,-0.712325 -4.7441404,-0.703125 z m 4.3398434,2.5 c -4.76009,0.06767 -7.4985942,2.19192 -7.6249996,2.291016 -0.1868368,0.147231 -0.2194965,0.418632 -0.072266,0.605469 0.085239,0.10763 0.2104627,0.164062 0.3378906,0.164062 0.092988,0 0.1875052,-0.03153 0.2675781,-0.0918 0.030996,-0.02497 3.2017517,-2.470613 8.5683595,-2.0625 0.24108,0.0353 0.442857,-0.159709 0.460937,-0.396484 0.01808,-0.236775 -0.157756,-0.442858 -0.394531,-0.460938 -0.535003,-0.04157 -1.050545,-0.05583 -1.542969,-0.04883 z"/><path fill="#67757f" d="m 23.690431,25.335276 c -0.07296,-0.225825 -0.314358,-0.352711 -0.541085,-0.278932 -0.483099,0.154781 -0.938021,0.223833 -1.353422,0.204243 -0.990771,-0.04672 -1.330118,-0.326486 -1.721742,-0.649225 -0.374171,-0.308987 -0.793203,-0.653706 -1.678919,-0.771327 l 0.09487,-2.011643 c 0.0112,-0.237373 -0.17237,-0.439108 -0.409742,-0.450302 -0.237372,-0.01119 -0.439108,0.172371 -0.450302,0.409743 l -0.09624,2.040885 c -0.701301,0.06606 -1.175425,0.322967 -1.591976,0.565358 -0.50339,0.292599 -0.938569,0.546179 -1.819254,0.504647 -0.414542,-0.01955 -0.860987,-0.130243 -1.327336,-0.330664 -0.218038,-0.09216 -0.471863,0.0079 -0.564932,0.226773 -0.09393,0.218817 0.0079,0.471864 0.225873,0.565752 0.561051,0.239362 1.108089,0.373767 1.624976,0.398142 1.134398,0.0535 1.75034,-0.304474 2.293608,-0.620189 0.464413,-0.270303 0.868436,-0.502941 1.615116,-0.471176 0.852839,0.04713 1.156665,0.294171 1.535794,0.607701 0.446358,0.368419 0.95163,0.785299 2.229656,0.845569 0.516887,0.02438 1.075005,-0.05791 1.656093,-0.24341 0.226686,-0.07292 0.351892,-0.315259 0.278973,-0.541945 z"/><path fill="#e75a70" d="m 19.348278,19.880326 -2.408124,-0.113564 c -0.550428,-0.02596 -1.021444,0.402633 -1.047401,0.953062 -0.02592,0.549568 0.402633,1.021443 0.953061,1.047401 l 0.203831,0.0096 -0.01399,0.296715 c -0.02592,0.549569 0.402634,1.021444 0.953062,1.047402 0.550428,0.02596 1.021443,-0.402634 1.047401,-0.953062 l 0.01399,-0.296715 0.20383,0.0096 c 0.549568,0.02592 1.021444,-0.402633 1.047401,-0.953062 0.02596,-0.550428 -0.403493,-1.021484 -0.953061,-1.047401 z"/></svg>
