<svg
 viewBox="0 0 36 36"
 xmlns="http://www.w3.org/2000/svg">
 <path
 fill="#be1931"
 d="m 18,6.456 c -16.8,0 -18,6 -18,6 0,4.8 8.4,8.4 8.4,13.2 2.4,3.6 9.6,4.8 9.6,4.8 0,0 7.2,-1.2 9.6,-4.8 0,-4.8 8.4,-8.4 8.4,-13.2 0,0 -4.4004,-6 -18,-6 z" />
 <path
 fill="#ffcc4d"
 d="m 28.760907,14.705454 c 0,0 2.583728,-6.6089432 1.238239,-8.9984222 -0.452996,-0.804743 -5.999948,1.498487 -8.04218,4.081465 0,0 -1.939483,-0.644995 -3.956966,-0.644995 -2.017483,0 -3.956966,0.644995 -3.956966,0.644995 -2.042232,-2.582978 -7.5891841,-4.886208 -8.0421802,-4.081465 -1.3454883,2.389479 1.2382393,8.9984222 1.2382393,8.9984222 -0.6727442,1.291489 -0.924742,3.258722 -1.1662399,5.369954 -0.2654977,2.31448 0.2624977,4.159464 0.4934957,4.56671 0.2624977,0.462746 1.5922362,1.953733 3.3629709,3.229472 C 12.619547,29.808824 16.654512,30.456 18,30.456 c 1.345488,0 5.380453,-0.646426 8.07068,-2.58441 1.770735,-1.275739 3.100473,-2.766726 3.362971,-3.229472 0.230998,-0.407246 0.758243,-2.25223 0.493496,-4.56671 -0.242998,-2.110482 -0.493496,-4.078465 -1.16624,-5.369954 z" />
 <path
 fill="#f18f26"
 d="m 6.2693515,6.4345258 c 0.1499987,-0.449247 4.0109655,1.629735 4.8884575,4.0529652 0,0 -2.8559751,1.967983 -3.3959704,3.46797 0,0 -2.2424806,-5.2709552 -1.4924871,-7.5209352 z" />
 <path
 fill="#ffcc4d"
 d="m 8.985078,9.6519978 c 0,-1.060491 4.092715,2.0497322 3.342721,2.7997262 -0.749993,0.749993 -0.941242,0.539995 -1.691235,1.289989 C 9.8865702,14.491706 8.985078,10.401991 8.985078,9.6519978 Z" />
 <path
 fill="#f18f26"
 d="m 29.730648,6.4345258 c -0.149998,-0.449247 -4.010965,1.629735 -4.888457,4.0529652 0,0 2.855975,1.967983 3.39597,3.46797 0,0 2.242481,-5.2709552 1.492487,-7.5209352 z" />
 <path
 fill="#ffcc4d"
 d="m 27.014922,9.6519978 c 0,-1.060491 -4.092715,2.0497322 -3.342721,2.7997262 0.749993,0.749993 0.941242,0.539995 1.691235,1.289989 0.749994,0.749993 1.651486,-3.339722 1.651486,-4.0897152 z" />
 <path
 fill="#dd2e44"
 d="m 23.999948,19.206165 c 0,0.829158 -0.671994,1.499987 -1.499987,1.499987 -0.828743,0 -1.499987,-0.670829 -1.499987,-1.499987 0,-0.828407 0.671244,-1.499987 1.499987,-1.499987 0.828743,0 1.499987,0.67233 1.499987,1.499987 z"
 />
 <path
 fill="#dd2e44"
 d="m 15.000026,19.206165 c 0,0.829158 -0.671994,1.499987 -1.499987,1.499987 -0.827993,0 -1.499987,-0.670829 -1.499987,-1.499987 0,-0.828407 0.671994,-1.499987 1.499987,-1.499987 0.827993,0 1.499987,0.67233 1.499987,1.499987 z" />
 <path
 fill="#fee7b8"
 d="m 6.1516225,27.050161 c -0.1109918,0 -0.2204837,-0.04875 -0.2947283,-0.142499 -0.1282406,-0.162749 -0.1004926,-0.398247 0.062246,-0.526496 0.1214911,-0.09525 3.014778,-2.339979 7.9854118,-1.953733 0.206234,0.01575 0.361229,0.195935 0.34548,0.402184 -0.01575,0.206248 -0.193242,0.37556 -0.403226,0.34481 -4.6744053,-0.355497 -7.435702,1.774485 -7.4627,1.796234 -0.069745,0.0525 -0.1514888,0.0795 -0.2324835,0.0795 z m 6.6505095,-3.49722 c -0.03675,0 -0.07499,-0.0053 -0.111741,-0.0165 -3.5922354,-1.12274 -6.5522674,-0.260248 -6.5822652,-0.251998 -0.1987354,0.06075 -0.4072201,-0.0525 -0.4672157,-0.251248 -0.059246,-0.198748 0.053246,-0.407246 0.2512316,-0.466496 0.1297404,-0.039 3.2142633,-0.935241 7.0209833,0.253498 0.197985,0.06225 0.308227,0.272248 0.245981,0.470246 -0.0495,0.159749 -0.197235,0.262498 -0.356974,0.262498 z m 17.046245,3.49722 c 0.110992,0 0.220484,-0.04875 0.294729,-0.142499 0.128241,-0.162749 0.100492,-0.398247 -0.06224,-0.526496 -0.121491,-0.09525 -3.014778,-2.339979 -7.985412,-1.953733 -0.206235,0.01575 -0.361234,0.195749 -0.345484,0.401997 0.0165,0.206248 0.193245,0.375747 0.40323,0.344997 4.674406,-0.355497 7.435702,1.774485 7.4627,1.796234 0.06974,0.0525 0.151489,0.0795 0.232483,0.0795 z m -6.65051,-3.49722 c 0.03675,0 0.07499,-0.0053 0.111742,-0.0165 3.592236,-1.12274 6.552267,-0.260248 6.582266,-0.251998 0.198734,0.06075 0.407219,-0.0525 0.467215,-0.251248 0.05924,-0.198748 -0.05325,-0.407246 -0.251232,-0.466496 -0.12974,-0.039 -3.214263,-0.935241 -7.020983,0.253498 -0.197985,0.06225 -0.308227,0.272248 -0.245982,0.470246 0.0495,0.159749 0.197236,0.262498 0.356974,0.262498 z" />
 <path
 fill="#f5f8fa"
 d="M 20.860102,27.581632 20.101941,29.133914 19.301,27.338171 c 0.144527,-0.240782 1.317285,-0.0026 1.559102,0.243461 z m -5.719995,0 0.758161,1.552282 0.800941,-1.795743 c -0.144527,-0.240782 -1.317285,-0.0026 -1.559102,0.243461 z" />
 <path
 fill="#67757f"
 d="m 18,24.166083 c -0.206998,0 -0.366208,0.167999 -0.366208,0.374997 v 1.77977 c -0.607494,0.08625 -1.009796,0.330103 -1.362293,0.558101 -0.425996,0.275247 -0.794982,0.51269 -1.562975,0.51269 -0.361496,0 -0.753474,-0.07766 -1.167469,-0.232908 -0.193499,-0.07125 -0.411396,0.02694 -0.483395,0.22119 -0.07275,0.194248 0.02623,0.410645 0.219725,0.483394 0.497995,0.185249 0.980394,0.278317 1.431139,0.278317 0.989241,0 1.510453,-0.335809 1.970198,-0.632807 C 17.071719,27.25458 17.349006,27.035758 18,27.032758 c 0.650994,0.003 0.928281,0.221822 1.321278,0.476069 0.459745,0.296998 0.980957,0.632807 1.970197,0.632807 0.450746,0 0.933145,-0.09307 1.43114,-0.278317 0.193499,-0.07275 0.292475,-0.289146 0.219725,-0.483394 -0.072,-0.194248 -0.289896,-0.292439 -0.483395,-0.22119 -0.413995,0.155248 -0.805973,0.232908 -1.16747,0.232908 -0.767992,0 -1.136978,-0.237443 -1.562974,-0.51269 -0.352497,-0.227998 -0.754799,-0.471852 -1.362293,-0.558101 v -1.77977 c 0,-0.206998 -0.15921,-0.374997 -0.366208,-0.374997 z" />
 <path
 fill="#e75a70"
 d="m 19.049991,22.811384 h -2.099982 c -0.479996,0 -0.872242,0.392247 -0.872242,0.872243 0,0.479245 0.392246,0.872242 0.872242,0.872242 h 0.177749 v 0.258748 c 0,0.479246 0.392246,0.872242 0.872242,0.872242 0.479996,0 0.872242,-0.392246 0.872242,-0.872242 v -0.258748 h 0.177749 c 0.479246,0 0.872242,-0.392247 0.872242,-0.872242 0,-0.479996 -0.392996,-0.872243 -0.872242,-0.872243 z" />
</svg>
