<svg xmlns="http://www.w3.org/2000/svg" viewBox="0 0 36 36"><path fill="#ffcc4d" d="m 29.66308,11.37978 c 0,0 2.800363,-7.163066 1.34206,-9.7528906 -0.490978,-0.87221658 -6.503017,1.6241273 -8.716481,4.4236742 0,0 -2.1021,-0.6990741 -4.28874,-0.6990741 -2.186639,0 -4.288739,0.6990741 -4.288739,0.6990741 C 11.497715,3.2510167 5.4856769,0.75467282 4.9946993,1.6268894 c -1.4583016,2.5898246 1.34206,9.7528906 1.34206,9.7528906 -0.7291509,1.399775 -1.0022775,3.531949 -1.2640239,5.820197 -0.2877584,2.508537 0.284507,4.508213 0.534873,4.949607 0.2845072,0.501542 1.7257382,2.117541 3.644941,3.500244 2.9157896,2.099661 7.2890686,2.80036 8.7473696,2.80036 1.458302,0 5.83158,-0.699887 8.74737,-2.80036 1.919203,-1.382703 3.360436,-2.998702 3.644942,-3.500244 0.250367,-0.441394 0.822632,-2.44107 0.535686,-4.949607 -0.263373,-2.287434 -0.535686,-4.420422 -1.264837,-5.820197 z"/><path fill="#f18f26" d="m 5.2857092,2.4153796 c 0.1625754,-0.486913 4.3472671,1.7663806 5.2983328,4.392784 0,0 -3.095436,2.1329895 -3.6807074,3.7587424 0,0 -2.4305024,-5.7128969 -1.6176254,-8.1515264 z"/><path fill="#ffcc4d" d="m 8.2291372,5.9026199 c 0,-1.1494074 4.4358698,2.2215923 3.6229928,3.0344681 -0.812877,0.8128769 -1.02016,0.5852701 -1.833038,1.398149 C 9.2062155,11.148112 8.2291372,6.7154968 8.2291372,5.9026199 Z"/><path fill="#f18f26" d="m 30.71413,2.4153796 c -0.162575,-0.486913 -4.347265,1.7663806 -5.298334,4.392784 0,0 3.095439,2.1329895 3.68071,3.7587424 0,0 2.430501,-5.7128969 1.617624,-8.1515264 z"/><path fill="#ffcc4d" d="m 27.770703,5.9026199 c 0,-1.1494074 -4.43587,2.2215923 -3.622994,3.0344681 0.812878,0.8128769 1.02016,0.5852701 1.833037,1.398149 0.812879,0.812875 1.789957,-3.6197402 1.789957,-4.4326171 z"/><path fill="#292f33" d="m 24.502936,16.257853 c 0,0.898678 -0.728336,1.625753 -1.625753,1.625753 -0.89823,0 -1.625755,-0.727075 -1.625755,-1.625753 0,-0.897865 0.727525,-1.625753 1.625755,-1.625753 0.898228,0 1.625753,0.728701 1.625753,1.625753 z"/><path fill="#292f33" d="m 14.748411,16.257853 c 0,0.898678 -0.728338,1.625753 -1.625755,1.625753 -0.897417,0 -1.625752,-0.727075 -1.625752,-1.625753 0,-0.897865 0.728335,-1.625753 1.625752,-1.625753 0.897417,0 1.625755,0.728701 1.625755,1.625753 z"/><path fill="#fee7b8" d="m 5.1581093,24.759527 c -0.120298,0 -0.2389705,-0.05284 -0.31944,-0.154447 -0.138993,-0.176393 -0.1089185,-0.431638 0.067465,-0.57064 0.1316775,-0.103237 3.2675534,-2.536174 8.6549537,-2.117543 0.223525,0.01707 0.391516,0.212363 0.374448,0.435905 -0.01707,0.223541 -0.209446,0.407047 -0.437036,0.37372 -5.0663341,-0.385303 -8.0591531,1.923265 -8.0884148,1.946838 -0.075593,0.05691 -0.1641904,0.08617 -0.2519757,0.08617 z m 7.2081257,-3.790443 c -0.03984,0 -0.08128,-0.0057 -0.12111,-0.01789 -3.8934293,-1.216876 -7.1016465,-0.282067 -7.1341595,-0.273126 -0.2153984,0.06585 -0.4413638,-0.0569 -0.5063897,-0.272313 -0.064213,-0.215412 0.057711,-0.441392 0.2722964,-0.50561 0.1406185,-0.04227 3.4837647,-1.013657 7.6096618,0.274752 0.214583,0.06747 0.33407,0.295075 0.266605,0.509675 -0.05364,0.173141 -0.213774,0.284506 -0.386904,0.284505 z m 18.475495,3.790443 c 0.1203,0 0.238971,-0.05284 0.31944,-0.154447 0.138994,-0.176393 0.10892,-0.431638 -0.06746,-0.57064 -0.131676,-0.103237 -3.267553,-2.536174 -8.654952,-2.117543 -0.223526,0.01707 -0.391522,0.212163 -0.374451,0.435702 0.01789,0.223542 0.209448,0.40725 0.437037,0.373923 5.066335,-0.385303 8.059153,1.923265 8.088416,1.946838 0.07559,0.05691 0.164191,0.08617 0.251975,0.08617 z m -7.208125,-3.790443 c 0.03983,0 0.08128,-0.0057 0.12111,-0.01789 3.893431,-1.216876 7.101645,-0.282067 7.13416,-0.273126 0.215397,0.06585 0.441361,-0.0569 0.506389,-0.272313 0.06421,-0.215412 -0.05771,-0.441392 -0.272296,-0.50561 -0.140618,-0.04227 -3.483765,-1.013657 -7.609662,0.274752 -0.214586,0.06747 -0.334069,0.295075 -0.266605,0.509675 0.05364,0.173141 0.213771,0.284506 0.386904,0.284505 z"/><path fill="#67757f" d="m 23.475461,25.116582 c -0.07885,-0.209722 -0.312147,-0.318649 -0.522682,-0.238987 -0.448708,0.167454 -0.874655,0.252804 -1.267275,0.252804 -0.936434,0 -1.2689,-0.248739 -1.652578,-0.535683 -0.366608,-0.274753 -0.777111,-0.581207 -1.617627,-0.652741 v -1.901319 c 0,-0.224354 -0.182083,-0.406437 -0.406437,-0.406437 -0.224354,0 -0.406438,0.182083 -0.406438,0.406437 v 1.928957 c -0.658432,0.09348 -1.094135,0.356853 -1.476186,0.603968 -0.461715,0.298324 -0.860838,0.556818 -1.693223,0.556818 -0.391808,0 -0.817754,-0.08453 -1.266462,-0.252804 -0.209723,-0.07722 -0.444645,0.02844 -0.522679,0.238987 -0.07884,0.210535 0.02844,0.444644 0.238171,0.523492 0.539751,0.200782 1.061617,0.303202 1.550157,0.303202 1.072184,0 1.637134,-0.36498 2.135428,-0.68688 0.425947,-0.275566 0.796621,-0.512925 1.502198,-0.516176 0.806374,0.0065 1.103887,0.225979 1.475372,0.504795 0.437328,0.32759 0.93237,0.698261 2.140304,0.698261 0.48854,0 1.011219,-0.10242 1.550969,-0.303202 0.210537,-0.07884 0.317836,-0.312957 0.238988,-0.523492 z"/><path fill="#e75a70" d="m 19.137949,20.165351 h -2.276058 c -0.520241,0 -0.945375,0.425134 -0.945375,0.945374 0,0.519429 0.425134,0.945376 0.945375,0.945376 h 0.192652 v 0.280443 c 0,0.519429 0.425137,0.945376 0.945376,0.945376 0.520241,0 0.945377,-0.425135 0.945377,-0.945376 v -0.280443 h 0.192653 c 0.519426,0 0.945375,-0.425134 0.945375,-0.945376 0,-0.52024 -0.425949,-0.945374 -0.945375,-0.945374 z"/><path fill="#292f33" d="m 17.664406,31.993814 c -5.268929,0.08945 -7.7249834,1.677818 -8.6649188,2.914833 v 0.117564 c 0,2.530845 6.2092568,-0.506261 8.2342518,-2.531386 0.1755,-0.175512 0.311415,-0.340682 0.430667,-0.501006 z m 0.670163,0 c 0.119246,0.160324 0.255166,0.325494 0.430665,0.501007 2.024997,2.025125 8.234253,5.06223 8.234253,2.531386 v -0.117564 c -0.939935,-1.237017 -3.39599,-2.825389 -8.664918,-2.914833 z"/><path fill="#31373d" d="m 10.595801,25.873 c -0.9414403,0.0014 -1.5963138,0.420228 -1.5963138,1.559044 v 7.476603 c 0.9399343,-1.237014 3.3959958,-2.825389 8.6649188,-2.914833 l 0.335081,0.0012 0.335082,-0.0011 c 5.268924,0.08942 7.724984,1.677787 8.664918,2.914802 v -7.476604 c 0,-1.138816 -0.654873,-1.557613 -1.596314,-1.559043 -2.405899,-0.0037 -6.682983,2.714647 -6.682983,3.078536 0,0.12017 -0.370012,0.174699 -0.720703,0.168098 -0.350691,0.0066 -0.720703,-0.04792 -0.720703,-0.168098 0,-0.363889 -4.277083,-3.082192 -6.682983,-3.078536 z"/><path fill="#394146" d="m 19.897924,31.558788 c 0,0.838734 -0.679641,1.518833 -1.518328,1.518833 h -0.760218 c -0.838688,0 -1.518328,-0.680099 -1.518328,-1.518833 v -1.603212 c 0,-0.838732 0.67964,-1.518832 1.518328,-1.518832 h 0.760218 c 0.838687,0 1.518328,0.6801 1.518328,1.518832 z"/></svg>
