<svg xmlns="http://www.w3.org/2000/svg" version="1.1" viewBox="0 0 36 36"><path fill="#ffcc4d" d="m 32.348,13.999 c 0,0 3.445,-8.812 1.651,-11.998 -0.604,-1.073 -8,1.998 -10.723,5.442 0,0 -2.586,-0.86 -5.276,-0.86 -2.69,0 -5.276,0.86 -5.276,0.86 C 10.001,3.999 2.605,0.928 2.001,2.001 0.207,5.187 3.652,13.999 3.652,13.999 c -0.897,1.722 -1.233,4.345 -1.555,7.16 -0.354,3.086 0.35,5.546 0.658,6.089 0.35,0.617 2.123,2.605 4.484,4.306 3.587,2.583 8.967,3.445 10.761,3.445 1.794,0 7.174,-0.861 10.761,-3.445 2.361,-1.701 4.134,-3.689 4.484,-4.306 0.308,-0.543 1.012,-3.003 0.659,-6.089 -0.324,-2.814 -0.659,-5.438 -1.556,-7.16 z"/><path fill="#f18f26" d="m 2.359,2.971 c 0.2,-0.599 5.348,2.173 6.518,5.404 0,0 -3.808,2.624 -4.528,4.624 0,0 -2.99,-7.028 -1.99,-10.028 z"/><path fill="#ffcc4d" d="m 5.98,7.261 c 0,-1.414 5.457,2.733 4.457,3.733 -1,1 -1.255,0.72 -2.255,1.72 -1,1 -2.202,-4.453 -2.202,-5.453 z"/><path fill="#f18f26" d="m 33.641,2.971 c -0.2,-0.599 -5.348,2.173 -6.518,5.404 0,0 3.808,2.624 4.528,4.624 0,0 2.99,-7.028 1.99,-10.028 z"/><path fill="#ffcc4d" d="m 30.02,7.261 c 0,-1.414 -5.457,2.733 -4.457,3.733 1,1 1.255,0.72 2.255,1.72 1,1 2.202,-4.453 2.202,-5.453 z"/><path fill="#fee7b8" d="m 2.201,29.557751 c -0.148,0 -0.294,-0.065 -0.393,-0.19 -0.171,-0.217 -0.134,-0.531 0.083,-0.702 0.162,-0.127 4.02,-3.12 10.648,-2.605 0.275,0.021 0.481,0.261 0.46,0.536 -0.021,0.275 -0.257,0.501 -0.537,0.46 -6.233,-0.474 -9.915,2.366 -9.951,2.395 -0.093,0.07 -0.202,0.106 -0.31,0.106 z m 8.868,-4.663 c -0.049,0 -0.1,-0.007 -0.149,-0.022 -4.79,-1.497 -8.737,-0.347 -8.777,-0.336 -0.265,0.081 -0.543,-0.07 -0.623,-0.335 -0.079,-0.265 0.071,-0.543 0.335,-0.622 0.173,-0.052 4.286,-1.247 9.362,0.338 0.264,0.083 0.411,0.363 0.328,0.627 -0.066,0.213 -0.263,0.35 -0.476,0.35 z m 22.73,4.663 c 0.148,0 0.294,-0.065 0.393,-0.19 0.171,-0.217 0.134,-0.531 -0.083,-0.702 -0.162,-0.127 -4.02,-3.12 -10.648,-2.605 -0.275,0.021 -0.481,0.261 -0.46,0.536 0.022,0.275 0.257,0.501 0.537,0.46 6.233,-0.474 9.915,2.366 9.951,2.395 0.093,0.07 0.202,0.106 0.31,0.106 z m -8.868,-4.663 c 0.049,0 0.1,-0.007 0.149,-0.022 4.79,-1.497 8.737,-0.347 8.777,-0.336 0.265,0.081 0.543,-0.07 0.623,-0.335 0.079,-0.265 -0.071,-0.543 -0.335,-0.622 -0.173,-0.052 -4.286,-1.247 -9.362,0.338 -0.264,0.083 -0.411,0.363 -0.328,0.627 0.066,0.213 0.263,0.35 0.476,0.35 z"/><path fill="#67757f" d="m 24.736,29.997751 c -0.097,-0.258 -0.384,-0.392 -0.643,-0.294 -0.552,0.206 -1.076,0.311 -1.559,0.311 -1.152,0 -1.561,-0.306 -2.033,-0.659 -0.451,-0.338 -0.956,-0.715 -1.99,-0.803 v -2.339 c 0,-0.276 -0.224,-0.5 -0.5,-0.5 -0.276,0 -0.5,0.224 -0.5,0.5 v 2.373 c -0.81,0.115 -1.346,0.439 -1.816,0.743 -0.568,0.367 -1.059,0.685 -2.083,0.685 -0.482,0 -1.006,-0.104 -1.558,-0.311 -0.258,-0.095 -0.547,0.035 -0.643,0.294 -0.097,0.259 0.035,0.547 0.293,0.644 0.664,0.247 1.306,0.373 1.907,0.373 1.319,0 2.014,-0.449 2.627,-0.845 0.524,-0.339 0.98,-0.631 1.848,-0.635 0.992,0.008 1.358,0.278 1.815,0.621 0.538,0.403 1.147,0.859 2.633,0.859 0.601,0 1.244,-0.126 1.908,-0.373 0.259,-0.097 0.391,-0.385 0.294,-0.644 z"/><path fill="#e75a70" d="m 19.4,23.906751 h -2.8 c -0.64,0 -1.163,0.523 -1.163,1.163 0,0.639 0.523,1.163 1.163,1.163 h 0.237 v 0.345 c 0,0.639 0.523,1.163 1.163,1.163 0.64,0 1.163,-0.523 1.163,-1.163 v -0.345 H 19.4 c 0.639,0 1.163,-0.523 1.163,-1.163 0,-0.64 -0.524,-1.163 -1.163,-1.163 z"/><path fill="#292f33" d="M 13.438347,11.800035 A 0.78888085,0.78888085 0 1 0 12.322701,10.68439 c -1.294749,1.294748 -2.5390022,1.345244 -2.6060672,1.346822 a 0.78900989,0.78900989 0 0 0 0.0079,1.578 c 0.07811,0 1.9251602,-0.02051 3.7138232,-1.809177 z"/><path fill="#292f33" d="m 27.059743,12.828891 a 0.792945,0.792945 0 0 0 -0.775587,-0.797679 c -0.05286,-7.89e-4 -1.304217,-0.04418 -2.606856,-1.346822 a 0.78888085,0.78888085 0 1 0 -1.115646,1.115645 c 1.788663,1.788663 3.635712,1.809177 3.713823,1.809177 a 0.785055,0.785055 0 0 0 0.784266,-0.780321 z"/><circle cx="24" cy="18.761383" r="3.9449999" fill="#292f33"/><ellipse cx="4.0585418" cy="28.331039" fill="#ffffff" rx="1.7610481" ry="1.3704929" transform="rotate(-45.028)"/><ellipse cx="3.7781262" cy="31.322403" fill="#ffffff" rx="0.88052404" ry="0.68564099" transform="rotate(-45.028)"/><circle cx="12" cy="18.761383" r="3.9449999" fill="#292f33"/><ellipse cx="-4.702682" cy="22.834091" fill="#ffffff" rx="0.88052404" ry="0.68564099" transform="rotate(-45.028)"/><ellipse cx="-4.4222665" cy="19.842728" fill="#ffffff" rx="1.7610481" ry="1.3704929" transform="rotate(-45.028)"/></svg>
