<svg xmlns="http://www.w3.org/2000/svg" viewBox="0 0 36 36"><path fill="#f18f26" d="m 32.690328,23.603878 c 0,-0.899894 1.370538,-5.590141 2.741976,-6.96068 1.369639,-1.370538 0,-2.849064 -1.370538,-2.849064 -3.064139,0 -8.224131,6.210168 -8.224131,9.809744 0,4.49947 5.159092,9.380495 8.224131,9.380495 1.370538,0 2.741077,-1.263452 1.370538,-2.63489 -1.370538,-1.369639 -2.741976,-4.945817 -2.741976,-6.745605 z"/><path fill="#f18f26" d="m 11.873981,14.950498 c 0,-2.741077 1.347141,-5.4830541 2.717679,-5.4830541 4.111616,0 11.988388,4.3401881 13.358926,11.1937811 1.371439,6.853592 -16.076605,-5.710727 -16.076605,-5.710727 z m 4.368085,16.448261 c 1.370538,1.370539 4.112515,2.741977 6.854492,2.741977 2.741077,0 -2.79957,-3.769655 -1.370538,-5.482154 1.961768,-2.355022 -5.483954,2.740177 -5.483954,2.740177 z"/><path fill="#ffcc4e" d="m 17.277296,5.9452168 c -1.097869,0 -2.528415,3.6483205 -3.478302,7.3098812 -1.181858,-2.761669 -2.72697,-5.5100933 -3.72085,-5.5100933 -1.2798469,0 -2.5546148,4.5446133 -3.1865386,8.4681423 -3.3595977,2.293725 -5.812401,5.618205 -5.812401,9.529737 0,5.399353 8.0990518,6.713279 10.7987276,6.821266 0.738208,0.03372 1.428043,0.04901 2.089792,0.05449 0.752663,0.09578 1.503429,0.151154 2.232159,0.151154 1.687587,0 3.373597,-0.341973 4.975781,-0.901652 0.9803,-0.28072 1.764935,-0.625003 2.388586,-1.017654 4.439913,-2.236949 7.756312,-5.85837 7.756312,-7.675462 0,-2.082711 -4.855961,-6.536701 -10.508722,-8.55778 -0.682482,-3.663607 -2.127647,-8.6720282 -3.534544,-8.6720282 z"/><path fill="#f18f26" d="m 17.326438,28.985244 c -0.140383,0 -0.282567,-0.0324 -0.415751,-0.101688 -0.440948,-0.230373 -0.611028,-0.773909 -0.380655,-1.214857 1.426332,-2.730278 1.995965,-5.190588 0.138584,-8.31772 -0.25377,-0.427449 -0.113387,-0.979084 0.314063,-1.233754 0.427449,-0.25467 0.979084,-0.111587 1.233754,0.314063 2.423415,4.081019 1.313845,7.38093 -0.09179,10.070713 -0.160181,0.307764 -0.474244,0.483243 -0.798205,0.483243 z"/><circle cx="10.078804" cy="21.024702" r="1.7997861" fill="#292f33"/><path fill="#e75a70" d="M 4.0595176,23.208442 C 2.7056784,24.054342 2.7056784,26.76202 2.029759,26.76202 1.3538397,26.76202 5.4849991e-7,25.170209 5.4849991e-7,23.208442 -0.00197922,21.246676 5.7233198,22.168566 4.0595176,23.208442 Z"/><path fill="#fee7b8" d="m 11.246664,26.17409 c -0.08199,0.052 -0.179979,0.07199 -0.283967,0.052 -0.036,-0.008 -3.0956319,-0.481943 -5.0893946,0.291965 -0.257969,0.09999 -0.6819189,-0.04599 -0.825902,-0.381954 -0.143983,-0.33596 0.045994,-0.729914 0.3039635,-0.829902 2.8796579,-1.137865 5.7133211,-0.467944 5.8673031,-0.435948 0.277967,0.05799 0.389954,0.379955 0.375955,0.743911 -0.008,0.227973 -0.207975,0.469945 -0.347958,0.559934 z m -0.943888,4.677444 c -0.09599,0.018 -0.193977,-0.002 -0.281967,-0.06199 -0.029993,-0.01999 -2.6616836,-1.659802 -4.8034285,-1.705796 -0.2759678,-0.006 -0.6099274,-0.307964 -0.6099274,-0.68192 0,-0.371955 0.3299605,-0.66992 0.6079278,-0.665921 3.1036308,0.04799 5.4473521,1.781788 5.5773371,1.873777 0.233972,0.163981 0.207975,0.50994 0.05399,0.8479 -0.09799,0.213974 -0.377955,0.363957 -0.543935,0.393954 z"/><path fill="#f18f26" d="m 13.79836,13.251626 c 0,0 0.743912,-0.07799 1.717797,0.06599 0.433948,-0.91989 1.169861,-1.773789 1.169861,-1.773789 0,0 0.561932,1.335841 0.771908,2.357719 0.05,0.239972 0.435947,0.233973 0.643923,0.377956 0,0 0.07599,-6.9251773 -1.725794,-7.6710886 0.002,-0.00396 -1.509822,2.2477328 -2.577695,6.6432106 z m -6.9091781,2.957648 c 0,0 0.7679083,-0.533936 1.7657899,-1.147863 0.4339486,-1.247852 1.135865,-2.665683 1.135865,-2.665683 0,0 0.6139262,1.203856 0.6899182,1.619807 0.41995,-0.227973 0.41995,-0.211975 0.805904,-0.379955 0,0 -0.227973,-4.5714567 -2.1977386,-5.0533994 0,0 -1.4638259,2.7436744 -2.1997385,7.6270934 z"/><path fill="#f18f26" d="m 12.776069,11.073909 c -0.417109,0.803823 -0.626486,1.528785 -0.847167,2.604353 0.702143,-0.312669 1.824738,-0.418838 1.870091,-0.423164 -0.320068,-0.74791 -0.667738,-1.489549 -1.022926,-2.181189 z"/></svg>
