<svg xmlns="http://www.w3.org/2000/svg" viewBox="0 0 36 36"><path fill="#66757f" d="M 18,0 C 9.716,0 3,6.7159998 3,15 v 9 H 6 V 15 C 6,7.9999998 11.269,2.812 18,2.812 24.73,2.812 30,7.9999998 30,15 v 10 l 3,-1 V 15 C 33,6.7159998 26.284,0 18,0 Z"/><path fill="#ffcc4d" d="m 29.760676,16.69105 c 0,0 2.823776,-7.2229635 1.353281,-9.8344437 -0.495082,-0.8795098 -6.557388,1.6377078 -8.78936,4.4606637 0,0 -2.119675,-0.704919 -4.324597,-0.704919 -2.204922,0 -4.324597,0.704919 -4.324597,0.704919 C 11.443431,8.4943141 5.3811254,5.9770965 4.8860425,6.8566063 3.4155481,9.4680865 6.2393236,16.69105 6.2393236,16.69105 5.5040764,18.102528 5.228666,20.252532 4.9647311,22.559912 c -0.2901644,2.529513 0.2868858,4.545911 0.5393453,4.990993 0.2868857,0.505739 1.740167,2.13525 3.6754163,3.529515 2.9401693,2.117216 7.3500123,2.823775 8.8205073,2.823775 1.470495,0 5.880339,-0.705739 8.820507,-2.823775 1.935249,-1.394265 3.388531,-3.023776 3.675416,-3.529515 0.252461,-0.445082 0.82951,-2.46148 0.540166,-4.990993 -0.265574,-2.306561 -0.540166,-4.457384 -1.275413,-5.868862 z"/><path fill="#f18f26" d="m 5.1794857,7.6516896 c 0.1639347,-0.4909845 4.3836142,1.781151 5.3426323,4.4295164 0,0 -3.1213169,2.150823 -3.7114819,3.79017 0,0 -2.450824,-5.760666 -1.6311504,-8.2196864 z"/><path fill="#ffcc4d" d="m 8.1475237,11.168089 c 0,-1.159018 4.4729593,2.240168 3.6532853,3.059841 -0.819674,0.819674 -1.028691,0.590166 -1.8483644,1.409839 -0.8196733,0.819674 -1.8049209,-3.650006 -1.8049209,-4.46968 z"/><path fill="#f18f26" d="m 30.820514,7.6516896 c -0.163935,-0.4909845 -4.383614,1.781151 -5.342632,4.4295164 0,0 3.121317,2.150823 3.711482,3.79017 0,0 2.450824,-5.760666 1.63115,-8.2196864 z"/><path fill="#ffcc4d" d="m 27.852476,11.168089 c 0,-1.159018 -4.472959,2.240168 -3.653285,3.059841 0.819674,0.819674 1.028691,0.590166 1.848364,1.409839 0.819674,0.819674 1.804921,-3.650006 1.804921,-4.46968 z"/><path fill="#292f33" d="m 14.722126,21.61073 c 0,0.90574 -0.734428,1.638528 -1.639348,1.638528 -0.90492,0 -1.639347,-0.732788 -1.639347,-1.638528 0,-0.904919 0.734427,-1.638526 1.639347,-1.638526 0.90492,0 1.639348,0.734427 1.639348,1.638526 z m 9.834443,0 c 0,0.90574 -0.734427,1.638528 -1.639347,1.638528 -0.905739,0 -1.639348,-0.732788 -1.639348,-1.638528 0,-0.904919 0.733609,-1.638526 1.639348,-1.638526 0.905739,0 1.639347,0.734427 1.639347,1.638526 z"/><path fill="#31373d" d="m 6,27 c 0,1.104 -0.896,2 -2,2 H 2 C 0.896,29 0,28.104 0,27 v -9 c 0,-1.104 0.896,-2 2,-2 h 2 c 1.104,0 2,0.896 2,2 z m 30,0 c 0,1.104 -0.896,2 -2,2 h -2 c -1.104,0 -2,-0.896 -2,-2 v -9 c 0,-1.104 0.896,-2 2,-2 h 2 c 1.104,0 2,0.896 2,2 z"/><path fill="#fee7b8" d="m 5.0499772,30.182057 c -0.1213116,0 -0.2409841,-0.05328 -0.3221317,-0.155738 -0.1401641,-0.177869 -0.1098362,-0.435247 0.068033,-0.57541 0.1327872,-0.104099 3.2950878,-2.557383 8.7278845,-2.13525 0.22541,0.01721 0.394262,0.213934 0.377049,0.439345 -0.01721,0.22541 -0.210656,0.410657 -0.440164,0.377049 -5.1090256,-0.388525 -8.1270636,1.939348 -8.1565719,1.963119 -0.07623,0.05738 -0.165574,0.08689 -0.2540988,0.08689 z m 7.2688658,-3.822138 c -0.04016,0 -0.08197,-0.0058 -0.122132,-0.01803 -3.9262363,-1.227051 -7.1614879,-0.284426 -7.1942748,-0.27541 -0.2172135,0.06639 -0.4450828,-0.05738 -0.5106567,-0.27459 -0.064754,-0.217214 0.058197,-0.445083 0.2745906,-0.509838 0.1418036,-0.04263 3.513121,-1.022133 7.6737839,0.27705 0.216394,0.06803 0.336886,0.297541 0.268853,0.513936 -0.0541,0.174591 -0.215574,0.286885 -0.390164,0.286885 z m 18.63118,3.822138 c 0.121312,0 0.240984,-0.05328 0.322132,-0.155738 0.140163,-0.177869 0.109836,-0.435247 -0.06804,-0.57541 -0.132787,-0.104099 -3.295088,-2.557383 -8.727884,-2.13525 -0.22541,0.01721 -0.394262,0.213934 -0.377049,0.439345 0.01803,0.22541 0.210656,0.410657 0.440164,0.377049 5.109026,-0.388525 8.127064,1.939348 8.156572,1.963119 0.07623,0.05738 0.165574,0.08689 0.254099,0.08689 z m -7.268866,-3.822138 c 0.04016,0 0.08197,-0.0058 0.122132,-0.01803 3.926236,-1.227051 7.161488,-0.284426 7.194275,-0.27541 0.217214,0.06639 0.445083,-0.05738 0.510657,-0.27459 0.06476,-0.217214 -0.05819,-0.445083 -0.274592,-0.509838 -0.141803,-0.04263 -3.51312,-1.022133 -7.673783,0.27705 -0.216394,0.06803 -0.336886,0.297541 -0.268853,0.513936 0.0541,0.174591 0.215574,0.286885 0.390164,0.286885 z"/><path fill="#67757f" d="m 23.521321,30.542713 c -0.07951,-0.211475 -0.314755,-0.321311 -0.52705,-0.240983 -0.45246,0.168853 -0.881969,0.254918 -1.277871,0.254918 -0.944264,0 -1.279511,-0.25082 -1.666397,-0.540165 -0.369673,-0.27705 -0.783608,-0.586067 -1.63115,-0.658197 v -1.917218 c 0,-0.226229 -0.183607,-0.409837 -0.409837,-0.409837 -0.226229,0 -0.409836,0.183608 -0.409836,0.409837 v 1.945086 c -0.663936,0.09426 -1.103281,0.359836 -1.488527,0.609017 -0.465575,0.300821 -0.868034,0.561477 -1.707381,0.561477 -0.395082,0 -0.824592,-0.08524 -1.277051,-0.254918 -0.211475,-0.07787 -0.448361,0.02868 -0.52705,0.240983 -0.07951,0.212296 0.02868,0.448362 0.240165,0.52787 0.544262,0.202459 1.070493,0.305738 1.563116,0.305738 1.08115,0 1.650823,-0.368033 2.153284,-0.692623 0.429508,-0.27787 0.803279,-0.517215 1.514756,-0.520493 0.813116,0.0066 1.113117,0.227868 1.487708,0.509017 0.440984,0.330328 0.940165,0.704099 2.1582,0.704099 0.492624,0 1.019674,-0.103279 1.563938,-0.305738 0.212295,-0.07951 0.320492,-0.315574 0.240983,-0.52787 z"/><path fill="#e75a70" d="m 19.147543,25.550082 h -2.295086 c -0.524591,0 -0.95328,0.428689 -0.95328,0.95328 0,0.523771 0.428689,0.953281 0.95328,0.953281 h 0.194262 v 0.282787 c 0,0.523772 0.42869,0.95328 0.953281,0.95328 0.524591,0 0.953281,-0.428689 0.953281,-0.95328 v -0.282787 h 0.194262 c 0.523771,0 0.95328,-0.42869 0.95328,-0.953281 0,-0.524591 -0.429509,-0.95328 -0.95328,-0.95328 z"/></svg>
