<svg xmlns="http://www.w3.org/2000/svg" viewBox="0 0 36 36"><path fill="#FFCC4D" d="M32.348 13.999s3.445-8.812 1.651-11.998c-.604-1.073-8 1.998-10.723 5.442 0 0-2.586-.86-5.276-.86s-5.276.86-5.276.86C10.001 3.999 2.605.928 2.001 2.001.207 5.187 3.652 13.999 3.652 13.999c-.897 1.722-1.233 4.345-1.555 7.16-.354 3.086.35 5.546.658 6.089.35.617 2.123 2.605 4.484 4.306 3.587 2.583 8.967 3.445 10.761 3.445s7.174-.861 10.761-3.445c2.361-1.701 4.134-3.689 4.484-4.306.308-.543 1.012-3.003.659-6.089-.324-2.814-.659-5.438-1.556-7.16z"/><path fill="#F18F26" d="M2.359 2.971c.2-.599 5.348 2.173 6.518 5.404 0 0-3.808 2.624-4.528 4.624 0 0-2.99-7.028-1.99-10.028z"/><path fill="#FFCC4D" d="M5.98 7.261c0-1.414 5.457 2.733 4.457 3.733s-1.255.72-2.255 1.72S5.98 8.261 5.98 7.261z"/><path fill="#F18F26" d="M33.641 2.971c-.2-.599-5.348 2.173-6.518 5.404 0 0 3.808 2.624 4.528 4.624 0 0 2.99-7.028 1.99-10.028z"/><path fill="#FFCC4D" d="M30.02 7.261c0-1.414-5.457 2.733-4.457 3.733s1.255.72 2.255 1.72 2.202-4.453 2.202-5.453z"/><path fill="#292f33" d="m 26,20 c 0,1.105553 -0.896,2 -2,2 -1.105,0 -2,-0.894447 -2,-2 0,-1.104552 0.895,-2 2,-2 1.105,0 2,0.896448 2,2 z"/><path fill="#292f33" d="m 14,20 c 0,1.105553 -0.896,2 -2,2 -1.104,0 -2,-0.894447 -2,-2 0,-1.104552 0.896,-2 2,-2 1.104,0 2,0.896448 2,2 z"/><path fill="#fee7b8" d="m 2.2020267,30.458751 c -0.1479904,0 -0.2939809,-0.065 -0.3929745,-0.19 -0.1709889,-0.217 -0.1339913,-0.531 0.082995,-0.702 0.1619895,-0.127 4.0197388,-3.12 10.6473078,-2.605 0.274982,0.021 0.481643,0.261249 0.460645,0.536249 -0.021,0.275 -0.257659,0.500751 -0.53764,0.459751 -6.2325946,-0.474 -9.9143554,2.366 -9.9503531,2.395 -0.092994,0.07 -0.2019868,0.106 -0.3099802,0.106 z m 8.8674233,-4.663 c -0.049,0 -0.09999,-0.007 -0.14899,-0.022 -4.7896886,-1.497 -8.7364321,-0.347 -8.7764295,-0.336 -0.2649828,0.081 -0.5429648,-0.07 -0.6229596,-0.335 -0.078995,-0.265 0.070995,-0.543 0.3349783,-0.622 0.1729887,-0.052 4.2857215,-1.247 9.3613918,0.338 0.263982,0.083 0.410973,0.363 0.327978,0.627 -0.066,0.213 -0.262983,0.35 -0.475969,0.35 z m 22.728523,4.663 c 0.147991,0 0.293981,-0.065 0.392975,-0.19 0.170989,-0.217 0.133991,-0.531 -0.08299,-0.702 -0.161989,-0.127 -4.019739,-3.12 -10.647308,-2.605 -0.274982,0.021 -0.481649,0.261 -0.46065,0.536 0.022,0.275 0.257663,0.501 0.537645,0.46 6.232595,-0.474 9.914356,2.366 9.950353,2.395 0.09299,0.07 0.201987,0.106 0.30998,0.106 z m -8.867424,-4.663 c 0.049,0 0.09999,-0.007 0.148991,-0.022 4.789689,-1.497 8.736432,-0.347 8.77643,-0.336 0.264982,0.081 0.542964,-0.07 0.622959,-0.335 0.07899,-0.265 -0.071,-0.543 -0.334978,-0.622 -0.172989,-0.052 -4.285722,-1.247 -9.361392,0.338 -0.263983,0.083 -0.410973,0.363 -0.327979,0.627 0.066,0.213 0.262983,0.35 0.475969,0.35 z"/><path fill="#67757F" d="M24.736 30.898c-.097-.258-.384-.392-.643-.294-.552.206-1.076.311-1.559.311-1.152 0-1.561-.306-2.033-.659-.451-.338-.956-.715-1.99-.803v-2.339c0-.276-.224-.5-.5-.5s-.5.224-.5.5v2.373c-.81.115-1.346.439-1.816.743-.568.367-1.059.685-2.083.685-.482 0-1.006-.104-1.558-.311-.258-.095-.547.035-.643.294-.097.259.035.547.293.644.664.247 1.306.373 1.907.373 1.319 0 2.014-.449 2.627-.845.524-.339.98-.631 1.848-.635.992.008 1.358.278 1.815.621.538.403 1.147.859 2.633.859.601 0 1.244-.126 1.908-.373.259-.097.391-.385.294-.644z"/><path fill="#E75A70" d="M19.4 24.807h-2.8c-.64 0-1.163.523-1.163 1.163 0 .639.523 1.163 1.163 1.163h.237v.345c0 .639.523 1.163 1.163 1.163s1.163-.523 1.163-1.163v-.345h.237c.639 0 1.163-.523 1.163-1.163s-.524-1.163-1.163-1.163z"/><path fill="#ea596e" d="M 27.137466,10.446967 C 23.809647,8.6002435 21.699932,8.7067446 20.665362,9.1409891 l -0.04245,0.073534 c -0.913867,1.5828636 4.066466,1.9256016 6.064279,1.3902786 0.173149,-0.04639 0.317796,-0.100617 0.450275,-0.157825 z m 0.419163,0.242004 c 0.01669,0.14333 0.04206,0.295715 0.08846,0.468862 0.535302,1.99782 3.322289,6.139544 4.236155,4.556682 l 0.04246,-0.07353 c -0.14122,-1.113084 -1.103841,-2.993407 -4.367063,-4.952017 z"/><path fill="#f4abba" d="M 24.926492,4.0662813 C 24.337131,3.7272261 23.776317,3.7526569 23.3651,4.4649049 l -2.699738,4.6760842 c 1.034568,-0.4342446 3.144291,-0.5407488 6.472104,1.3059779 l 0.209176,0.121706 0.209979,0.120313 c 3.263216,1.958612 4.225844,3.838934 4.367061,4.95202 l 2.699739,-4.676085 C 35.034638,10.252673 34.776263,9.7542624 34.187944,9.413404 32.684508,8.5422428 29.027751,8.6979223 28.896353,8.9255095 28.852958,9.0006719 28.601839,8.9011583 28.384881,8.7703884 28.163133,8.647916 27.951412,8.4801639 27.994807,8.4050015 28.126204,8.1774143 26.432603,4.9328074 24.926483,4.066297 Z"/><path fill="#ffccd6" d="m 29.011712,11.340935 c -0.403814,0.699425 -1.298038,0.939331 -1.997463,0.535518 l -0.633982,-0.36603 C 25.680842,11.10661 25.441494,10.212236 25.845308,9.512811 L 26.617182,8.1758852 C 27.020994,7.476462 27.915218,7.236557 28.614643,7.64037 l 0.633982,0.36603 c 0.699425,0.403813 0.938773,1.298186 0.534961,1.997609 z"/><path fill="#ea596e" d="M 8.8625631,10.446967 C 12.190382,8.6002435 14.300097,8.7067446 15.334667,9.1409891 l 0.04245,0.073534 c 0.913867,1.5828639 -4.066466,1.9256019 -6.0642789,1.3902789 -0.173149,-0.04639 -0.317796,-0.100617 -0.450275,-0.157825 z m -0.419163,0.242004 c -0.01669,0.14333 -0.04206,0.295715 -0.08846,0.468862 -0.535302,1.99782 -3.322289,6.139544 -4.236155,4.556682 l -0.04246,-0.07353 c 0.14122,-1.113084 1.103841,-2.993407 4.367063,-4.952017 z"/><path fill="#f4abba" d="m 11.073537,4.0662813 c 0.589361,-0.3390552 1.150175,-0.3136244 1.561392,0.3986236 l 2.699738,4.6760842 C 14.300099,8.7067445 12.190376,8.6002403 8.8625631,10.446967 l -0.209176,0.121706 -0.209979,0.120313 c -3.263216,1.958612 -4.225844,3.838934 -4.367061,4.95202 l -2.699739,-4.676085 c -0.41121703,-0.712248 -0.152842,-1.2106586 0.435477,-1.551517 1.503436,-0.8711612 5.160193,-0.7154817 5.291591,-0.4878945 0.0434,0.075162 0.294514,-0.024351 0.511472,-0.1551211 C 7.8368961,8.647916 8.0486171,8.4801639 8.0052221,8.4050015 7.8738251,8.1774143 9.5674261,4.9328074 11.073546,4.066297 Z"/><path fill="#ffccd6" d="m 6.9883171,11.340935 c 0.403814,0.699425 1.298038,0.939331 1.997463,0.535518 l 0.633982,-0.36603 C 10.319187,11.10661 10.558535,10.212236 10.154721,9.512811 L 9.3828471,8.1758852 C 8.9790351,7.476462 8.0848111,7.236557 7.3853861,7.64037 L 6.7514041,8.0064 c -0.699425,0.403813 -0.938773,1.298186 -0.534961,1.997609 z"/></svg>
