<svg xmlns="http://www.w3.org/2000/svg" viewBox="0 0 36 36"><path fill="#ffcc4d" d="m 32.348,13.999 c 0,0 3.445,-8.812 1.651,-11.998 -0.604,-1.073 -8,1.998 -10.723,5.442 0,0 -2.586,-0.86 -5.276,-0.86 -2.69,0 -5.276,0.86 -5.276,0.86 C 10.001,3.999 2.605,0.928 2.001,2.001 0.207,5.187 3.652,13.999 3.652,13.999 c -0.897,1.722 -1.233,4.345 -1.555,7.16 -0.354,3.086 0.35,5.546 0.658,6.089 0.35,0.617 2.123,2.605 4.484,4.306 3.587,2.583 8.967,3.445 10.761,3.445 1.794,0 7.174,-0.861 10.761,-3.445 2.361,-1.701 4.134,-3.689 4.484,-4.306 0.308,-0.543 1.012,-3.003 0.659,-6.089 -0.324,-2.814 -0.659,-5.438 -1.556,-7.16 z"/><path fill="#F18F26" d="M2.359 2.971c.2-.599 5.348 2.173 6.518 5.404 0 0-3.808 2.624-4.528 4.624 0 0-2.99-7.028-1.99-10.028z"/><path fill="#FFCC4D" d="M5.98 7.261c0-1.414 5.457 2.733 4.457 3.733s-1.255.72-2.255 1.72S5.98 8.261 5.98 7.261z"/><path fill="#F18F26" d="M33.641 2.971c-.2-.599-5.348 2.173-6.518 5.404 0 0 3.808 2.624 4.528 4.624 0 0 2.99-7.028 1.99-10.028z"/><path fill="#FFCC4D" d="M30.02 7.261c0-1.414-5.457 2.733-4.457 3.733s1.255.72 2.255 1.72 2.202-4.453 2.202-5.453z"/><ellipse cx="12.000222" cy="20.000111" fill="#292f33" rx="2.2222223" ry="3.1111112"/><path fill="#67757f" d="m 18.944696,31.141015 c 0.606699,-0.187236 1.194763,-0.525351 1.194763,-1.136141 0,-1.190219 -2.232286,-1.348824 -2.486781,-1.362912 -0.124525,-0.01187 -0.231319,0.08771 -0.239499,0.212685 -0.0078,0.124525 0.08635,0.232228 0.210869,0.240861 0.0159,9.22e-4 1.6065,0.135883 1.6065,0.909366 0,0.773485 -1.590595,0.908457 -1.6065,0.909367 -0.0064,4.54e-4 -0.01088,0.0041 -0.01681,0.005 -0.02363,0.0027 -0.0459,0.0081 -0.06635,0.01817 l -0.0086,0.005 c -0.02136,0.01187 -0.03999,0.0259 -0.05681,0.04454 -0.0064,0.0069 -0.01087,0.01409 -0.01636,0.02181 -0.0105,0.01454 -0.02,0.02863 -0.02681,0.04636 -0.0055,0.01318 -0.0081,0.02773 -0.01088,0.04181 -0.0019,0.0105 -0.0072,0.02 -0.0081,0.03045 0,0.005 0.0019,0.0095 0.0019,0.01409 0,0.0045 -0.0023,0.0095 -0.0019,0.01409 4.54e-4,0.01087 0.0059,0.02045 0.0081,0.0309 0.0028,0.01409 0.005,0.02773 0.0105,0.0409 0.0059,0.01364 0.01409,0.0259 0.02228,0.03817 0.0078,0.01087 0.01455,0.02273 0.02362,0.03226 0.0105,0.0105 0.02273,0.01863 0.03545,0.02773 0.01088,0.0077 0.0209,0.01545 0.03363,0.02136 0.01455,0.0069 0.03,0.0095 0.0459,0.01225 0.01088,0.0028 0.02,0.0081 0.03136,0.0091 0.0159,9.21e-4 1.606501,0.135883 1.606501,0.909367 0,0.773484 -1.590594,0.908457 -1.606501,0.909366 -0.124525,0.0091 -0.218593,0.1168 -0.210867,0.240861 0.0077,0.120425 0.107712,0.21314 0.226774,0.21314 l 0.01272,-4.55e-4 c 0.254495,-0.01409 2.486781,-0.172692 2.486781,-1.362912 0,-0.611243 -0.588066,-0.949358 -1.194763,-1.136594 z"/><path fill="#292f33" d="m 28.444352,18.666794 c -0.271111,0 -0.536889,-0.122667 -0.712,-0.355556 -2.304,-3.072 -6.187555,-2.336 -6.225777,-2.328889 -0.486223,0.09778 -0.949334,-0.216889 -1.046223,-0.696889 -0.096,-0.480889 0.216,-0.949333 0.696889,-1.046222 0.205334,-0.04178 5.028445,-0.952889 7.996445,3.004445 0.295111,0.392888 0.215111,0.950222 -0.177778,1.244444 -0.159111,0.120889 -0.345778,0.178667 -0.531556,0.178667 z"/><path fill="#292f33" d="m 7.1109559,16.000333 c -0.1848889,0 -0.3724444,-0.05778 -0.5324444,-0.177778 C 6.1856226,15.528333 6.1065115,14.971 6.4007337,14.578111 9.3002893,10.711444 13.170512,10.667 13.334067,10.667 c 0.490667,0 0.888889,0.398222 0.888889,0.888889 0,0.489778 -0.395555,0.887111 -0.885333,0.888889 -0.137778,0.0018 -3.171556,0.07644 -5.5146671,3.199999 -0.1742222,0.232889 -0.4417777,0.355556 -0.712,0.355556 z"/><path fill="#292f33" d="m 27.96059,22.042667 c -0.05333,-0.12 -1.332445,-2.930667 -3.961778,-2.930667 -2.628444,0 -3.908444,2.810667 -3.961778,2.930667 -0.08178,0.184 -0.02844,0.399111 0.128889,0.525333 0.155556,0.126222 0.378667,0.130667 0.542222,0.01244 0.01067,-0.008 1.121778,-0.801778 3.290667,-0.801778 2.156444,0 3.265778,0.783111 3.290667,0.800889 0.07822,0.05867 0.172444,0.088 0.264888,0.088 0.09778,0 0.196445,-0.03289 0.277334,-0.09689 0.157333,-0.126222 0.211555,-0.343111 0.128889,-0.528 z"/><path fill="#E75A70" d="M19.4 24.807h-2.8c-.64 0-1.163.523-1.163 1.163 0 .639.523 1.163 1.163 1.163h.237v.345c0 .639.523 1.163 1.163 1.163s1.163-.523 1.163-1.163v-.345h.237c.639 0 1.163-.523 1.163-1.163s-.524-1.163-1.163-1.163z"/><path fill="#fee7b8" d="m 2.201,30.458 c -0.148,0 -0.294,-0.065 -0.393,-0.19 -0.171,-0.217 -0.134,-0.531 0.083,-0.702 0.162,-0.127 4.02,-3.12 10.648,-2.605 0.275,0.021 0.481,0.261 0.46,0.536 -0.021,0.275 -0.257,0.501 -0.537,0.46 -6.233,-0.474 -9.915,2.366 -9.951,2.395 -0.093,0.07 -0.202,0.106 -0.31,0.106 z m 8.868,-4.663 c -0.049,0 -0.1,-0.007 -0.149,-0.022 C 6.13,24.276 2.183,25.426 2.143,25.437 1.878,25.518 1.6,25.367 1.52,25.102 1.441,24.837 1.591,24.559 1.855,24.48 c 0.173,-0.052 4.286,-1.247 9.362,0.338 0.264,0.083 0.411,0.363 0.328,0.627 -0.066,0.213 -0.263,0.35 -0.476,0.35 z m 22.73,4.663 c 0.148,0 0.294,-0.065 0.393,-0.19 0.171,-0.217 0.134,-0.531 -0.083,-0.702 -0.162,-0.127 -4.02,-3.12 -10.648,-2.605 -0.275,0.021 -0.481,0.261 -0.46,0.536 0.022,0.275 0.257,0.501 0.537,0.46 6.233,-0.474 9.915,2.366 9.951,2.395 0.093,0.07 0.202,0.106 0.31,0.106 z m -8.868,-4.663 c 0.049,0 0.1,-0.007 0.149,-0.022 4.79,-1.497 8.737,-0.347 8.777,-0.336 0.265,0.081 0.543,-0.07 0.623,-0.335 0.079,-0.265 -0.071,-0.543 -0.335,-0.622 -0.173,-0.052 -4.286,-1.247 -9.362,0.338 -0.264,0.083 -0.411,0.363 -0.328,0.627 0.066,0.213 0.263,0.35 0.476,0.35 z"/><path fill="#ffd7a9" d="m 25.999733,26.542584 c -0.963077,0.04216 -1.874561,0.595039 -2.326172,1.521484 -0.09333,0.191111 -0.158681,0.388605 -0.203125,0.585938 -0.464257,1.53115 -0.04425,3.557767 0.701172,5.154297 1.591428,-0.532098 3.221639,-1.264374 4.589844,-2.25 1.164305,-0.838833 2.182759,-1.747759 2.960937,-2.527344 -0.137405,-0.104589 -0.285807,-0.198737 -0.447265,-0.277344 -0.819555,-0.399111 -1.740376,-0.346198 -2.484375,0.05469 -0.142223,-0.832 -0.666598,-1.59006 -1.484375,-1.988282 -0.421389,-0.205557 -0.868879,-0.292601 -1.306641,-0.273439 z" style="mix-blend-mode:multiply"/><path fill="#dd2e44" d="m 33.96799,31.679579 c 0.656889,-1.347556 0.09778,-2.975111 -1.248889,-3.632 -0.819556,-0.399111 -1.738667,-0.347556 -2.482667,0.05333 -0.142222,-0.832 -0.666667,-1.590222 -1.484444,-1.988444 -1.348445,-0.657778 -2.976,-0.09689 -3.632889,1.249778 -0.09333,0.191111 -0.16,0.388444 -0.204445,0.585777 -0.688,2.272 0.568889,5.636445 1.948445,7.064889 1.976,0.208 5.401778,-0.870222 6.768889,-2.809777 0.128889,-0.159112 0.242666,-0.332445 0.336,-0.523556 z"/></svg>
