<svg xmlns="http://www.w3.org/2000/svg" viewBox="0 0 36 36"><path fill="#FFCC4D" d="M32.348 13.999s3.445-8.812 1.651-11.998c-.604-1.073-8 1.998-10.723 5.442 0 0-2.586-.86-5.276-.86s-5.276.86-5.276.86C10.001 3.999 2.605.928 2.001 2.001.207 5.187 3.652 13.999 3.652 13.999c-.897 1.722-1.233 4.345-1.555 7.16-.354 3.086.35 5.546.658 6.089.35.617 2.123 2.605 4.484 4.306 3.587 2.583 8.967 3.445 10.761 3.445s7.174-.861 10.761-3.445c2.361-1.701 4.134-3.689 4.484-4.306.308-.543 1.012-3.003.659-6.089-.324-2.814-.659-5.438-1.556-7.16z"/><path fill="#F18F26" d="M2.359 2.971c.2-.599 5.348 2.173 6.518 5.404 0 0-3.808 2.624-4.528 4.624 0 0-2.99-7.028-1.99-10.028z"/><path fill="#FFCC4D" d="M5.98 7.261c0-1.414 5.457 2.733 4.457 3.733s-1.255.72-2.255 1.72S5.98 8.261 5.98 7.261z"/><path fill="#F18F26" d="M33.641 2.971c-.2-.599-5.348 2.173-6.518 5.404 0 0 3.808 2.624 4.528 4.624 0 0 2.99-7.028 1.99-10.028z"/><path fill="#FFCC4D" d="M30.02 7.261c0-1.414-5.457 2.733-4.457 3.733s1.255.72 2.255 1.72 2.202-4.453 2.202-5.453z"/><path fill="#fee7b8" d="m 2.2020267,30.458751 c -0.1479904,0 -0.2939809,-0.065 -0.3929745,-0.19 -0.1709889,-0.217 -0.1339913,-0.531 0.082995,-0.702 0.1619895,-0.127 4.0197388,-3.12 10.6473078,-2.605 0.274982,0.021 0.481643,0.261249 0.460645,0.536249 -0.021,0.275 -0.257659,0.500751 -0.53764,0.459751 -6.2325946,-0.474 -9.9143554,2.366 -9.9503531,2.395 -0.092994,0.07 -0.2019868,0.106 -0.3099802,0.106 z m 8.8674233,-4.663 c -0.049,0 -0.09999,-0.007 -0.14899,-0.022 -4.7896886,-1.497 -8.7364321,-0.347 -8.7764295,-0.336 -0.2649828,0.081 -0.5429648,-0.07 -0.6229596,-0.335 -0.078995,-0.265 0.070995,-0.543 0.3349783,-0.622 0.1729887,-0.052 4.2857215,-1.247 9.3613918,0.338 0.263982,0.083 0.410973,0.363 0.327978,0.627 -0.066,0.213 -0.262983,0.35 -0.475969,0.35 z m 22.728523,4.663 c 0.147991,0 0.293981,-0.065 0.392975,-0.19 0.170989,-0.217 0.133991,-0.531 -0.08299,-0.702 -0.161989,-0.127 -4.019739,-3.12 -10.647308,-2.605 -0.274982,0.021 -0.481649,0.261 -0.46065,0.536 0.022,0.275 0.257663,0.501 0.537645,0.46 6.232595,-0.474 9.914356,2.366 9.950353,2.395 0.09299,0.07 0.201987,0.106 0.30998,0.106 z m -8.867424,-4.663 c 0.049,0 0.09999,-0.007 0.148991,-0.022 4.789689,-1.497 8.736432,-0.347 8.77643,-0.336 0.264982,0.081 0.542964,-0.07 0.622959,-0.335 0.07899,-0.265 -0.071,-0.543 -0.334978,-0.622 -0.172989,-0.052 -4.285722,-1.247 -9.361392,0.338 -0.263983,0.083 -0.410973,0.363 -0.327979,0.627 0.066,0.213 0.262983,0.35 0.475969,0.35 z"/><path fill="#67757F" d="M24.736 30.898c-.097-.258-.384-.392-.643-.294-.552.206-1.076.311-1.559.311-1.152 0-1.561-.306-2.033-.659-.451-.338-.956-.715-1.99-.803v-2.339c0-.276-.224-.5-.5-.5s-.5.224-.5.5v2.373c-.81.115-1.346.439-1.816.743-.568.367-1.059.685-2.083.685-.482 0-1.006-.104-1.558-.311-.258-.095-.547.035-.643.294-.097.259.035.547.293.644.664.247 1.306.373 1.907.373 1.319 0 2.014-.449 2.627-.845.524-.339.98-.631 1.848-.635.992.008 1.358.278 1.815.621.538.403 1.147.859 2.633.859.601 0 1.244-.126 1.908-.373.259-.097.391-.385.294-.644z"/><path fill="#E75A70" d="M19.4 24.807h-2.8c-.64 0-1.163.523-1.163 1.163 0 .639.523 1.163 1.163 1.163h.237v.345c0 .639.523 1.163 1.163 1.163s1.163-.523 1.163-1.163v-.345h.237c.639 0 1.163-.523 1.163-1.163s-.524-1.163-1.163-1.163z"/><path fill="#292f33" d="M 15.961966,18.037989 C 13.068573,15.144776 8.4186983,15.111 8.2222497,15.111 c -0.4906767,0 -0.8880184,0.397317 -0.8880184,0.887074 -8.887e-4,0.490646 0.3964527,0.888851 0.8871295,0.890629 0.025779,0 1.7111464,0.02045 3.5405172,0.655084 -0.527122,0.568865 -0.872906,1.452385 -0.872906,2.455898 0,1.71904 0.994686,3.110982 2.222268,3.110982 1.227579,0 2.222269,-1.391942 2.222269,-3.110982 0,-0.15466 -0.0169,-0.302209 -0.03288,-0.450648 0.01156,0 0.02222,0.0062 0.03288,0.0062 0.227559,0 0.455118,-0.08711 0.628457,-0.260435 0.347562,-0.34754 0.347562,-0.909295 0,-1.256836 z M 27.77821,15.111 c -0.196451,0 -4.845435,0.03378 -7.739718,2.926989 -0.347562,0.347541 -0.347562,0.909296 0,1.256836 0.173339,0.173326 0.400899,0.260435 0.628457,0.260435 0.01157,0 0.02134,-0.0062 0.032,-0.0062 -0.01423,0.148439 -0.032,0.295988 -0.032,0.450648 0,1.71904 0.99469,3.111292 2.222269,3.111292 1.227582,0 2.222267,-1.391831 2.222267,-3.110871 0,-1.003513 -0.345783,-1.887454 -0.872906,-2.456319 1.829371,-0.63464 3.514741,-0.655084 3.541408,-0.655084 0.489788,-0.0018 0.887129,-0.399983 0.886241,-0.890629 -8.9e-4,-0.489757 -0.397343,-0.887074 -0.888018,-0.887074 z"/><path fill="#292f33" d="M 28.434771,33.333332 H 7.5653436 c -1.1057829,0 -2.0097868,-0.904 -2.0097868,-2.009777 v -5.101333 c 0,-1.105778 0.9040039,-2.009778 2.0097868,-2.009778 H 28.434771 c 1.105782,0 2.009786,0.904 2.009786,2.009778 v 5.101333 c 0,1.105777 -0.904004,2.009777 -2.009786,2.009777 z"/><path fill="#ffffff" d="M 8.9697944,28.203555 H 8.2426798 c -0.2791122,0 -0.4062239,-0.203555 -0.4062239,-0.406222 0,-0.202667 0.1271117,-0.405333 0.4062239,-0.405333 h 0.8444483 l 0.1857787,-1.36 c 0.041778,-0.304 0.1688896,-0.405333 0.4222239,-0.405333 0.2026677,0 0.3893343,0.134222 0.3893343,0.337777 0,0.127111 0,0.06756 -0.0169,0.203556 l -0.1688905,1.224889 h 0.8115605 l 0.185777,-1.36 c 0.04179,-0.304 0.168891,-0.405334 0.422225,-0.405334 0.202668,0 0.389335,0.134223 0.389335,0.337778 0,0.127111 0,0.06756 -0.0169,0.203556 l -0.169777,1.224888 h 0.727113 c 0.279114,0 0.405336,0.203556 0.405336,0.405334 0,0.202666 -0.127112,0.406222 -0.405336,0.406222 h -0.845336 l -0.135113,0.962666 h 0.727113 c 0.279115,0 0.405337,0.203556 0.405337,0.406223 0,0.202666 -0.127113,0.405333 -0.405337,0.405333 h -0.845335 l -0.185778,1.36 c -0.04266,0.304889 -0.169781,0.405333 -0.423113,0.405333 -0.202669,0 -0.389337,-0.134222 -0.389337,-0.337778 0,-0.127111 0,-0.06755 0.0169,-0.203555 l 0.169778,-1.224889 H 9.5271301 l -0.1857786,1.36 c -0.042666,0.304889 -0.1688898,0.405333 -0.423113,0.405333 -0.2026677,0 -0.3893352,-0.134222 -0.3893352,-0.337778 0,-0.127111 0,-0.06755 0.016889,-0.203555 L 8.7146821,29.977777 H 7.9893455 c -0.2782235,0 -0.4053352,-0.203555 -0.4053352,-0.405333 0,-0.203556 0.1271117,-0.406222 0.4053352,-0.406222 h 0.8453371 z m 0.6844475,0.962667 h 0.8026701 l 0.135113,-0.962667 H 9.7893536 Z M 13.757373,26.944 c 0,-0.735111 0.549335,-1.368889 1.301337,-1.368889 0.752005,0 1.30134,0.633778 1.30134,1.368889 0,0.735111 -0.549335,1.360888 -1.30134,1.360888 C 14.305818,28.305777 13.757373,27.68 13.757373,26.944 Z m 1.740449,0 c 0,-0.270222 -0.160888,-0.506667 -0.439112,-0.506667 -0.279111,0 -0.440003,0.237333 -0.440003,0.506667 0,0.271111 0.160892,0.499555 0.440003,0.499555 0.278224,0 0.439112,-0.228444 0.439112,-0.499555 z m 2.053343,-1.148445 c 0.110222,-0.210666 0.19467,-0.270222 0.389337,-0.270222 0.262222,0 0.498667,0.210667 0.498667,0.472889 0,0.06756 0,0.127111 -0.06755,0.253333 l -2.839123,5.314666 c -0.127113,0.176889 -0.177781,0.278223 -0.380449,0.278223 -0.219555,0 -0.481779,-0.210667 -0.481779,-0.464 0,-0.127111 0.05066,-0.244445 0.08444,-0.312889 z m -0.819557,4.639111 c 0,-0.735111 0.549336,-1.368889 1.301338,-1.368889 0.752004,0 1.30134,0.633778 1.30134,1.368889 0,0.734222 -0.549336,1.36 -1.30134,1.36 -0.752892,8.89e-4 -1.301338,-0.625778 -1.301338,-1.36 z m 1.74045,0 c 0,-0.271111 -0.160889,-0.506667 -0.44,-0.506667 -0.279113,0 -0.440002,0.236445 -0.440002,0.506667 0,0.270222 0.160889,0.498667 0.440002,0.498667 0.279111,0 0.44,-0.228445 0.44,-0.498667 z m 2.209789,0.701333 c 0,-0.363555 0.296,-0.659555 0.658668,-0.659555 0.363559,0 0.659559,0.296 0.659559,0.659555 0,0.362667 -0.296,0.658667 -0.659559,0.658667 -0.362668,8.89e-4 -0.658668,-0.295111 -0.658668,-0.658667 z m 0.05066,-4.985777 c 0,-0.354667 0.261335,-0.574222 0.608001,-0.574222 0.33867,0 0.608894,0.228444 0.608894,0.574222 v 3.253333 c 0,0.346667 -0.270224,0.574222 -0.608894,0.574222 -0.346666,0 -0.608001,-0.219555 -0.608001,-0.574222 z m 7.180477,5.695111 c -0.166223,0 -0.270223,-0.04711 -0.383115,-0.174223 l -0.643556,-0.702222 -0.06401,0.05867 c -0.624003,0.573333 -1.16267,0.816889 -1.799117,0.816889 -0.985782,0 -1.981343,-0.561778 -1.981343,-1.816889 0,-0.984 0.770671,-1.572444 1.230228,-1.835555 l 0.104001,-0.05956 -0.08444,-0.08711 c -0.37778,-0.395556 -0.532449,-0.722667 -0.532449,-1.128 0,-0.957333 0.873782,-1.392889 1.685343,-1.392889 0.679112,0 1.635561,0.402667 1.635561,1.296 0,0.845333 -0.784891,1.334222 -1.024894,1.464 l -0.102221,0.05511 1.032004,1.192 0.39467,-0.476444 C 27.599211,28.791111 27.727211,28.68 27.953879,28.68 c 0.182223,0 0.376891,0.163555 0.376891,0.464888 0,0.225778 -0.224001,0.52 -0.443558,0.777778 l -0.264002,0.297778 0.627561,0.744889 c 0.116444,0.138666 0.164443,0.212444 0.164443,0.380444 8.9e-4,0.262222 -0.239111,0.499556 -0.502223,0.499556 z m -3.064014,-3.088 c -0.380448,0.255111 -0.768004,0.591111 -0.768004,1.147555 0,0.583111 0.379557,0.959111 0.968003,0.959111 0.490671,0 0.808006,-0.215111 1.133339,-0.538666 l 0.0631,-0.06133 -1.333343,-1.549333 z m 0.596446,-2.409778 c -0.24889,0 -0.595559,0.203556 -0.595559,0.535111 0,0.309334 0.152002,0.497778 0.474671,0.825778 l 0.04532,0.04622 0.05599,-0.02933 c 0.44178,-0.231111 0.665781,-0.491556 0.665781,-0.772444 8.87e-4,-0.416 -0.334224,-0.605334 -0.646227,-0.605334 z"/></svg>
