<svg xmlns="http://www.w3.org/2000/svg" viewBox="0 0 36 36"><path fill="#ffcc4d" d="m 29.217919,14.6867 c 0,0 3.261196,-8.3428891 1.562912,-11.3589389 -0.571774,-1.0157631 -7.573175,1.891421 -10.150893,5.1517083 0,0 -2.448031,-0.8141251 -4.99451,-0.8141251 -2.54648,0 -4.994509,0.8141251 -4.994509,0.8141251 C 8.0631997,5.2191821 1.0617997,2.311998 0.49002501,3.3277611 -1.2082595,6.3438109 2.0529391,14.6867 2.0529391,14.6867 c -0.8491423,1.630144 -1.16721568,4.11228 -1.47203603,6.777118 -0.33511297,2.921384 0.33132648,5.250161 0.62289373,5.764197 0.3313263,0.584087 2.0097314,2.466041 4.2447646,4.076305 3.3956224,2.445217 8.4885836,3.262181 10.1868666,3.262181 1.698286,0 6.791244,-0.816019 10.186866,-3.262181 2.235034,-1.610264 3.913441,-3.492218 4.244766,-4.076305 0.291566,-0.514036 0.95706,-2.842813 0.622894,-5.764197 C 30.38324,18.799926 30.06706,16.316844 29.217919,14.6867 Z"/><path fill="#f18f26" d="M 0.82892457,4.2460185 C 1.018254,3.6789709 5.891592,6.3031046 6.999169,9.361754 c 0,0 -3.6048313,2.484029 -4.2864172,4.377342 0,0 -2.83047403,-6.6531059 -1.88382723,-9.4930775 z"/><path fill="#ffcc4d" d="m 4.256733,8.3071777 c 0,-1.3385731 5.1658521,2.5872133 4.219205,3.5338703 C 7.5292916,12.787706 7.2878958,12.522642 6.3412494,13.469299 5.3946024,14.415956 4.256733,9.253835 4.256733,8.3071777 Z"/><path fill="#f18f26" d="m 30.441932,4.2460185 c -0.18933,-0.5670476 -5.062667,2.0570861 -6.170245,5.1157355 0,0 3.604833,2.484029 4.286419,4.377342 0,0 2.830472,-6.6531059 1.883826,-9.4930775 z"/><path fill="#ffcc4d" d="m 27.014124,8.3071777 c 0,-1.3385731 -5.165853,2.5872133 -4.219205,3.5338703 0.946647,0.946658 1.188043,0.681594 2.134688,1.628251 0.946647,0.946657 2.084517,-4.215464 2.084517,-5.1621213 z"/><path fill="#292f33" d="m 23.208604,20.366644 c 0,1.04658 -0.848195,1.893314 -1.893294,1.893314 -1.046045,0 -1.893295,-0.846734 -1.893295,-1.893314 0,-1.045633 0.84725,-1.893316 1.893295,-1.893316 1.046044,0 1.893294,0.848631 1.893294,1.893316 z"/><path fill="#292f33" d="m 11.848841,20.366644 c 0,1.04658 -0.848196,1.893314 -1.893293,1.893314 -1.0450991,0 -1.8932941,-0.846734 -1.8932941,-1.893314 0,-1.045633 0.848195,-1.893316 1.8932941,-1.893316 1.045097,0 1.893293,0.848631 1.893293,1.893316 z"/><path fill="#fee7b8" d="m 0.68032621,30.267494 c -0.14009462,0 -0.27829601,-0.06152 -0.37200797,-0.179863 -0.16186613,-0.205426 -0.12684252,-0.502675 0.0785669,-0.664555 0.15334683,-0.120224 3.80527336,-2.953571 10.07924086,-2.466042 0.260311,0.01987 0.455945,0.247314 0.436068,0.507644 -0.01987,0.260332 -0.243912,0.47404 -0.508956,0.435227 C 4.4931727,27.45119 1.0078453,30.139697 0.9737681,30.16715 0.885736,30.233411 0.78255789,30.2675 0.68032631,30.2675 Z M 9.074645,25.853233 c -0.046385,0 -0.094656,-0.0065 -0.141041,-0.02083 -4.5341439,-1.417145 -8.27031627,-0.328488 -8.30817964,-0.318077 -0.25084519,0.07668 -0.51399585,-0.06626 -0.5897227,-0.317129 -0.07478044,-0.250864 0.06720724,-0.514036 0.3171061,-0.588821 0.16375918,-0.04923 4.05706484,-1.180482 8.86193214,0.319969 0.2498985,0.07857 0.3890467,0.343638 0.3104797,0.593556 -0.062478,0.201636 -0.2489517,0.331329 -0.4505746,0.331329 z m 21.515884,4.414261 c 0.140095,0 0.278297,-0.06152 0.37201,-0.179863 0.161865,-0.205426 0.126841,-0.502675 -0.07856,-0.664555 -0.153345,-0.120224 -3.80527,-2.953571 -10.079239,-2.466042 -0.260311,0.01987 -0.455953,0.247077 -0.436073,0.507408 0.02083,0.260333 0.243915,0.474276 0.50896,0.435463 5.900067,-0.448715 9.385394,2.239792 9.419469,2.267245 0.08803,0.06626 0.191213,0.10035 0.293443,0.10035 z m -8.394318,-4.414261 c 0.04639,0 0.09465,-0.0065 0.141041,-0.02083 4.534146,-1.417145 8.270317,-0.328488 8.308181,-0.318077 0.250843,0.07668 0.513994,-0.06626 0.589722,-0.317129 0.07478,-0.250864 -0.06721,-0.514036 -0.317106,-0.588821 -0.16376,-0.04923 -4.057065,-1.180482 -8.861933,0.319969 -0.249897,0.07857 -0.389047,0.343638 -0.310479,0.593556 0.06248,0.201636 0.248952,0.331329 0.450574,0.331328 z"/><path fill="#67757f" d="m 15.635428,26.627154 c -0.261274,0 -0.462229,0.212051 -0.462229,0.473328 v 2.246462 c -0.766783,0.108866 -1.274572,0.416662 -1.719496,0.704446 -0.537695,0.347423 -1.003431,0.64713 -1.972796,0.64713 -0.456284,0 -0.951041,-0.09802 -1.47359,-0.293983 -0.2442341,-0.08994 -0.5192663,0.034 -0.6101436,0.279189 -0.09182,0.245186 0.033104,0.518327 0.2773382,0.610151 0.6285714,0.233824 1.2374604,0.351299 1.8063954,0.351299 1.248626,0 1.906502,-0.423865 2.486796,-0.798742 0.496043,-0.320917 0.846037,-0.597118 1.667725,-0.600905 0.821689,0.0037 1.171684,0.279988 1.667727,0.600905 0.580292,0.374877 1.23817,0.798742 2.486796,0.798742 0.568932,0 1.177822,-0.117475 1.806394,-0.351299 0.244235,-0.09182 0.369163,-0.364965 0.277339,-0.610151 -0.09088,-0.245184 -0.365909,-0.36912 -0.610144,-0.279189 -0.522548,0.195958 -1.017306,0.293983 -1.473589,0.293983 -0.969366,0 -1.435103,-0.299707 -1.972797,-0.64713 -0.444924,-0.287784 -0.952712,-0.595579 -1.719496,-0.704446 v -2.246462 c 0,-0.261277 -0.200955,-0.473328 -0.46223,-0.473328 z"/><path fill="#e75a70" d="m 16.960735,24.917226 h -2.650611 c -0.605854,0 -1.100952,0.4951 -1.100952,1.100962 0,0.604913 0.495098,1.100961 1.100952,1.100961 h 0.224355 v 0.326596 c 0,0.604915 0.495095,1.100962 1.100949,1.100962 0.605854,0 1.100951,-0.4951 1.100951,-1.100962 v -0.326596 h 0.224356 c 0.604907,0 1.100949,-0.495101 1.100949,-1.100961 0,-0.605862 -0.496042,-1.100962 -1.100949,-1.100962 z"/><path fill="#dd2e44" d="M 31.249555,5.1498689 C 31.50997,8.822587 29.217593,14.6867 29.217593,14.6867 c 0.84914,1.630142 1.165026,4.112475 1.47174,6.776365 0.193202,1.68904 0.05066,3.166323 -0.159008,4.222979 l 1.998684,4.995834 h 2.087428 c 0,0 0.358355,-3.191664 1.044642,-7.312556 0.723483,-4.340947 0.707822,-13.188317 -4.411524,-18.2194531 z"/><ellipse cx="33.388737" cy="31.72653" fill="#f1f2f2" rx="2.611263" ry="2.6113126"/><path fill="#dd2e44" d="m 19.993332,1.4335 c -10.445748,0 -17.7570246,4.7868772 -17.7570246,9.401858 0,4.614983 6.6560681,4.178605 13.5784666,4.178605 6.625158,0.0084 6.447061,0.246566 13.40282,-0.327263 0,0 2.292376,-5.864116 2.031961,-9.5368311 C 28.97752,2.916983 25.704397,1.4335 21.037972,1.4335 c -0.260098,0 -0.499641,0.00772 -0.745115,0.012943 C 20.191533,1.4443518 20.094655,1.4335 19.993332,1.4335 Z"/><path fill="#f1f2f2" d="m 30.439027,13.968547 c 0,1.153225 -0.93594,2.089176 -2.08915,2.089176 H 2.2354788 c -1.1532118,0 -2.08915191,-0.935951 -2.08915191,-2.089176 V 12.92396 c 0,-1.153223 0.93594011,-2.089176 2.08915191,-2.089176 H 28.349877 c 1.15321,0 2.08915,0.935953 2.08915,2.089176 z"/></svg>
