<svg xmlns="http://www.w3.org/2000/svg" viewBox="0 0 36 36"><path fill="#ffcc4d" d="m 32.348,13.999 c 0,0 3.445,-8.812 1.651,-11.998 -0.604,-1.073 -8,1.998 -10.723,5.442 0,0 -2.586,-0.86 -5.276,-0.86 -2.69,0 -5.276,0.86 -5.276,0.86 C 10.001,3.999 2.605,0.928 2.001,2.001 0.207,5.187 3.652,13.999 3.652,13.999 c -0.897,1.722 -1.233,4.345 -1.555,7.16 -0.354,3.086 0.35,5.546 0.658,6.089 0.35,0.617 2.123,2.605 4.484,4.306 C 10.826,34.137 16.206,35 18,35 c 1.794,0 7.174,-0.862 10.761,-3.446 2.361,-1.701 4.134,-3.689 4.484,-4.306 0.308,-0.543 1.011,-3.003 0.658,-6.089 -0.324,-2.814 -0.658,-5.438 -1.555,-7.16 z"/><path fill="#f18f26" d="m 2.359,2.971 c 0.2,-0.599 5.348,2.173 6.518,5.404 0,0 -3.808,2.624 -4.528,4.624 0,0 -2.99,-7.028 -1.99,-10.028 z"/><path fill="#ffcc4d" d="m 5.98,7.261 c 0,-1.414 5.457,2.733 4.457,3.733 -1,1 -1.255,0.72 -2.255,1.72 -1,1 -2.202,-4.453 -2.202,-5.453 z"/><path fill="#f18f26" d="m 33.641,2.971 c -0.2,-0.599 -5.348,2.173 -6.518,5.404 0,0 3.808,2.624 4.528,4.624 0,0 2.99,-7.028 1.99,-10.028 z"/><path fill="#ffcc4d" d="m 30.02,7.261 c 0,-1.414 -5.457,2.733 -4.457,3.733 1,1 1.255,0.72 2.255,1.72 1,1 2.202,-4.453 2.202,-5.453 z"/><path fill="#fee7b8" d="m 2.2020267,30.458751 c -0.1479904,0 -0.2939809,-0.065 -0.3929745,-0.19 -0.1709889,-0.217 -0.1339913,-0.531 0.082995,-0.702 0.1619895,-0.127 4.0197388,-3.12 10.6473078,-2.605 0.274982,0.021 0.481643,0.261249 0.460645,0.536249 -0.021,0.275 -0.257659,0.500751 -0.53764,0.459751 -6.2325946,-0.474 -9.9143554,2.366 -9.9503531,2.395 -0.092994,0.07 -0.2019868,0.106 -0.3099802,0.106 z m 8.8674233,-4.663 c -0.049,0 -0.09999,-0.007 -0.14899,-0.022 -4.7896886,-1.497 -8.7364321,-0.347 -8.7764295,-0.336 -0.2649828,0.081 -0.5429648,-0.07 -0.6229596,-0.335 -0.078995,-0.265 0.070995,-0.543 0.3349783,-0.622 0.1729887,-0.052 4.2857215,-1.247 9.3613918,0.338 0.263982,0.083 0.410973,0.363 0.327978,0.627 -0.066,0.213 -0.262983,0.35 -0.475969,0.35 z m 22.728523,4.663 c 0.147991,0 0.293981,-0.065 0.392975,-0.19 0.170989,-0.217 0.133991,-0.531 -0.08299,-0.702 -0.161989,-0.127 -4.019739,-3.12 -10.647308,-2.605 -0.274982,0.021 -0.481649,0.261 -0.46065,0.536 0.022,0.275 0.257663,0.501 0.537645,0.46 6.232595,-0.474 9.914356,2.366 9.950353,2.395 0.09299,0.07 0.201987,0.106 0.30998,0.106 z m -8.867424,-4.663 c 0.049,0 0.09999,-0.007 0.148991,-0.022 4.789689,-1.497 8.736432,-0.347 8.77643,-0.336 0.264982,0.081 0.542964,-0.07 0.622959,-0.335 0.07899,-0.265 -0.071,-0.543 -0.334978,-0.622 -0.172989,-0.052 -4.285722,-1.247 -9.361392,0.338 -0.263983,0.083 -0.410973,0.363 -0.327979,0.627 0.066,0.213 0.262983,0.35 0.475969,0.35 z"/><path fill="#e75a70" d="m 19.4,24.807 h -2.8 c -0.64,0 -1.163,0.523 -1.163,1.163 0,0.639 0.523,1.163 1.163,1.163 h 0.237 v 0.345 c 0,0.639 0.523,1.163 1.163,1.163 0.64,0 1.163,-0.523 1.163,-1.163 V 27.133 H 19.4 c 0.639,0 1.163,-0.523 1.163,-1.163 0,-0.64 -0.524,-1.163 -1.163,-1.163 z"/><path fill="#dd2e44" d="m 17.142494,6.8823729 c -0.03822,-0.043556 -0.09778,-0.067556 -0.167997,-0.080889 0,0 -14.1544494,-2.6871109 -14.7668844,-2.1466665 -0.6115462,0.5413333 0.3226617,14.9191096 0.3226617,14.9191096 0.00444,0.072 0.020444,0.133334 0.059555,0.176889 0.5368807,0.608 4.2292685,-1.781333 8.2478727,-5.334221 4.019494,-3.553778 6.841673,-6.9262223 6.304792,-7.5342221 z"/><path fill="#ea596e" d="M 2.1827241,4.7054843 C 2.169391,4.7321509 2.1578355,4.7685954 2.1489468,4.8148176 2.2902779,6.0334841 3.6555903,16.061039 4.5062439,19.195261 5.7826688,18.481483 7.0795378,17.511705 8.60307,16.303706 7.3088676,13.934817 2.9018241,4.5943732 2.1827241,4.7054843 Z"/><ellipse cx="17.999166" cy="31.285196" fill="#292f33" rx="1.7777776" ry="2.2222221"/><path fill="#292f33" d="m 23.421055,19.286002 c -1.041783,0 -2.262233,0.223149 -3.58935,0.88726 -0.439113,0.219593 -0.616891,0.753904 -0.397334,1.193089 0.220445,0.439185 0.75378,0.616992 1.192893,0.3974 3.022236,-1.511364 5.243579,-0.112019 5.336913,-0.05245 0.408891,0.264933 0.960892,0.151136 1.22845,-0.256932 0.268445,-0.408069 0.159111,-0.954826 -0.247113,-1.225983 -0.08533,-0.05601 -1.449784,-0.942381 -3.524459,-0.942381 z"/><path fill="#292f33" d="m 11.704559,19.286002 c -2.0755651,0 -3.4400155,0.886372 -3.5235715,0.942381 -0.4080018,0.272045 -0.5182245,0.824137 -0.2462233,1.233095 0.2720012,0.408958 0.8231147,0.520087 1.2328943,0.246263 0.088,-0.0569 2.3128995,-1.454466 5.3315785,0.05512 0.440002,0.219592 0.973338,0.0409 1.192895,-0.3974 0.219556,-0.439185 0.04178,-0.973496 -0.397336,-1.193088 C 13.965902,19.509149 12.745452,19.286 11.704559,19.286 Z"/><path fill="#3b88c3" d="m 28.651578,34.155417 -9.398221,-1.158222 c -1.004444,-0.09067 -2.770666,-0.09955 -2.68,-1.690666 0.08267,-1.442667 1.813334,-1.220445 3.092445,-1.031111 l 9.455999,1.576888 z"/><path fill="#88c9f9" d="M 29.120912,31.853195 25.368023,31.20964 c -0.439111,-0.07911 -0.830222,0.575111 -0.849777,1.267555 -0.02222,0.769778 0.201777,1.159111 0.645333,1.249778 l 3.683555,0.455111 z"/><path fill="#3b88c3" d="m 33.110245,31.588306 -2.330667,2.143111 -4.166222,-4.530666 2.330667,-2.143111 c 1.209778,-1.112889 3.110222,-1.032889 4.223111,0.176889 l 0.12,0.130667 c 1.111999,1.210666 1.032888,3.110222 -0.176889,4.22311 z"/><ellipse cx="-0.17471947" cy="42.586155" fill="#88c9f9" rx="2.4622219" ry="3.077333" transform="rotate(-42.597)"/><ellipse cx="-0.17471947" cy="42.586155" fill="#226699" rx="1.2311109" ry="1.8462219" transform="rotate(-42.597)"/><circle cx="5.2222238" cy="31.777777" r="1.3333333" fill="#55acee"/><circle cx="28.777777" cy="3.7777791" r="1.7777776" fill="#55acee"/><path fill="#ea596e" d="M 7.3235567,27.996443 5.2453347,23.004444 3.3662238,28.377777 Z M 26.11111,6.4444456 22.555555,7.3333344 23.444444,3.7777792 Z"/><path fill="#77b255" d="M 31.443554,13.555556 34.999998,9.1102231 32.333332,7.3333344 Z"/></svg>
