<svg xmlns="http://www.w3.org/2000/svg" viewBox="0 0 36 36"><path fill="#ffcc4d" d="m 32.348,13.999 c 0,0 3.445,-8.812 1.651,-11.998 -0.604,-1.073 -8,1.998 -10.723,5.442 0,0 -2.586,-0.86 -5.276,-0.86 -2.69,0 -5.276,0.86 -5.276,0.86 C 10.001,3.999 2.605,0.928 2.001,2.001 0.207,5.187 3.652,13.999 3.652,13.999 c -0.897,1.722 -1.233,4.345 -1.555,7.16 -0.354,3.086 0.35,5.546 0.658,6.089 0.35,0.617 2.123,2.605 4.484,4.306 C 10.826,34.137 16.206,35 18,35 c 1.794,0 7.174,-0.862 10.761,-3.446 2.361,-1.701 4.134,-3.689 4.484,-4.306 0.308,-0.543 1.011,-3.003 0.658,-6.089 -0.324,-2.814 -0.658,-5.438 -1.555,-7.16 z"/><path fill="#f18f26" d="m 2.359,2.971 c 0.2,-0.599 5.348,2.173 6.518,5.404 0,0 -3.808,2.624 -4.528,4.624 0,0 -2.99,-7.028 -1.99,-10.028 z"/><path fill="#ffcc4d" d="m 5.98,7.261 c 0,-1.414 5.457,2.733 4.457,3.733 -1,1 -1.255,0.72 -2.255,1.72 -1,1 -2.202,-4.453 -2.202,-5.453 z"/><path fill="#f18f26" d="m 33.641,2.971 c -0.2,-0.599 -5.348,2.173 -6.518,5.404 0,0 3.808,2.624 4.528,4.624 0,0 2.99,-7.028 1.99,-10.028 z"/><path fill="#ffcc4d" d="m 30.02,7.261 c 0,-1.414 -5.457,2.733 -4.457,3.733 1,1 1.255,0.72 2.255,1.72 1,1 2.202,-4.453 2.202,-5.453 z"/><path fill="#fee7b8" d="m 2.2020267,30.458751 c -0.1479904,0 -0.2939809,-0.065 -0.3929745,-0.19 -0.1709889,-0.217 -0.1339913,-0.531 0.082995,-0.702 0.1619895,-0.127 4.0197388,-3.12 10.6473078,-2.605 0.274982,0.021 0.481643,0.261249 0.460645,0.536249 -0.021,0.275 -0.257659,0.500751 -0.53764,0.459751 -6.2325946,-0.474 -9.9143554,2.366 -9.9503531,2.395 -0.092994,0.07 -0.2019868,0.106 -0.3099802,0.106 z m 8.8674233,-4.663 c -0.049,0 -0.09999,-0.007 -0.14899,-0.022 -4.7896886,-1.497 -8.7364321,-0.347 -8.7764295,-0.336 -0.2649828,0.081 -0.5429648,-0.07 -0.6229596,-0.335 -0.078995,-0.265 0.070995,-0.543 0.3349783,-0.622 0.1729887,-0.052 4.2857215,-1.247 9.3613918,0.338 0.263982,0.083 0.410973,0.363 0.327978,0.627 -0.066,0.213 -0.262983,0.35 -0.475969,0.35 z m 22.728523,4.663 c 0.147991,0 0.293981,-0.065 0.392975,-0.19 0.170989,-0.217 0.133991,-0.531 -0.08299,-0.702 -0.161989,-0.127 -4.019739,-3.12 -10.647308,-2.605 -0.274982,0.021 -0.481649,0.261 -0.46065,0.536 0.022,0.275 0.257663,0.501 0.537645,0.46 6.232595,-0.474 9.914356,2.366 9.950353,2.395 0.09299,0.07 0.201987,0.106 0.30998,0.106 z m -8.867424,-4.663 c 0.049,0 0.09999,-0.007 0.148991,-0.022 4.789689,-1.497 8.736432,-0.347 8.77643,-0.336 0.264982,0.081 0.542964,-0.07 0.622959,-0.335 0.07899,-0.265 -0.071,-0.543 -0.334978,-0.622 -0.172989,-0.052 -4.285722,-1.247 -9.361392,0.338 -0.263983,0.083 -0.410973,0.363 -0.327979,0.627 0.066,0.213 0.262983,0.35 0.475969,0.35 z"/><path fill="#67757f" d="m 18,26.613281 c -0.276,0 -0.488281,0.224001 -0.488281,0.5 v 2.373047 c -0.809999,0.115 -1.346407,0.440141 -1.816407,0.744141 -0.567999,0.366999 -1.059985,0.683593 -2.083984,0.683593 -0.481999,0 -1.004641,-0.103547 -1.55664,-0.310546 -0.258,-0.095 -0.548532,0.03592 -0.644532,0.294922 -0.097,0.258999 0.03497,0.547531 0.292969,0.644531 0.663999,0.247 1.307204,0.371093 1.908203,0.371093 1.318999,0 2.013954,-0.44775 2.626953,-0.84375 0.524,-0.338999 0.89372,-0.630765 1.761719,-0.634765 0.867999,0.004 1.237719,0.295766 1.761719,0.634765 0.612999,0.396 1.307954,0.84375 2.626953,0.84375 0.600999,0 1.244204,-0.124093 1.908203,-0.371093 0.258,-0.097 0.389969,-0.385532 0.292969,-0.644531 -0.096,-0.259 -0.386532,-0.389922 -0.644532,-0.294922 -0.551999,0.206999 -1.074641,0.310546 -1.55664,0.310546 -1.023999,0 -1.515985,-0.316594 -2.083984,-0.683593 -0.47,-0.304 -1.006408,-0.629141 -1.816407,-0.744141 v -2.373047 c 0,-0.275999 -0.212281,-0.5 -0.488281,-0.5 z"/><path fill="#e75a70" d="m 19.4,24.807 h -2.8 c -0.64,0 -1.163,0.523 -1.163,1.163 0,0.639 0.523,1.163 1.163,1.163 h 0.237 v 0.345 c 0,0.639 0.523,1.163 1.163,1.163 0.64,0 1.163,-0.523 1.163,-1.163 V 27.133 H 19.4 c 0.639,0 1.163,-0.523 1.163,-1.163 0,-0.64 -0.524,-1.163 -1.163,-1.163 z"/><path fill="#292f33" d="m 27.460972,22.957014 c -0.164187,0 -0.329953,-0.05052 -0.472038,-0.156291 -0.03,-0.02289 -3.008255,-2.21097 -6.631423,-2.21097 -0.318901,0 -0.607808,-0.191813 -0.729369,-0.48703 -0.122351,-0.295216 -0.05447,-0.634636 0.171291,-0.860391 2.57016,-2.569336 6.698519,-2.599331 6.872967,-2.599331 0.435728,0 0.787783,0.352839 0.788572,0.787771 7.89e-4,0.435721 -0.352055,0.789351 -0.786993,0.79093 -0.02842,0 -2.196792,0.02131 -4.150461,1.000896 3.082455,0.592013 5.298981,2.229916 5.411071,2.315165 0.348108,0.261274 0.419151,0.754618 0.158661,1.103512 -0.154714,0.20602 -0.391523,0.315738 -0.632278,0.315739 z"/><path fill="#292f33" d="m 7.63295,22.957803 c -0.239966,0 -0.476774,-0.10893 -0.632278,-0.315739 -0.2620679,-0.348105 -0.1910254,-0.843027 0.157872,-1.104301 0.112879,-0.08446 2.329405,-1.723153 5.41186,-2.315166 -1.953669,-0.979584 -4.122044,-1.000896 -4.149671,-1.000896 -0.435728,-0.0016 -0.788572,-0.355208 -0.787783,-0.79093 0,-0.434932 0.352845,-0.787771 0.788572,-0.787771 0.174449,0 4.303597,0.03 6.872967,2.599331 0.225757,0.225753 0.293642,0.565174 0.171291,0.860392 -0.12235,0.295217 -0.410467,0.487029 -0.729369,0.487029 -3.641323,0 -6.601427,2.188079 -6.630634,2.210181 -0.142085,0.106562 -0.30864,0.15787 -0.472827,0.15787 z"/><path fill="#ccd6dd" d="m 17.73563,26.379385 c 1.473116,1.471996 -2.186022,8.539338 -2.887925,9.241232 -0.577585,0.577576 -2.31034,0.577576 -2.887925,-0.577577 -0.577585,-1.155154 -2.310339,0 -2.8879239,-0.577576 -1.1551698,-1.155155 0.5775849,-1.732732 0,-2.887886 C 8.4942712,30.422424 7.3391014,29.844847 8.4942712,28.689693 9.649441,27.534539 12.537365,28.112116 14.27012,26.956961 c 1.732755,-1.155154 2.887374,-1.155154 3.46551,-0.577576 z"/><path fill="#f5f8fa" d="m 17.139342,27.390969 c -0.0088,-0.0341 -0.02916,-0.06216 -0.04346,-0.09351 -0.0165,-0.03631 -0.02751,-0.07426 -0.05171,-0.106715 -0.08856,-0.119916 -0.222782,-0.205726 -0.381756,-0.22828 h -5.5e-4 c -0.07536,-0.01045 -0.150722,-0.0061 -0.223333,0.0121 -0.05006,0.01266 -0.09296,0.03906 -0.13697,0.06436 -0.0209,0.01155 -0.04401,0.0165 -0.06326,0.0308 -0.06106,0.04511 -0.113317,0.101762 -0.152923,0.167772 -1.613937,2.689858 -5.468904,4.369782 -5.507959,4.386835 -0.293193,0.125966 -0.428513,0.465362 -0.302545,0.758552 0.09406,0.218928 0.306945,0.349846 0.530828,0.349846 0.07591,0 0.152923,-0.01485 0.227184,-0.04676 0.122668,-0.05281 2.230578,-0.973631 4.08435,-2.591947 -1.137567,2.104031 -2.876923,3.297691 -2.900576,3.314193 -0.264589,0.177673 -0.33555,0.535771 -0.158424,0.800907 0.111667,0.166122 0.294294,0.256884 0.480771,0.256884 0.110016,0 0.221132,-0.03135 0.319597,-0.09681 0.150172,-0.100663 3.687192,-2.502284 4.294481,-6.751601 0.0099,-0.07701 0.0049,-0.153471 -0.01375,-0.22663 z"/></svg>
