<svg xmlns="http://www.w3.org/2000/svg" viewBox="0 0 36 36"><path fill="#ffd983" d="m 32.348,13.999 c 0,0 3.445,-8.812 1.651,-11.998 -0.604,-1.073 -8,1.998 -10.723,5.442 0,0 -2.586,-0.86 -5.276,-0.86 -2.69,0 -5.276,0.86 -5.276,0.86 C 10.001,3.999 2.605,0.928 2.001,2.001 0.207,5.187 3.652,13.999 3.652,13.999 c -0.897,1.722 -1.233,4.345 -1.555,7.16 -0.354,3.086 0.35,5.546 0.658,6.089 0.35,0.617 2.123,2.605 4.484,4.306 C 10.826,34.137 16.206,35 18,35 c 1.794,0 7.174,-0.862 10.761,-3.446 2.361,-1.701 4.134,-3.689 4.484,-4.306 0.308,-0.543 1.011,-3.003 0.658,-6.089 -0.324,-2.814 -0.658,-5.438 -1.555,-7.16 z"/><circle cx="19.777779" cy="19.840113" r="2.6666667" fill="#ffcc4d"/><circle cx="23.777779" cy="30.062334" r="3.1111112" fill="#ffcc4d"/><ellipse cx="21.555555" cy="9.1734447" fill="#ffcc4d" rx="1.7777778" ry="1.7777779"/><ellipse cx="4.666666" cy="20.729" fill="#ffcc4d" rx="0.8888889" ry="0.88888896"/><ellipse cx="15.333333" cy="32.284557" fill="#ffcc4d" rx="0.8888889" ry="0.88888896"/><ellipse cx="30.444445" cy="21.617889" fill="#ffcc4d" rx="1.7777778" ry="1.7777779"/><ellipse cx="10.888888" cy="25.173445" fill="#ffcc4d" rx="1.7777778" ry="1.7777779"/><path fill="#ffcc4d" d="M2.359 2.971c.2-.599 5.348 2.173 6.518 5.404 0 0-3.808 2.624-4.528 4.624 0 0-2.99-7.028-1.99-10.028z"/><path fill="#ffd983" d="M5.98 7.261c0-1.414 5.457 2.733 4.457 3.733s-1.255.72-2.255 1.72S5.98 8.261 5.98 7.261z"/><path fill="#ffcc4d" d="M33.641 2.971c-.2-.599-5.348 2.173-6.518 5.404 0 0 3.808 2.624 4.528 4.624 0 0 2.99-7.028 1.99-10.028z"/><path fill="#ffd983" d="M30.02 7.261c0-1.414-5.457 2.733-4.457 3.733s1.255.72 2.255 1.72 2.202-4.453 2.202-5.453z"/><path fill="#292f33" d="m 26,20 c 0,1.105553 -0.896,2 -2,2 -1.105,0 -2,-0.894447 -2,-2 0,-1.104552 0.895,-2 2,-2 1.105,0 2,0.896448 2,2 z"/><path d="m 14,20 c 0,1.105553 -0.896,2 -2,2 -1.104,0 -2,-0.894447 -2,-2 0,-1.104552 0.896,-2 2,-2 1.104,0 2,0.896448 2,2 z" style="fill:#292f33;fill-opacity:1;stroke-width:1.00025"/><path fill="#fee7b8" d="m 2.2020267,30.458751 c -0.1479904,0 -0.2939809,-0.065 -0.3929745,-0.19 -0.1709889,-0.217 -0.1339913,-0.531 0.082995,-0.702 0.1619895,-0.127 4.0197388,-3.12 10.6473078,-2.605 0.274982,0.021 0.481643,0.261249 0.460645,0.536249 -0.021,0.275 -0.257659,0.500751 -0.53764,0.459751 -6.2325946,-0.474 -9.9143554,2.366 -9.9503531,2.395 -0.092994,0.07 -0.2019868,0.106 -0.3099802,0.106 z m 8.8674233,-4.663 c -0.049,0 -0.09999,-0.007 -0.14899,-0.022 -4.7896886,-1.497 -8.7364321,-0.347 -8.7764295,-0.336 -0.2649828,0.081 -0.5429648,-0.07 -0.6229596,-0.335 -0.078995,-0.265 0.070995,-0.543 0.3349783,-0.622 0.1729887,-0.052 4.2857215,-1.247 9.3613918,0.338 0.263982,0.083 0.410973,0.363 0.327978,0.627 -0.066,0.213 -0.262983,0.35 -0.475969,0.35 z m 22.728523,4.663 c 0.147991,0 0.293981,-0.065 0.392975,-0.19 0.170989,-0.217 0.133991,-0.531 -0.08299,-0.702 -0.161989,-0.127 -4.019739,-3.12 -10.647308,-2.605 -0.274982,0.021 -0.481649,0.261 -0.46065,0.536 0.022,0.275 0.257663,0.501 0.537645,0.46 6.232595,-0.474 9.914356,2.366 9.950353,2.395 0.09299,0.07 0.201987,0.106 0.30998,0.106 z m -8.867424,-4.663 c 0.049,0 0.09999,-0.007 0.148991,-0.022 4.789689,-1.497 8.736432,-0.347 8.77643,-0.336 0.264982,0.081 0.542964,-0.07 0.622959,-0.335 0.07899,-0.265 -0.071,-0.543 -0.334978,-0.622 -0.172989,-0.052 -4.285722,-1.247 -9.361392,0.338 -0.263983,0.083 -0.410973,0.363 -0.327979,0.627 0.066,0.213 0.262983,0.35 0.475969,0.35 z"/><path fill="#67757f" d="M 18 26.613281 C 17.724 26.613281 17.511719 26.837282 17.511719 27.113281 L 17.511719 29.486328 C 16.70172 29.601328 16.165312 29.926469 15.695312 30.230469 C 15.127313 30.597468 14.635327 30.914062 13.611328 30.914062 C 13.129329 30.914062 12.606687 30.810515 12.054688 30.603516 C 11.796688 30.508516 11.506156 30.639438 11.410156 30.898438 C 11.313156 31.157437 11.445125 31.445969 11.703125 31.542969 C 12.367124 31.789969 13.010329 31.914062 13.611328 31.914062 C 14.930327 31.914062 15.625282 31.466312 16.238281 31.070312 C 16.762281 30.731313 17.132001 30.439547 18 30.435547 C 18.867999 30.439547 19.237719 30.731313 19.761719 31.070312 C 20.374718 31.466312 21.069673 31.914062 22.388672 31.914062 C 22.989671 31.914062 23.632876 31.789969 24.296875 31.542969 C 24.554875 31.445969 24.686844 31.157437 24.589844 30.898438 C 24.493844 30.639438 24.203312 30.508516 23.945312 30.603516 C 23.393313 30.810515 22.870671 30.914062 22.388672 30.914062 C 21.364673 30.914062 20.872687 30.597468 20.304688 30.230469 C 19.834688 29.926469 19.29828 29.601328 18.488281 29.486328 L 18.488281 27.113281 C 18.488281 26.837282 18.276 26.613281 18 26.613281 z"/><path fill="#E75A70" d="M19.4 24.807h-2.8c-.64 0-1.163.523-1.163 1.163 0 .639.523 1.163 1.163 1.163h.237v.345c0 .639.523 1.163 1.163 1.163s1.163-.523 1.163-1.163v-.345h.237c.639 0 1.163-.523 1.163-1.163s-.524-1.163-1.163-1.163z"/><circle cx="11.333333" cy="12.284556" r="3.1111112" fill="#ffcc4d"/><ellipse cx="28.666668" cy="12.729" fill="#ffcc4d" rx="0.8888889" ry="0.88888896"/></svg>
