<svg xmlns="http://www.w3.org/2000/svg" viewBox="0 0 36 36"><path fill="#ffcc4d" d="m 29.87687,18.620001 c 0,0 2.851674,-7.294325 1.366651,-9.9316061 -0.499974,-0.8881991 -6.622174,1.6538881 -8.876197,4.5047341 0,0 -2.140618,-0.711884 -4.367324,-0.711884 -2.226706,0 -4.367324,0.711884 -4.367324,0.711884 C 11.378653,10.342283 5.2564528,7.8001958 4.7564786,8.6883949 3.271456,11.325676 6.1231299,18.620001 6.1231299,18.620001 c -0.7425113,1.425423 -1.0206427,2.768897 -1.2871852,5.099075 -0.2930312,2.554503 0.2897201,4.590822 0.5446739,5.040302 0.2897201,0.510735 1.7573595,2.156346 3.7117288,3.564386 2.9692176,2.138134 7.4226296,2.852501 8.9076526,2.852501 1.485023,0 5.938435,-0.713539 8.907653,-2.852501 1.954369,-1.40804 3.422008,-3.053651 3.711728,-3.564386 0.254954,-0.44948 0.836878,-2.485799 0.544674,-5.040302 -0.268198,-2.32935 -0.544674,-3.673652 -1.287185,-5.099075 z"/><path fill="#f18f26" d="m 5.0528209,9.4913336 c 0.1655544,-0.4958353 4.4269237,1.7987484 5.3954171,4.4732784 0,0 -3.1521554,2.172074 -3.7481512,3.827617 0,0 -2.4750377,-5.81758 -1.6472659,-8.3008954 z"/><path fill="#ffcc4d" d="m 8.0501827,13.042475 c 0,-1.17047 4.5171513,2.2623 3.6893793,3.090072 -0.827772,0.827772 -1.038854,0.595996 -1.8666258,1.423767 -0.8277718,0.827772 -1.8227535,-3.686068 -1.8227535,-4.513839 z"/><path fill="#f18f26" d="m 30.947179,9.4913336 c -0.165554,-0.4958353 -4.426924,1.7987484 -5.395417,4.4732784 0,0 3.152155,2.172074 3.748151,3.827617 0,0 2.475038,-5.81758 1.647266,-8.3008954 z"/><path fill="#ffcc4d" d="m 27.949817,13.042475 c 0,-1.17047 -4.517151,2.2623 -3.689379,3.090072 0.827772,0.827772 1.038854,0.595996 1.866626,1.423767 0.827772,0.827772 1.822753,-3.686068 1.822753,-4.513839 z"/><path fill="#fee7b8" d="m 4.9228828,31.417147 c -0.1225022,0 -0.2433491,-0.05381 -0.3252932,-0.157276 -0.1415398,-0.179627 -0.1109142,-0.439547 0.068701,-0.581096 0.1340903,-0.105127 3.3274265,-2.582648 8.8135414,-2.156346 0.227622,0.01738 0.39869,0.216255 0.381309,0.443892 -0.01738,0.227637 -0.213283,0.414508 -0.445043,0.380569 -5.1591666,-0.392364 -8.2068244,1.958508 -8.2366223,1.982514 -0.076978,0.05794 -0.167199,0.08774 -0.2565929,0.08774 z m 7.3402032,-3.8599 c -0.04056,0 -0.08277,-0.0058 -0.12333,-0.01821 C 8.174987,26.299862 4.9079839,27.2518 4.8748752,27.260905 c -0.2193453,0.06705 -0.4494509,-0.05794 -0.5156684,-0.277304 -0.06539,-0.219359 0.058768,-0.44948 0.2772856,-0.514874 0.1431952,-0.04304 3.5475995,-1.032231 7.7490966,0.279787 0.218517,0.06871 0.340192,0.300481 0.271491,0.519013 -0.05463,0.176316 -0.21769,0.28972 -0.393994,0.28972 z m 18.814031,3.8599 c 0.122503,0 0.243349,-0.05381 0.325293,-0.157276 0.14154,-0.179627 0.110914,-0.439547 -0.0687,-0.581096 -0.13409,-0.105127 -3.327427,-2.582648 -8.813542,-2.156346 -0.227622,0.01738 -0.398695,0.216049 -0.381313,0.443686 0.01821,0.227637 0.213286,0.414714 0.445047,0.380775 5.159167,-0.392364 8.206825,1.958508 8.236622,1.982514 0.07698,0.05794 0.167199,0.08774 0.256593,0.08774 z m -7.340204,-3.8599 c 0.04056,0 0.08277,-0.0058 0.123331,-0.01821 3.964769,-1.239174 7.231772,-0.287236 7.264881,-0.278131 0.219345,0.06705 0.44945,-0.05794 0.515668,-0.277304 0.06539,-0.219359 -0.05877,-0.44948 -0.277285,-0.514874 -0.143196,-0.04304 -3.5476,-1.032231 -7.749097,0.279787 -0.218518,0.06871 -0.340192,0.300481 -0.271492,0.519013 0.05463,0.176316 0.21769,0.28972 0.393994,0.28972 z"/><path fill="#67757f" d="m 18,28.233976 c -0.228465,0 -0.404185,0.185421 -0.404185,0.413886 v 1.964341 c -0.670495,0.09519 -1.114518,0.364336 -1.503571,0.615979 -0.470173,0.303791 -0.877426,0.565859 -1.725063,0.565859 -0.398985,0 -0.831614,-0.08571 -1.288543,-0.257061 -0.213565,-0.07864 -0.454059,0.02973 -0.533525,0.244128 -0.08029,0.214392 0.02895,0.453231 0.242511,0.533524 0.54964,0.20446 1.082067,0.307181 1.579557,0.307181 1.09183,0 1.667094,-0.370635 2.174518,-0.698433 0.433752,-0.280614 0.739796,-0.522129 1.458301,-0.52544 0.718505,0.0033 1.024549,0.244826 1.458301,0.52544 0.507424,0.327798 1.082688,0.698433 2.174518,0.698433 0.49749,0 1.029917,-0.102721 1.579557,-0.307181 0.213565,-0.08029 0.322805,-0.319132 0.242511,-0.533524 -0.07947,-0.214393 -0.31996,-0.322767 -0.533525,-0.244128 -0.45693,0.171348 -0.889558,0.257061 -1.288543,0.257061 -0.847638,0 -1.25489,-0.262068 -1.725063,-0.565859 -0.389053,-0.251643 -0.833076,-0.520785 -1.503571,-0.615979 v -1.964341 c 0,-0.228465 -0.17572,-0.413886 -0.404185,-0.413886 z"/><path fill="#e75a70" d="m 19.158881,26.738787 h -2.317762 c -0.529774,0 -0.962698,0.432925 -0.962698,0.962699 0,0.528946 0.432924,0.962698 0.962698,0.962698 h 0.196182 v 0.285582 c 0,0.528946 0.432925,0.962698 0.962699,0.962698 0.529774,0 0.962699,-0.432924 0.962699,-0.962698 v -0.285582 h 0.196182 c 0.528946,0 0.962698,-0.432924 0.962698,-0.962698 0,-0.529774 -0.433752,-0.962699 -0.962698,-0.962699 z"/><path fill="#f4900c" d="m 24.622175,8.5825809 c 0,-3.6570463 -2.964817,-6.6221746 -6.621973,-6.6221746 -3.657558,0 -6.622377,2.9647269 -6.622377,6.6221746 0,3.6574471 2.964819,6.6221731 6.622377,6.6221731 3.657156,0 6.621973,-2.964726 6.621973,-6.6221731 z"/><path fill="#662113" d="m 14.753939,3.8003891 c -0.107151,-0.107146 -0.319846,-0.079052 -0.543779,0.048152 -1.324331,-1.096335 -3.472558,-1.4655253 -3.569675,-1.4815767 -0.219117,-0.035718 -0.424991,0.1111582 -0.46151,0.3294615 -0.03652,0.2183041 0.110762,0.4253721 0.329478,0.4618901 0.02127,0.00364 1.980077,0.342705 3.138666,1.2680884 -0.110361,0.2106787 -0.130026,0.4073126 -0.0281,0.5088405 0.156513,0.1569058 0.53776,0.029692 0.851185,-0.2837147 0.313425,-0.3130095 0.440239,-0.6942389 0.283728,-0.8511439 z"/><path fill="#5c913b" d="m 18.601544,1.1576456 c 0,0 -1.246574,1.7326249 -2.817836,2.1158245 -1.195603,0.2917143 -2.784523,0.3198014 -2.943054,-0.049352 -0.15813,-0.3687549 0.630913,-1.579747 1.994278,-2.1639768 1.363365,-0.5838274 3.766612,0.097506 3.766612,0.097506 z"/><path fill="#292f33" d="m 15.898797,23.530068 c -0.04415,-0.09933 -1.10296,-1.965683 -3.279448,-1.965683 -2.175752,0 -3.2352996,1.866352 -3.2794472,1.965683 -0.067695,0.152311 -0.023542,0.330373 0.1059548,0.434856 0.1302367,0.10522 0.3141858,0.108163 0.4488361,0.0103 0.00957,-0.0065 0.9285763,-0.663686 2.7246563,-0.663686 1.785044,0 2.703319,0.648236 2.723921,0.662952 0.06475,0.04857 0.142009,0.07284 0.219267,0.07284 0.08094,0 0.162612,-0.02723 0.228834,-0.0802 0.131707,-0.104483 0.175119,-0.284018 0.107426,-0.437062 z"/><path fill="#292f33" d="m 26.659831,23.530068 c -0.04415,-0.09933 -1.10296,-1.965683 -3.279448,-1.965683 -2.175752,0 -3.2353,1.866352 -3.279448,1.965683 -0.0677,0.152311 -0.02354,0.330373 0.105955,0.434856 0.130236,0.10522 0.314186,0.108163 0.448836,0.0103 0.0096,-0.0065 0.928576,-0.663686 2.724657,-0.663686 1.785044,0 2.703319,0.648236 2.723921,0.662952 0.06475,0.04857 0.142008,0.07284 0.219268,0.07284 0.08094,0 0.162611,-0.02723 0.228832,-0.0802 0.131708,-0.104483 0.17512,-0.284018 0.107427,-0.437062 z"/></svg>
