<svg xmlns="http://www.w3.org/2000/svg" viewBox="0 0 36 36"><path d="M 2.5234375,1.7851562 C 2.2580803,1.7971465 2.077453,1.8678283 2.0019531,2.0019531 0.20795492,5.1879499 3.6523438,14 3.6523438,14 v 20 c 5.51e-5,0.552261 0.4477386,0.999945 1,1 H 18 31.347656 c 0.552262,-5.5e-5 0.999945,-0.447739 1,-1 V 14 c 0,0 3.444389,-8.8120501 1.650391,-11.9980469 C 33.44507,1.019595 27.209235,3.5112946 24.068359,6.5820312 H 18 11.931641 C 9.2195998,3.9305532 4.2016107,1.7093276 2.5234375,1.7851562 Z" style="color:#000;fill:#ffcc4d;fill-rule:evenodd;stroke-linecap:round;stroke-linejoin:round;-inkscape-stroke:none;paint-order:stroke fill markers"/><path fill="#f18f26" d="m 2.359,2.971 c 0.2,-0.599 5.348,2.173 6.518,5.404 0,0 -3.808,2.624 -4.528,4.624 0,0 -2.99,-7.028 -1.99,-10.028 z"/><path fill="#ffcc4d" d="m 5.98,7.261 c 0,-1.414 5.457,2.733 4.457,3.733 -1,1 -1.255,0.72 -2.255,1.72 -1,1 -2.202,-4.453 -2.202,-5.453 z"/><path fill="#f18f26" d="m 33.641,2.971 c -0.2,-0.599 -5.348,2.173 -6.518,5.404 0,0 3.808,2.624 4.528,4.624 0,0 2.99,-7.028 1.99,-10.028 z"/><path fill="#ffcc4d" d="m 30.02,7.261 c 0,-1.414 -5.457,2.733 -4.457,3.733 1,1 1.255,0.72 2.255,1.72 1,1 2.202,-4.453 2.202,-5.453 z"/><path d="m 26,20 c 0,1.105553 -0.896,2 -2,2 -1.105,0 -2,-0.894447 -2,-2 0,-1.104552 0.895,-2 2,-2 1.105,0 2,0.896448 2,2 z" style="fill:#292f33;fill-opacity:1;stroke-width:1.00025"/><path d="m 14,20 c 0,1.105553 -0.896,2 -2,2 -1.104,0 -2,-0.894447 -2,-2 0,-1.104552 0.896,-2 2,-2 1.104,0 2,0.896448 2,2 z" style="fill:#292f33;fill-opacity:1;stroke-width:1.00025"/><path fill="#fee7b8" d="m 2.2020267,30.458751 c -0.1479904,0 -0.2939809,-0.065 -0.3929745,-0.19 -0.1709889,-0.217 -0.1339913,-0.531 0.082995,-0.702 0.1619895,-0.127 4.0197388,-3.12 10.6473078,-2.605 0.274982,0.021 0.481643,0.261249 0.460645,0.536249 -0.021,0.275 -0.257659,0.500751 -0.53764,0.459751 -6.2325946,-0.474 -9.9143554,2.366 -9.9503531,2.395 -0.092994,0.07 -0.2019868,0.106 -0.3099802,0.106 z m 8.8674233,-4.663 c -0.049,0 -0.09999,-0.007 -0.14899,-0.022 -4.7896886,-1.497 -8.7364321,-0.347 -8.7764295,-0.336 -0.2649828,0.081 -0.5429648,-0.07 -0.6229596,-0.335 -0.078995,-0.265 0.070995,-0.543 0.3349783,-0.622 0.1729887,-0.052 4.2857215,-1.247 9.3613918,0.338 0.263982,0.083 0.410973,0.363 0.327978,0.627 -0.066,0.213 -0.262983,0.35 -0.475969,0.35 z m 22.728523,4.663 c 0.147991,0 0.293981,-0.065 0.392975,-0.19 0.170989,-0.217 0.133991,-0.531 -0.08299,-0.702 -0.161989,-0.127 -4.019739,-3.12 -10.647308,-2.605 -0.274982,0.021 -0.481649,0.261 -0.46065,0.536 0.022,0.275 0.257663,0.501 0.537645,0.46 6.232595,-0.474 9.914356,2.366 9.950353,2.395 0.09299,0.07 0.201987,0.106 0.30998,0.106 z m -8.867424,-4.663 c 0.049,0 0.09999,-0.007 0.148991,-0.022 4.789689,-1.497 8.736432,-0.347 8.77643,-0.336 0.264982,0.081 0.542964,-0.07 0.622959,-0.335 0.07899,-0.265 -0.071,-0.543 -0.334978,-0.622 -0.172989,-0.052 -4.285722,-1.247 -9.361392,0.338 -0.263983,0.083 -0.410973,0.363 -0.327979,0.627 0.066,0.213 0.262983,0.35 0.475969,0.35 z" style="stroke-width:.999968"/><path d="m 18,26.613281 c -0.276,0 -0.488281,0.224001 -0.488281,0.5 v 2.373047 c -0.809999,0.115 -1.346407,0.440141 -1.816407,0.744141 -0.567999,0.366999 -1.059985,0.683593 -2.083984,0.683593 -0.481999,0 -1.004641,-0.103547 -1.55664,-0.310546 -0.258,-0.095 -0.548532,0.03592 -0.644532,0.294922 -0.097,0.258999 0.03497,0.547531 0.292969,0.644531 0.663999,0.247 1.307204,0.371093 1.908203,0.371093 1.318999,0 2.013954,-0.44775 2.626953,-0.84375 0.524,-0.338999 0.89372,-0.630765 1.761719,-0.634765 0.867999,0.004 1.237719,0.295766 1.761719,0.634765 0.612999,0.396 1.307954,0.84375 2.626953,0.84375 0.600999,0 1.244204,-0.124093 1.908203,-0.371093 0.258,-0.097 0.389969,-0.385532 0.292969,-0.644531 -0.096,-0.259 -0.386532,-0.389922 -0.644532,-0.294922 -0.551999,0.206999 -1.074641,0.310546 -1.55664,0.310546 -1.023999,0 -1.515985,-0.316594 -2.083984,-0.683593 -0.47,-0.304 -1.006408,-0.629141 -1.816407,-0.744141 v -2.373047 c 0,-0.275999 -0.212281,-0.5 -0.488281,-0.5 z" style="fill:#67757f;fill-opacity:1"/><path fill="#e75a70" d="m 19.4,24.807 h -2.8 c -0.64,0 -1.163,0.523 -1.163,1.163 0,0.639 0.523,1.163 1.163,1.163 h 0.237 v 0.345 c 0,0.639 0.523,1.163 1.163,1.163 0.64,0 1.163,-0.523 1.163,-1.163 V 27.133 H 19.4 c 0.639,0 1.163,-0.523 1.163,-1.163 0,-0.64 -0.524,-1.163 -1.163,-1.163 z"/></svg>
