<svg viewBox="0 0 36 36" version="1.1" xmlns="http://www.w3.org/2000/svg"> <path fill="#FFCC4D" d="M32.348 13.999s3.445-8.812 1.651-11.998c-.604-1.073-8 1.998-10.723 5.442 0 0-2.586-.86-5.276-.86s-5.276.86-5.276.86C10.001 3.999 2.605.928 2.001 2.001.207 5.187 3.652 13.999 3.652 13.999c-.897 1.722-1.233 4.345-1.555 7.16-.354 3.086.35 5.546.658 6.089.35.617 2.123 2.605 4.484 4.306 3.587 2.583 8.967 3.445 10.761 3.445s7.174-.861 10.761-3.445c2.361-1.701 4.134-3.689 4.484-4.306.308-.543 1.012-3.003.659-6.089-.324-2.814-.659-5.438-1.556-7.16z" /> <path fill="#F18F26" d="M2.359 2.971c.2-.599 5.348 2.173 6.518 5.404 0 0-3.808 2.624-4.528 4.624 0 0-2.99-7.028-1.99-10.028z" /> <path fill="#FFCC4D" d="M5.98 7.261c0-1.414 5.457 2.733 4.457 3.733s-1.255.72-2.255 1.72S5.98 8.261 5.98 7.261z" /> <path fill="#F18F26" d="M33.641 2.971c-.2-.599-5.348 2.173-6.518 5.404 0 0 3.808 2.624 4.528 4.624 0 0 2.99-7.028 1.99-10.028z" /> <path fill="#FFCC4D" d="M30.02 7.261c0-1.414-5.457 2.733-4.457 3.733s1.255.72 2.255 1.72 2.202-4.453 2.202-5.453z" /> <path fill="#fee7b8" d="m 2.2020267,30.458751 c -0.1479904,0 -0.2939809,-0.065 -0.3929745,-0.19 -0.1709889,-0.217 -0.1339913,-0.531 0.082995,-0.702 0.1619895,-0.127 4.0197388,-3.12 10.6473078,-2.605 0.274982,0.021 0.481643,0.261249 0.460645,0.536249 -0.021,0.275 -0.257659,0.500751 -0.53764,0.459751 -6.2325946,-0.474 -9.9143554,2.366 -9.9503531,2.395 -0.092994,0.07 -0.2019868,0.106 -0.3099802,0.106 z m 8.8674233,-4.663 c -0.049,0 -0.09999,-0.007 -0.14899,-0.022 -4.7896886,-1.497 -8.7364321,-0.347 -8.7764295,-0.336 -0.2649828,0.081 -0.5429648,-0.07 -0.6229596,-0.335 -0.078995,-0.265 0.070995,-0.543 0.3349783,-0.622 0.1729887,-0.052 4.2857215,-1.247 9.3613918,0.338 0.263982,0.083 0.410973,0.363 0.327978,0.627 -0.066,0.213 -0.262983,0.35 -0.475969,0.35 z m 22.728523,4.663 c 0.147991,0 0.293981,-0.065 0.392975,-0.19 0.170989,-0.217 0.133991,-0.531 -0.08299,-0.702 -0.161989,-0.127 -4.019739,-3.12 -10.647308,-2.605 -0.274982,0.021 -0.481649,0.261 -0.46065,0.536 0.022,0.275 0.257663,0.501 0.537645,0.46 6.232595,-0.474 9.914356,2.366 9.950353,2.395 0.09299,0.07 0.201987,0.106 0.30998,0.106 z m -8.867424,-4.663 c 0.049,0 0.09999,-0.007 0.148991,-0.022 4.789689,-1.497 8.736432,-0.347 8.77643,-0.336 0.264982,0.081 0.542964,-0.07 0.622959,-0.335 0.07899,-0.265 -0.071,-0.543 -0.334978,-0.622 -0.172989,-0.052 -4.285722,-1.247 -9.361392,0.338 -0.263983,0.083 -0.410973,0.363 -0.327979,0.627 0.066,0.213 0.262983,0.35 0.475969,0.35 z" /> <path fill="#67757F" d="M24.736 30.898c-.097-.258-.384-.392-.643-.294-.552.206-1.076.311-1.559.311-1.152 0-1.561-.306-2.033-.659-.451-.338-.956-.715-1.99-.803v-2.339c0-.276-.224-.5-.5-.5s-.5.224-.5.5v2.373c-.81.115-1.346.439-1.816.743-.568.367-1.059.685-2.083.685-.482 0-1.006-.104-1.558-.311-.258-.095-.547.035-.643.294-.097.259.035.547.293.644.664.247 1.306.373 1.907.373 1.319 0 2.014-.449 2.627-.845.524-.339.98-.631 1.848-.635.992.008 1.358.278 1.815.621.538.403 1.147.859 2.633.859.601 0 1.244-.126 1.908-.373.259-.097.391-.385.294-.644z" /> <path fill="#E75A70" d="M19.4 24.807h-2.8c-.64 0-1.163.523-1.163 1.163 0 .639.523 1.163 1.163 1.163h.237v.345c0 .639.523 1.163 1.163 1.163s1.163-.523 1.163-1.163v-.345h.237c.639 0 1.163-.523 1.163-1.163s-.524-1.163-1.163-1.163z" /> <path d="m 26.66582,22.222329 c -0.372444,0 -0.71911,-0.235555 -0.842665,-0.607999 -0.180445,-0.532444 -0.905777,-2.058665 -1.823999,-2.058665 -0.943999,0 -1.679109,1.623999 -1.823998,2.058665 -0.155555,0.464888 -0.654221,0.718221 -1.124443,0.561777 -0.464888,-0.154666 -0.717333,-0.658666 -0.561777,-1.124443 0.111111,-0.335111 1.15911,-3.274664 3.50933,-3.274664 2.350219,0 3.398218,2.939553 3.509329,3.274664 0.155556,0.465777 -0.096,0.969777 -0.561777,1.124443 -0.09244,0.032 -0.186666,0.04622 -0.28,0.04622 z" fill="#292f33"/> <path d="m 14.666017,22.222443 c -0.372444,0 -0.71911,-0.235535 -0.843554,-0.607947 -0.180445,-0.532397 -0.904888,-2.058486 -1.82311,-2.058486 -0.943999,0 -1.67822,1.623858 -1.823109,2.058486 -0.155555,0.464848 -0.6559987,0.718159 -1.1244437,0.561729 -0.465777,-0.154653 -0.717332,-0.658609 -0.561777,-1.124346 0.111111,-0.335081 1.159111,-3.274379 3.5102187,-3.274379 2.351109,0 3.398219,2.939298 3.510219,3.274379 0.155555,0.465737 -0.096,0.969693 -0.561777,1.124346 -0.09422,0.032 -0.189333,0.04622 -0.282667,0.04622 z" fill="#292f33"/> <path fill="#5dadec" d="M 23.608,0.216 C 22.396,0.122 21.135,0.057 19.835,0.026 19.174,0.01 18.507,0 17.831,0 17.159,0 16.495,0.01 15.838,0.025 14.536,0.056 13.274,0.121 12.061,0.215 5.171,0.751 0,2.322 0,5.158 c 0,3.5880003 8.264,5.771 17.831,5.771 9.567,0 17.831,-2.1829997 17.831,-5.771 0,-2.835 -5.168,-4.405 -12.054,-4.942 z m -5.777,7.0380003 c -6.861,0 -12.91,-0.833 -12.91,-2.7360003 0,-0.536 0.494,-1.023 1.339,-1.449 1.153,-0.581 2.978,-1.044 5.189,-1.349 1.911,-0.262 4.098,-0.41 6.382,-0.41 2.291,0 4.485,0.148 6.4,0.413 2.242,0.31 4.086,0.783 5.232,1.377 0.807,0.418 1.278,0.894 1.278,1.418 0,1.9030003 -6.049,2.7360003 -12.91,2.7360003 z" /> </svg> 