<svg xmlns="http://www.w3.org/2000/svg" viewBox="0 0 36 36"><path fill="#ffcc4d" d="m 28.760908,16.47849 c -2.795007,-4.1357 -2.976791,-3.508486 -6.804,-4.917001 0,0 -1.939499,-0.645 -3.957,-0.645 -2.0175,0 -3.957,0.645 -3.957,0.645 -3.023842,0.320049 -4.0735461,0.486224 -6.8039998,4.917001 -0.67275,1.2915 -0.92475,3.25875 -1.1662499,5.37 -0.2655001,2.3145 0.2625,4.1595 0.4934999,4.56675 0.2625001,0.46275 1.59225,1.95375 3.3630001,3.2295 2.6902497,1.93725 6.7252507,2.58375 8.0707497,2.58375 1.3455,0 5.380501,-0.64575 8.070751,-2.58375 1.770749,-1.27575 3.100499,-2.76675 3.363,-3.2295 0.231,-0.40725 0.759,-2.25225 0.494249,-4.56675 -0.242999,-2.1105 -0.494249,-4.0785 -1.167,-5.37 z"/><path fill="#292f33" d="m 15.000658,20.97999 c 0,0.82875 -0.671999,1.49925 -1.499999,1.49925 -0.828001,0 -1.5,-0.6705 -1.5,-1.49925 0,-0.828 0.671999,-1.499251 1.5,-1.499251 0.828,0 1.499999,0.672001 1.499999,1.499251 z m 8.9985,0 c 0,0.82875 -0.671999,1.49925 -1.5,1.49925 -0.82875,0 -1.499999,-0.6705 -1.499999,-1.49925 0,-0.828 0.671249,-1.499251 1.499999,-1.499251 0.828751,0 1.5,0.672001 1.5,1.499251 z"/><path fill="#fee7b8" d="m 6.1506582,28.82274 c -0.111,0 -0.2205,-0.04875 -0.29475,-0.1425 -0.12825,-0.16275 -0.1005,-0.39825 0.06225,-0.5265 0.1215,-0.09525 3.0150001,-2.340001 7.9860008,-1.95375 0.206249,0.01575 0.36075,0.195749 0.344999,0.402 -0.01575,0.206249 -0.19275,0.375749 -0.402749,0.345 -4.6747507,-0.3555 -7.4362507,1.774499 -7.4632508,1.79625 -0.06975,0.0525 -0.1515,0.0795 -0.2325,0.0795 z m 6.6510008,-3.49725 c -0.03675,0 -0.075,-0.0053 -0.11175,-0.0165 -3.5925007,-1.122751 -6.5527507,-0.26025 -6.5827507,-0.252001 -0.1987501,0.06075 -0.4072501,-0.0525 -0.4672501,-0.251249 -0.05925,-0.19875 0.05325,-0.40725 0.25125,-0.4665 0.1297501,-0.039 3.2145,-0.93525 7.0215008,0.253499 0.197999,0.06225 0.30825,0.272251 0.246,0.47025 -0.0495,0.159751 -0.197251,0.262501 -0.357,0.262501 z m 17.0475,3.49725 c 0.111,0 0.2205,-0.04875 0.29475,-0.1425 0.128249,-0.16275 0.1005,-0.39825 -0.06225,-0.5265 -0.1215,-0.09525 -3.015,-2.340001 -7.986001,-1.95375 -0.206249,0.01575 -0.36075,0.195749 -0.344999,0.402 0.0165,0.206249 0.19275,0.375749 0.402749,0.345 4.674751,-0.3555 7.43625,1.774499 7.463251,1.79625 0.06975,0.0525 0.151499,0.0795 0.2325,0.0795 z m -6.651001,-3.49725 c 0.03675,0 0.075,-0.0053 0.11175,-0.0165 3.5925,-1.122751 6.55275,-0.26025 6.582751,-0.252001 0.19875,0.06075 0.40725,-0.0525 0.46725,-0.251249 0.05925,-0.19875 -0.05325,-0.40725 -0.251251,-0.4665 -0.12975,-0.039 -3.214499,-0.93525 -7.021499,0.253499 -0.198001,0.06225 -0.308251,0.272251 -0.246001,0.47025 0.0495,0.159751 0.197251,0.262501 0.357,0.262501 z"/><path fill="#67757f" d="m 23.051909,29.15274 c -0.07275,-0.1935 -0.288,-0.294 -0.48225,-0.2205 -0.414,0.1545 -0.807,0.23325 -1.16925,0.23325 -0.864,0 -1.170751,-0.2295 -1.524751,-0.49425 -0.33825,-0.2535 -0.716999,-0.53625 -1.492499,-0.60225 v -1.75425 c 0,-0.207 -0.168,-0.375 -0.375001,-0.375 -0.206999,0 -0.374999,0.168 -0.374999,0.375 v 1.77975 c -0.607501,0.08625 -1.009501,0.32925 -1.362001,0.55725 -0.426,0.27525 -0.794249,0.51375 -1.56225,0.51375 -0.3615,0 -0.7545,-0.078 -1.1685,-0.23325 -0.1935,-0.07125 -0.41025,0.02625 -0.48225,0.2205 -0.07275,0.19425 0.02625,0.41025 0.219751,0.483 0.497999,0.18525 0.9795,0.27975 1.430249,0.27975 0.98925,0 1.5105,-0.33675 1.97025,-0.63375 0.393,-0.25425 0.735001,-0.47325 1.386,-0.47625 0.744001,0.006 1.018501,0.2085 1.361251,0.46575 0.403499,0.30225 0.860249,0.64425 1.97475,0.64425 0.450749,0 0.933,-0.0945 1.430999,-0.27975 0.19425,-0.07275 0.29325,-0.28875 0.220501,-0.483 z"/><path fill="#e75a70" d="m 19.049908,24.58449 h -2.1 c -0.479999,0 -0.87225,0.39225 -0.87225,0.87225 0,0.47925 0.392251,0.87225 0.87225,0.87225 h 0.17775 v 0.25875 c 0,0.47925 0.392251,0.87225 0.87225,0.87225 0.48,0 0.87225,-0.39225 0.87225,-0.87225 v -0.25875 h 0.17775 c 0.47925,0 0.87225,-0.39225 0.87225,-0.87225 0,-0.48 -0.393,-0.87225 -0.87225,-0.87225 z"/><path fill="#f18f26" d="m 18.016408,18.84474 c -0.206999,0 -0.374999,-0.168 -0.374999,-0.375 v -6.213 c 0,-0.207 0.168,-0.375001 0.374999,-0.375001 0.207001,0 0.375001,0.168001 0.375001,0.375001 v 6.213 c 0,0.20775 -0.16725,0.375 -0.375001,0.375 z m 2.233501,-1.1865 c -0.207001,0 -0.375001,-0.168 -0.375001,-0.375 0,-2.1615 0.924,-3.907501 0.963751,-3.981 0.0975,-0.183 0.326249,-0.2505 0.50775,-0.153 0.18225,0.0975 0.2505,0.32475 0.152999,0.507749 -0.009,0.01575 -0.8745,1.659751 -0.8745,3.626251 0,0.207 -0.168,0.375 -0.374999,0.375 z m -4.500001,0 c -0.206999,0 -0.374999,-0.168 -0.374999,-0.375 0,-1.96725 -0.866251,-3.6105 -0.87525,-3.626251 -0.0975,-0.182999 -0.0285,-0.409499 0.153749,-0.507749 0.181501,-0.09825 0.40875,-0.02925 0.507,0.153 0.03975,0.0735 0.963751,1.8195 0.963751,3.981 7.5e-4,0.207 -0.16725,0.375 -0.374251,0.375 z"/><path fill="#664500" d="m 32.038917,8.916395 c -1.193337,1.445043 -3.19093,1.956474 -5.09024,2.126952 C 26.629783,9.5010309 25.260954,3.772 22.512262,3.772 20.102516,3.772 19.234088,4.8660611 17.999634,4.8660611 16.76518,4.8660611 15.896748,3.772 13.487007,3.772 10.738314,3.772 9.3694849,9.5010309 9.0505919,11.043347 7.151281,10.872869 5.1536885,10.360436 3.9603503,8.916395 1.8013087,6.3030824 -1.0536799,8.22847 0.39236628,11.096495 2.6767587,15.62617 8.2022191,18.81409 17.999634,18.81409 c 9.79641,0 15.321872,-3.18792 17.607268,-7.717595 1.446044,-2.868025 -1.408943,-4.7934126 -3.567985,-2.1801 z"/><path fill="#825d0e" d="m 21.509454,5.7776121 c -1.874244,0 -2.550135,0.9667048 -3.50982,0.9667048 -0.959685,0 -1.635576,-0.9667048 -3.50982,-0.9667048 -2.469911,0 -3.509822,6.7689409 -3.509822,6.7689409 0,0 1.285595,2.256313 7.019642,2.256313 5.735049,0 7.019642,-2.256313 7.019642,-2.256313 0,0 -1.039911,-6.7689409 -3.509822,-6.7689409 z"/><path fill="#664500" d="m 10.979992,8.7860303 c 0,0 2.079822,2.0056117 7.019642,2.0056117 4.940825,0 7.019642,-2.0056117 7.019642,-2.0056117 v 2.0056117 c 0,0 -2.228237,2.005613 -7.019642,2.005613 -4.791405,0 -7.019642,-2.005613 -7.019642,-2.005613 z"/></svg>
