<svg xmlns="http://www.w3.org/2000/svg" xmlns:xlink="http://www.w3.org/1999/xlink" viewBox="0 0 36 36"><defs><radialGradient xlink:href="#a" id="c" cx="18" cy="8" r="18" fx="18" fy="11" gradientTransform="matrix(2.5364534,0,0,1.8623508,-27.656161,-11.156764)" gradientUnits="userSpaceOnUse"/><radialGradient xlink:href="#a" id="b" cx="18" cy="8" r="18" fx="18" fy="9" gradientTransform="matrix(2.5364534,0,0,1.8623508,-27.656161,-11.156764)" gradientUnits="userSpaceOnUse"/><linearGradient id="a"><stop offset="0" stop-color="#5ed2ff"/><stop offset="0.2" stop-color="#5ed2ff"/><stop offset="0.2" stop-color="#f5a9b8"/><stop offset="0.4" stop-color="#f5a9b8"/><stop offset="0.4" stop-color="#ffffff"/><stop offset="0.6" stop-color="#ffffff"/><stop offset="0.6" stop-color="#f5a9b8"/><stop offset="0.8" stop-color="#f5a9b8"/><stop offset="0.8" stop-color="#5bcefa"/></linearGradient></defs><path fill="url(#b)" d="M2.75 19.333L5 16l3 3 4-2 3 3 4-6 4 3 3-1 2 3 3-3 2 4-2 7-11 5-11-2-6-6z"/><path fill="#99aab5" d="M 2.75,19.333 5,16 l 3,3 4,-2 3,3 4,-6 4,3 3,-1 2,3 3,-3 2,4 -2,7 L 20,32 9,30 3,24 Z"/><path fill="#ffcc4d" d="M 29.956,14.712 C 29.977,14.425 30,14.138 30,13.846 30,7.903 25.676,2.982 20.004,2.027 21.193,1.767 22.035,1.518 21,1 19.885,0.442 18.77,1.129 18.001,1.846 H 17.999 C 17.23,1.129 16.116,0.442 15,1 13.965,1.518 14.807,1.767 15.996,2.026 10.325,2.981 6,7.902 6,13.846 6,14.138 6.023,14.425 6.044,14.713 5.562,21.313 -0.259,31 18,31 36.259,31 30.438,21.313 29.956,14.712 Z"/><path fill="#f4900c" d="m 21,14 c 0,1.657 -1.343,2 -3,2 -1.657,0 -3,-0.343 -3,-2 0,-1.657 1.343,-3 3,-3 1.657,0 3,1.343 3,3 z"/><circle cx="11.5" cy="11.5" r="1.5" fill="#662113"/><circle cx="24.5" cy="11.5" r="1.5" fill="#662113"/><path fill="url(#c)" d="m 31,25 -3,-1 -4,6 -3,-5 -2,2 -4,-2 -3,4 L 9,23 6,25 2.706,17.235 C 2.249,18.584 2,20.016 2,21.5 2,29.509 9.164,36 18,36 c 8.836,0 16,-6.491 16,-14.5 0,-1.244 -0.191,-2.444 -0.517,-3.597 z"/></svg>
