<svg xmlns="http://www.w3.org/2000/svg" version="1.1" viewBox="0 0 36 36"><path fill="#99aab5" d="M 2.75,19.333 5,16 l 3,3 4,-2 3,3 4,-6 4,3 3,-1 2,3 3,-3 2,4 -2,7 L 20,32 9,30 3,24 Z"/><path fill="#ffcc4d" d="M 29.956,14.712 C 29.977,14.425 30,14.138 30,13.846 30,7.903 25.676,2.982 20.004,2.027 21.193,1.767 22.035,1.518 21,1 19.885,0.442 18.77,1.129 18.001,1.846 H 17.999 C 17.23,1.129 16.116,0.442 15,1 13.965,1.518 14.807,1.767 15.996,2.026 10.325,2.981 6,7.902 6,13.846 6,14.138 6.023,14.425 6.044,14.713 5.562,21.313 -0.259,31 18,31 36.259,31 30.438,21.313 29.956,14.712 Z"/><path fill="#f4900c" d="m 21,14 c 0,1.657 -1.343,2 -3,2 -1.657,0 -3,-0.343 -3,-2 0,-1.657 1.343,-3 3,-3 1.657,0 3,1.343 3,3 z"/><circle cx="11.5" cy="11.5" r="1.5" fill="#662113"/><circle cx="24.5" cy="11.5" r="1.5" fill="#662113"/><path fill="#fafafa" d="m 31,25 -3,-1 -4,6 -3,-5 -2,2 -4,-2 -3,4 L 9,23 6,25 2.706,17.235 C 2.249,18.584 2,20.016 2,21.5 2,29.509 9.164,36 18,36 c 8.836,0 16,-6.491 16,-14.5 0,-1.244 -0.191,-2.444 -0.517,-3.597 z"/><path fill="#f5a9b8" d="M 33.816406,23.706828 A 40,40 0 0 1 31.097656,24.7205 L 31,24.999797 30.65625,24.884563 a 40,40 0 0 1 -3.958984,1.068359 L 24,29.999797 22.029297,26.716594 a 40,40 0 0 1 -2.957031,0.210937 L 19,26.999797 18.882812,26.941203 A 40,40 0 0 1 18.0625,26.999797 40,40 0 0 1 13.732422,26.691203 L 12,28.999797 10.605469,26.208781 A 40,40 0 0 1 2.1757812,23.658 C 3.3257295,30.643273 9.9730468,35.999797 18,35.999797 c 8.008345,0 14.643718,-5.331442 15.816406,-12.292969 z"/><path fill="#5bcefa" d="M 31.210938,29.677734 A 42.5,42.5 0 0 1 18,31.863281 42.5,42.5 0 0 1 4.7890625,29.679688 C 7.6713364,33.495465 12.51256,36 18,36 c 5.488026,0 10.328775,-2.5058 13.210938,-6.322266 z"/></svg>
