<svg viewBox="0 0 36 36" version="1.1" xmlns="http://www.w3.org/2000/svg"> <path fill="#FFCC4D" d="M32.348 13.999s3.445-8.812 1.651-11.998c-.604-1.073-8 1.998-10.723 5.442 0 0-2.586-.86-5.276-.86s-5.276.86-5.276.86C10.001 3.999 2.605.928 2.001 2.001.207 5.187 3.652 13.999 3.652 13.999c-.897 1.722-1.233 4.345-1.555 7.16-.354 3.086.35 5.546.658 6.089.35.617 2.123 2.605 4.484 4.306 3.587 2.583 8.967 3.445 10.761 3.445s7.174-.861 10.761-3.445c2.361-1.701 4.134-3.689 4.484-4.306.308-.543 1.012-3.003.659-6.089-.324-2.814-.659-5.438-1.556-7.16z" /> <path fill="#F18F26" d="M2.359 2.971c.2-.599 5.348 2.173 6.518 5.404 0 0-3.808 2.624-4.528 4.624 0 0-2.99-7.028-1.99-10.028z" /> <path fill="#FFCC4D" d="M5.98 7.261c0-1.414 5.457 2.733 4.457 3.733s-1.255.72-2.255 1.72S5.98 8.261 5.98 7.261z" /> <path fill="#F18F26" d="M33.641 2.971c-.2-.599-5.348 2.173-6.518 5.404 0 0 3.808 2.624 4.528 4.624 0 0 2.99-7.028 1.99-10.028z" /> <path fill="#FFCC4D" d="M30.02 7.261c0-1.414-5.457 2.733-4.457 3.733s1.255.72 2.255 1.72 2.202-4.453 2.202-5.453z" /> <path fill="#FEE7B8" d="M2.201 30.458c-.148 0-.294-.065-.393-.19-.171-.217-.134-.531.083-.702.162-.127 4.02-3.12 10.648-2.605.275.021.481.261.46.536-.021.275-.257.501-.537.46-6.233-.474-9.915 2.366-9.951 2.395-.093.07-.202.106-.31.106zm8.868-4.663c-.049 0-.1-.007-.149-.022-4.79-1.497-8.737-.347-8.777-.336-.265.081-.543-.07-.623-.335-.079-.265.071-.543.335-.622.173-.052 4.286-1.247 9.362.338.264.083.411.363.328.627-.066.213-.263.35-.476.35zm22.73 4.663c.148 0 .294-.065.393-.19.171-.217.134-.531-.083-.702-.162-.127-4.02-3.12-10.648-2.605-.275.021-.481.261-.46.536.022.275.257.501.537.46 6.233-.474 9.915 2.366 9.951 2.395.093.07.202.106.31.106zm-8.868-4.663c.049 0 .1-.007.149-.022 4.79-1.497 8.737-.347 8.777-.336.265.081.543-.07.623-.335.079-.265-.071-.543-.335-.622-.173-.052-4.286-1.247-9.362.338-.264.083-.411.363-.328.627.066.213.263.35.476.35z" /> <path fill="#67757F" d="M24.736 30.898c-.097-.258-.384-.392-.643-.294-.552.206-1.076.311-1.559.311-1.152 0-1.561-.306-2.033-.659-.451-.338-.956-.715-1.99-.803v-2.339c0-.276-.224-.5-.5-.5s-.5.224-.5.5v2.373c-.81.115-1.346.439-1.816.743-.568.367-1.059.685-2.083.685-.482 0-1.006-.104-1.558-.311-.258-.095-.547.035-.643.294-.097.259.035.547.293.644.664.247 1.306.373 1.907.373 1.319 0 2.014-.449 2.627-.845.524-.339.98-.631 1.848-.635.992.008 1.358.278 1.815.621.538.403 1.147.859 2.633.859.601 0 1.244-.126 1.908-.373.259-.097.391-.385.294-.644z" /> <path fill="#E75A70" d="M19.4 24.807h-2.8c-.64 0-1.163.523-1.163 1.163 0 .639.523 1.163 1.163 1.163h.237v.345c0 .639.523 1.163 1.163 1.163s1.163-.523 1.163-1.163v-.345h.237c.639 0 1.163-.523 1.163-1.163s-.524-1.163-1.163-1.163z" /> <path style="mix-blend-mode:multiply" fill="#ffd7a9" d="m 34.476659,24.797438 c -0.250666,-0.844444 -1.023999,-1.463999 -1.95022,-1.463999 -0.685333,0 -1.289777,0.337778 -1.660443,0.85511 -0.370666,-0.517332 -0.97511,-0.85511 -1.660443,-0.85511 -1.128887,0 -2.043553,0.914666 -2.043553,2.043554 0,0.16 0.02044,0.314666 0.05511,0.463999 0.272889,1.693332 2.087109,3.463108 3.474663,4.054218 1.578665,-1.42222 2.871997,-3.152885 3.784885,-5.097772 z" /> <path style="mix-blend-mode:multiply" fill="#ffd7a9" d="m 12.257544,27.851657 c 0.05067,-0.215111 0.08,-0.439111 0.08,-0.670222 0,-1.629331 -1.320888,-2.950219 -2.9502202,-2.950219 -0.989332,0 -1.8613311,0.488 -2.3973306,1.234665 -0.5351105,-0.745777 -1.4079986,-1.234665 -2.3973309,-1.234665 -1.10311,0 -2.0542202,0.612444 -2.5599974,1.509332 1.6213317,2.928886 4.1333292,5.295106 7.1715479,6.732438 1.4551102,-1.200888 2.7831092,-2.939553 3.0533312,-4.621329 z" /> <path fill="#dd2e44" d="m 35.940658,25.228548 c 0,-1.128887 -0.914666,-2.043553 -2.043554,-2.043553 -0.685332,0 -1.289776,0.337777 -1.660443,0.85511 -0.370666,-0.517333 -0.97511,-0.85511 -1.660442,-0.85511 -1.128888,0 -2.043554,0.914666 -2.043554,2.043553 0,0.16 0.02044,0.314667 0.05511,0.464 0.283556,1.762665 2.243554,3.623107 3.648885,4.133329 1.404444,-0.510222 3.36533,-2.370664 3.647997,-4.133329 0.03556,-0.149333 0.056,-0.304 0.056,-0.464 z" /> <path fill="#dd2e44" d="m 10.893101,27.256102 c 0,-1.629332 -1.3208882,-2.950219 -2.9502198,-2.950219 -0.9893324,0 -1.8613315,0.487999 -2.397331,1.234665 C 5.0104397,24.793882 4.1375516,24.305883 3.1482193,24.305883 1.5188876,24.305883 0.198,25.62677 0.198,27.256102 c 0,0.231111 0.029333,0.454222 0.079111,0.670221 0.4097773,2.544887 3.2391078,5.230217 5.2675503,5.967994 2.0284424,-0.736888 4.8577727,-3.422218 5.2675507,-5.967105 0.05156,-0.216888 0.08089,-0.440888 0.08089,-0.67111 z" /> <path d="m 24.462938,6.208 c -0.450302,0.402085 -0.855411,0.8163069 -1.1875,1.2363279 0,0 -0.81866,-0.267173 -1.998047,-0.503906 -0.25352,0.412259 -0.400391,0.895725 -0.400391,1.416016 0,0.213333 0.02605,0.42003 0.07227,0.61914 0.377777,2.3493291 2.991285,4.8269251 4.863281,5.5078131 1.479997,-0.537778 3.418407,-2.199429 4.353516,-4.033203 C 28.616907,8.6407339 26.670538,7.1829039 24.462942,6.208 Z" fill="#ffd7a9" style="mix-blend-mode:multiply" /> <path fill="#dd2e44" d="m 31.895764,7.753414 c 0,-1.5039985 -1.219554,-2.722664 -2.722664,-2.722664 -0.912888,0 -1.718221,0.4506662 -2.212442,1.1395544 C 26.466436,5.4814162 25.661104,5.03075 24.748216,5.03075 c -1.503999,0 -2.722664,1.2186655 -2.722664,2.722664 0,0.2133331 0.02667,0.4195551 0.07289,0.618666 0.378667,2.349331 2.99022,4.827551 4.862218,5.508439 1.871998,-0.680888 4.483551,-3.159108 4.861328,-5.5075501 0.04711,-0.1999998 0.07378,-0.4062218 0.07378,-0.6195549 z" /> <path d="m 26.66582,22.222329 c -0.372444,0 -0.71911,-0.235555 -0.842665,-0.607999 -0.180445,-0.532444 -0.905777,-2.058665 -1.823999,-2.058665 -0.943999,0 -1.679109,1.623999 -1.823998,2.058665 -0.155555,0.464888 -0.654221,0.718221 -1.124443,0.561777 -0.464888,-0.154666 -0.717333,-0.658666 -0.561777,-1.124443 0.111111,-0.335111 1.15911,-3.274664 3.50933,-3.274664 2.350219,0 3.398218,2.939553 3.509329,3.274664 0.155556,0.465777 -0.096,0.969777 -0.561777,1.124443 -0.09244,0.032 -0.186666,0.04622 -0.28,0.04622 z" fill="#292f33"/> <path d="m 14.666017,22.222443 c -0.372444,0 -0.71911,-0.235535 -0.843554,-0.607947 -0.180445,-0.532397 -0.904888,-2.058486 -1.82311,-2.058486 -0.943999,0 -1.67822,1.623858 -1.823109,2.058486 -0.155555,0.464848 -0.6559987,0.718159 -1.1244437,0.561729 -0.465777,-0.154653 -0.7173321,-0.658609 -0.561777,-1.124346 0.111111,-0.335081 1.159111,-3.274379 3.5102187,-3.274379 2.351109,0 3.398219,2.939298 3.510219,3.274379 0.155555,0.465737 -0.096,0.969693 -0.561777,1.124346 -0.09422,0.032 -0.189333,0.04622 -0.282667,0.04622 z" fill="#292f33"/> </svg>