<svg viewBox="0 0 36 36" version="1.1" xmlns="http://www.w3.org/2000/svg"> <path fill="#FFCC4D" d="M32.348 13.999s3.445-8.812 1.651-11.998c-.604-1.073-8 1.998-10.723 5.442 0 0-2.586-.86-5.276-.86s-5.276.86-5.276.86C10.001 3.999 2.605.928 2.001 2.001.207 5.187 3.652 13.999 3.652 13.999c-.897 1.722-1.233 4.345-1.555 7.16-.354 3.086.35 5.546.658 6.089.35.617 2.123 2.605 4.484 4.306 3.587 2.583 8.967 3.445 10.761 3.445s7.174-.861 10.761-3.445c2.361-1.701 4.134-3.689 4.484-4.306.308-.543 1.012-3.003.659-6.089-.324-2.814-.659-5.438-1.556-7.16z" /> <path fill="#F18F26" d="M2.359 2.971c.2-.599 5.348 2.173 6.518 5.404 0 0-3.808 2.624-4.528 4.624 0 0-2.99-7.028-1.99-10.028z" /> <path fill="#FFCC4D" d="M5.98 7.261c0-1.414 5.457 2.733 4.457 3.733s-1.255.72-2.255 1.72S5.98 8.261 5.98 7.261z" /> <path fill="#F18F26" d="M33.641 2.971c-.2-.599-5.348 2.173-6.518 5.404 0 0 3.808 2.624 4.528 4.624 0 0 2.99-7.028 1.99-10.028z" /> <path fill="#FFCC4D" d="M30.02 7.261c0-1.414-5.457 2.733-4.457 3.733s1.255.72 2.255 1.72 2.202-4.453 2.202-5.453z" /> <path fill="#292F33" d="M14.001 20.001c0 1.105-.896 1.999-2 1.999s-2-.894-2-1.999c0-1.104.896-1.999 2-1.999s2 .896 2 1.999zm11.998 0c0 1.105-.896 1.999-2 1.999-1.105 0-2-.894-2-1.999 0-1.104.895-1.999 2-1.999s2 .896 2 1.999z" /> <path fill="#FEE7B8" d="M2.201 30.458c-.148 0-.294-.065-.393-.19-.171-.217-.134-.531.083-.702.162-.127 4.02-3.12 10.648-2.605.275.021.481.261.46.536-.021.275-.257.501-.537.46-6.233-.474-9.915 2.366-9.951 2.395-.093.07-.202.106-.31.106zm8.868-4.663c-.049 0-.1-.007-.149-.022-4.79-1.497-8.737-.347-8.777-.336-.265.081-.543-.07-.623-.335-.079-.265.071-.543.335-.622.173-.052 4.286-1.247 9.362.338.264.083.411.363.328.627-.066.213-.263.35-.476.35zm22.73 4.663c.148 0 .294-.065.393-.19.171-.217.134-.531-.083-.702-.162-.127-4.02-3.12-10.648-2.605-.275.021-.481.261-.46.536.022.275.257.501.537.46 6.233-.474 9.915 2.366 9.951 2.395.093.07.202.106.31.106zm-8.868-4.663c.049 0 .1-.007.149-.022 4.79-1.497 8.737-.347 8.777-.336.265.081.543-.07.623-.335.079-.265-.071-.543-.335-.622-.173-.052-4.286-1.247-9.362.338-.264.083-.411.363-.328.627.066.213.263.35.476.35z" /> <path fill="#67757F" d="M24.736 30.898c-.097-.258-.384-.392-.643-.294-.552.206-1.076.311-1.559.311-1.152 0-1.561-.306-2.033-.659-.451-.338-.956-.715-1.99-.803v-2.339c0-.276-.224-.5-.5-.5s-.5.224-.5.5v2.373c-.81.115-1.346.439-1.816.743-.568.367-1.059.685-2.083.685-.482 0-1.006-.104-1.558-.311-.258-.095-.547.035-.643.294-.097.259.035.547.293.644.664.247 1.306.373 1.907.373 1.319 0 2.014-.449 2.627-.845.524-.339.98-.631 1.848-.635.992.008 1.358.278 1.815.621.538.403 1.147.859 2.633.859.601 0 1.244-.126 1.908-.373.259-.097.391-.385.294-.644z" /> <path fill="#E75A70" d="M19.4 24.807h-2.8c-.64 0-1.163.523-1.163 1.163 0 .639.523 1.163 1.163 1.163h.237v.345c0 .639.523 1.163 1.163 1.163s1.163-.523 1.163-1.163v-.345h.237c.639 0 1.163-.523 1.163-1.163s-.524-1.163-1.163-1.163z" /> <path fill="#292f33" d="M 13.295166,9.8650169 A 0.88816828,0.88864804 0 1 0 12.039106,8.6082792 C 10.581403,10.06677 9.1805505,10.123652 9.1050448,10.12543 a 0.88831318,0.88879302 0 0 0 0.00888,1.777563 c 0.087942,0 2.1674572,-0.02311 4.1812372,-2.0379761 z" /> <path fill="#292f33" d="m 27.778043,11.024482 a 0.89424385,0.89333332 0 0 0 -0.874667,-0.898666 c -0.05962,-8.89e-4 -1.470832,-0.04978 -2.939883,-1.5173336 a 0.88966057,0.8887547 0 1 0 -1.25817,1.2568889 c 2.017165,2.0151107 4.100175,2.0382217 4.188265,2.0382217 a 0.88534591,0.88444444 0 0 0 0.884455,-0.879111 z" /> <path fill="#ffffff" d="m 28.574458,17.287438 c -1.943111,-3.045333 -5.416889,-4.032 -7.250666,-3.252444 -1.013334,0.429333 -1.520889,1.797333 -1.544,4.130666 -0.0053,0.547556 0.016,1.150223 0.064,1.806223 0.02844,0.386666 0.05956,0.778666 0.105777,1.202666 0.119112,1.083556 0.690667,1.938667 1.652445,2.470223 0.64,0.354666 1.405333,0.536888 2.196444,0.587555 1.353778,0.08533 2.788445,-0.218667 3.805334,-0.710222 1.075555,-0.519111 1.774222,-1.454222 1.918222,-2.565333 0.144,-1.104889 -0.166222,-2.443556 -0.947556,-3.669334 z" /> <path fill="#f4900c" d="m 29.522903,20.956772 c 0.143111,-1.104889 -0.167111,-2.444445 -0.948445,-3.669334 a 7.8666666,7.8666666 0 0 0 -1.449778,-1.669333 5.2959999,5.2959999 0 0 0 -2.456888,-0.604444 5.3377777,5.3377777 0 0 0 -4.887111,3.205333 c -0.0036,0.534222 0.016,1.117333 0.06311,1.753778 0.02844,0.386666 0.05956,0.778666 0.106666,1.202666 0.119111,1.083556 0.690667,1.938667 1.652445,2.470222 0.64,0.354667 1.405333,0.536889 2.196444,0.587556 1.353778,0.08533 2.788445,-0.218667 3.805333,-0.710222 1.075556,-0.52 1.774223,-1.454222 1.918224,-2.566222 z" /> <circle fill="#65471b" cx="24.667789" cy="19.902544" r="3.5555556" /> <ellipse transform="rotate(-45.028)" fill="#ffffff" cx="4.6135879" cy="29.003084" rx="1.488" ry="1.1582222" /> <path fill="#5dadec" d="m 21.387792,24.034105 c 0.664,0.368 1.465777,0.584 2.384,0.641778 0.161777,0.0098 0.324444,0.01511 0.488,0.01511 1.237333,0 2.527111,-0.28 3.538666,-0.768 0.864889,-0.417778 1.509334,-1.079111 1.868445,-1.881778 a 0.51999999,0.51999999 0 0 0 -0.225778,-0.669333 c -1.263111,-0.685334 -2.596445,1.210666 -4.330667,1.210666 -1.735111,0 -3.621333,-0.832 -4.672,0 a 0.44977777,0.44977777 0 0 0 -0.05778,0.647111 c 0.274666,0.313778 0.609777,0.584889 1.007111,0.804445 z" /> <path fill="#ffffff" d="m 7.4268837,17.28744 c 1.9430356,-3.045335 5.4166783,-4.032002 7.2503843,-3.252446 1.013295,0.429333 1.52083,1.797334 1.54394,4.130669 0.0053,0.547556 -0.016,1.150223 -0.064,1.806224 -0.02844,0.386666 -0.05955,0.778666 -0.105772,1.202667 -0.119108,1.083556 -0.690641,1.938668 -1.652381,2.470224 -0.639975,0.354667 -1.405279,0.536889 -2.196359,0.587556 C 10.848973,24.317664 9.4143619,24.013667 8.3975126,23.522111 7.3219989,23.003 6.6233593,22.067888 6.4793649,20.956777 6.3353705,19.851887 6.6455806,18.513219 7.4268837,17.28744 Z" /> <path fill="#f4900c" d="m 16.051438,21.175443 c -0.119108,1.083556 -0.690641,1.938668 -1.652381,2.470223 -0.639975,0.354668 -1.405279,0.53689 -2.196359,0.587557 C 10.848973,24.318556 9.4143619,24.014556 8.3975126,23.523 7.3219989,23.003889 6.6233593,22.068777 6.4793649,20.957665 6.3362594,19.852776 6.6464695,18.513219 7.4277725,17.288329 a 7.866361,7.8666717 0 0 1 1.4497214,-1.669334 5.2957941,5.2960034 0 0 1 2.4567931,-0.604444 5.3375703,5.3377812 0 0 1 4.886921,3.205335 c 0.0036,0.534222 -0.016,1.117334 -0.06311,1.753778 a 36.496359,36.497801 0 0 1 -0.106662,1.201779 z" /> <ellipse fill="#65471b" cx="11.333399" cy="19.90255" rx="3.5554173" ry="3.555558" /> <path fill="#ffffff" d="m 11.736938,17.235885 c -0.180437,0.736001 -0.905743,1.333334 -1.619492,1.333334 -0.7137504,0 -1.1457336,-0.597333 -0.9652961,-1.333334 0.1804374,-0.736 0.9057431,-1.333335 1.6194931,-1.333335 0.713749,0 1.145732,0.597335 0.965295,1.333335 z" /> <path fill="#5dadec" d="m 14.61327,24.034112 c -0.663974,0.368 -1.46572,0.584 -2.383907,0.641778 A 8.0859079,8.0862274 0 0 1 11.741382,24.691 c -1.237285,0 -2.5270123,-0.28 -3.5385285,-0.768001 -0.8648553,-0.417777 -1.5092747,-1.07911 -1.8683719,-1.881778 a 0.51997978,0.52000033 0 0 1 0.2257691,-0.669333 c 1.263062,-0.685335 2.5963434,1.210667 4.3304983,1.210667 1.735044,0 3.621192,-0.832001 4.671819,0 a 0.44976029,0.44977806 0 0 1 0.05778,0.647111 3.7136334,3.7137801 0 0 1 -1.007072,0.804446 z" /> </svg>