<svg viewBox="0 0 36 36" version="1.1" xmlns="http://www.w3.org/2000/svg"> <path fill="#FFCC4D" d="M32.348 13.999s3.445-8.812 1.651-11.998c-.604-1.073-8 1.998-10.723 5.442 0 0-2.586-.86-5.276-.86s-5.276.86-5.276.86C10.001 3.999 2.605.928 2.001 2.001.207 5.187 3.652 13.999 3.652 13.999c-.897 1.722-1.233 4.345-1.555 7.16-.354 3.086.35 5.546.658 6.089.35.617 2.123 2.605 4.484 4.306 3.587 2.583 8.967 3.445 10.761 3.445s7.174-.861 10.761-3.445c2.361-1.701 4.134-3.689 4.484-4.306.308-.543 1.012-3.003.659-6.089-.324-2.814-.659-5.438-1.556-7.16z" /> <path fill="#F18F26" d="M2.359 2.971c.2-.599 5.348 2.173 6.518 5.404 0 0-3.808 2.624-4.528 4.624 0 0-2.99-7.028-1.99-10.028z" /> <path fill="#FFCC4D" d="M5.98 7.261c0-1.414 5.457 2.733 4.457 3.733s-1.255.72-2.255 1.72S5.98 8.261 5.98 7.261z" /> <path fill="#F18F26" d="M33.641 2.971c-.2-.599-5.348 2.173-6.518 5.404 0 0 3.808 2.624 4.528 4.624 0 0 2.99-7.028 1.99-10.028z" /> <path fill="#FFCC4D" d="M30.02 7.261c0-1.414-5.457 2.733-4.457 3.733s1.255.72 2.255 1.72 2.202-4.453 2.202-5.453z" /> <path fill="#FEE7B8" d="M2.201 30.458c-.148 0-.294-.065-.393-.19-.171-.217-.134-.531.083-.702.162-.127 4.02-3.12 10.648-2.605.275.021.481.261.46.536-.021.275-.257.501-.537.46-6.233-.474-9.915 2.366-9.951 2.395-.093.07-.202.106-.31.106zm8.868-4.663c-.049 0-.1-.007-.149-.022-4.79-1.497-8.737-.347-8.777-.336-.265.081-.543-.07-.623-.335-.079-.265.071-.543.335-.622.173-.052 4.286-1.247 9.362.338.264.083.411.363.328.627-.066.213-.263.35-.476.35zm22.73 4.663c.148 0 .294-.065.393-.19.171-.217.134-.531-.083-.702-.162-.127-4.02-3.12-10.648-2.605-.275.021-.481.261-.46.536.022.275.257.501.537.46 6.233-.474 9.915 2.366 9.951 2.395.093.07.202.106.31.106zm-8.868-4.663c.049 0 .1-.007.149-.022 4.79-1.497 8.737-.347 8.777-.336.265.081.543-.07.623-.335.079-.265-.071-.543-.335-.622-.173-.052-4.286-1.247-9.362.338-.264.083-.411.363-.328.627.066.213.263.35.476.35z" /> <path fill="#67757f" d="m 18.012165,27.113 c -0.27601,0 -0.49996,0.224037 -0.500019,0.50008 l -2.81e-4,1.32276 h -3.457158 c -0.275975,0 -0.500019,0.223569 -0.500019,0.50008 -1e-6,0.27651 0.224044,0.50008 0.500019,0.50008 h 7.888962 c 0.276476,0 0.500019,-0.22357 0.500019,-0.50008 0,-0.276511 -0.223543,-0.50008 -0.500019,-0.50008 h -3.431767 l 2.81e-4,-1.32276 C 18.512242,27.337037 18.288174,27.113 18.012165,27.113 Z" /> <path fill="#E75A70" d="M19.4 24.807h-2.8c-.64 0-1.163.523-1.163 1.163 0 .639.523 1.163 1.163 1.163h.237v.345c0 .639.523 1.163 1.163 1.163s1.163-.523 1.163-1.163v-.345h.237c.639 0 1.163-.523 1.163-1.163s-.524-1.163-1.163-1.163z" /> <path d="m 30.222448,15.864052 c -0.163555,0 -4.032889,-0.04444 -6.933333,-3.911111 -0.295111,-0.392888 -0.215111,-0.950222 0.177778,-1.244444 0.392,-0.296 0.948444,-0.215111 1.243555,0.177778 2.347556,3.129777 5.387556,3.199111 5.516445,3.2 0.488889,0.0053 0.883555,0.405333 0.880889,0.893333 -0.0018,0.489778 -0.396445,0.884444 -0.885334,0.884444 z" fill="#292f33" /> <path d="M 5.7768889,15.864052 C 5.2862222,15.864052 4.888,15.46583 4.888,14.975164 c 0,-0.489778 0.3955555,-0.887112 0.8853333,-0.888889 0.1386667,-0.0018 3.1724446,-0.07644 5.5155557,-3.2 0.294222,-0.391111 0.850667,-0.472889 1.244444,-0.177778 0.392889,0.294222 0.472,0.851556 0.177778,1.244444 -2.9004441,3.866667 -6.7706666,3.911111 -6.9342221,3.911111 z" fill="#292f33" /> <path d="m 27.832673,19.074713 c -0.156445,-0.127111 -0.378667,-0.131556 -0.542222,-0.01244 -0.01067,0.008 -1.120889,0.801777 -3.290667,0.801777 -2.168889,0 -3.28,-0.793777 -3.288889,-0.8 -0.162666,-0.121777 -0.385778,-0.118222 -0.543111,0.008 -0.158222,0.126223 -0.211555,0.343111 -0.129778,0.528 0.05333,0.12 1.333334,2.930667 3.961778,2.930667 2.629333,0 3.908444,-2.810667 3.961778,-2.930667 0.08178,-0.184 0.02844,-0.399111 -0.128889,-0.525333 z" fill="#292f33" /> <path d="m 15.832673,19.074713 c -0.156444,-0.127111 -0.379555,-0.130667 -0.542222,-0.01244 -0.01067,0.008 -1.12,0.801777 -3.290667,0.801777 -2.1697783,0 -3.2800003,-0.793777 -3.2888893,-0.8 -0.162666,-0.121777 -0.3866664,-0.118222 -0.5431108,0.008 -0.1582222,0.126223 -0.2115556,0.343111 -0.1297778,0.528 0.053333,0.12 1.3333336,2.930667 3.9617779,2.930667 2.629334,0 3.908445,-2.810667 3.961778,-2.930667 0.08178,-0.184 0.02844,-0.399111 -0.128889,-0.525333 z" fill="#292f33" /> </svg>