<svg viewBox="0 0 36 36" version="1.1" xmlns="http://www.w3.org/2000/svg"> <path fill="#FFCC4D" d="M32.348 13.999s3.445-8.812 1.651-11.998c-.604-1.073-8 1.998-10.723 5.442 0 0-2.586-.86-5.276-.86s-5.276.86-5.276.86C10.001 3.999 2.605.928 2.001 2.001.207 5.187 3.652 13.999 3.652 13.999c-.897 1.722-1.233 4.345-1.555 7.16-.354 3.086.35 5.546.658 6.089.35.617 2.123 2.605 4.484 4.306 3.587 2.583 8.967 3.445 10.761 3.445s7.174-.861 10.761-3.445c2.361-1.701 4.134-3.689 4.484-4.306.308-.543 1.012-3.003.659-6.089-.324-2.814-.659-5.438-1.556-7.16z" /> <path fill="#F18F26" d="M2.359 2.971c.2-.599 5.348 2.173 6.518 5.404 0 0-3.808 2.624-4.528 4.624 0 0-2.99-7.028-1.99-10.028z" /> <path fill="#FFCC4D" d="M5.98 7.261c0-1.414 5.457 2.733 4.457 3.733s-1.255.72-2.255 1.72S5.98 8.261 5.98 7.261z" /> <path fill="#F18F26" d="M33.641 2.971c-.2-.599-5.348 2.173-6.518 5.404 0 0 3.808 2.624 4.528 4.624 0 0 2.99-7.028 1.99-10.028z" /> <path fill="#ffcc4d" d="m 30.02,7.261 c 0,-1.414 -5.457,2.733 -4.457,3.733 1,1 1.255,0.72 2.255,1.72 1,1 2.202,-4.453 2.202,-5.453 z" /> <path fill="#67757f" d="m 18.011719,26.613281 c -0.276,0 -0.5,0.224001 -0.5,0.5 v 2.359375 c -0.588306,0.129251 -0.947384,0.478108 -1.246094,0.769532 -0.319806,0.310668 -0.550126,0.535156 -1.042969,0.535156 -0.491701,0 -0.723733,-0.223346 -1.042968,-0.535156 -0.371774,-0.363208 -0.832433,-0.813413 -1.71875,-0.820313 h -0.0293 c -0.689296,0.0057 -1.112635,0.286986 -1.373047,0.5 -0.213012,0.17418 -0.245064,0.48954 -0.07031,0.703125 0.17418,0.213584 0.489541,0.246206 0.703125,0.07031 0.199881,-0.1639 0.404976,-0.27419 0.753906,-0.27539 0.488276,0.0011 0.719018,0.226442 1.03711,0.537109 0.374631,0.365493 0.841352,0.820313 1.740234,0.820313 0.898883,0 1.365604,-0.45482 1.740235,-0.820313 0.319233,-0.310667 0.550126,-0.537109 1.042968,-0.537109 0.492273,0 0.723163,0.225871 1.042969,0.537109 0.37463,0.365493 0.842734,0.820313 1.742188,0.820313 0.899453,0 1.365844,-0.454249 1.742187,-0.820313 0.319806,-0.310667 0.550125,-0.537109 1.042969,-0.537109 0.366064,0 0.572335,0.124751 0.740234,0.257812 0.215869,0.171328 0.529276,0.134409 0.701172,-0.08203 0.170758,-0.21587 0.135791,-0.529276 -0.08008,-0.701172 -0.407182,-0.322661 -0.839932,-0.472656 -1.361328,-0.472656 -0.899454,0 -1.365605,0.454249 -1.740234,0.820313 -0.319806,0.310668 -0.55208,0.535156 -1.044922,0.535156 -0.492844,0 -0.722591,-0.223917 -1.042969,-0.535156 -0.297369,-0.290571 -0.654673,-0.637085 -1.238281,-0.767579 8.48e-4,-0.0073 0.0012,-0.01401 0.002,-0.02148 v -2.339844 c 0,-0.275999 -0.224001,-0.5 -0.5,-0.5 z" /> <path fill="#fee7b8" d="m 2.201,30.458 c -0.148,0 -0.294,-0.065 -0.393,-0.19 -0.171,-0.217 -0.134,-0.531 0.083,-0.702 0.162,-0.127 4.02,-3.12 10.648,-2.605 0.275,0.021 0.481,0.261 0.46,0.536 -0.021,0.275 -0.257,0.501 -0.537,0.46 -6.233,-0.474 -9.915,2.366 -9.951,2.395 -0.093,0.07 -0.202,0.106 -0.31,0.106 z m 8.868,-4.663 c -0.049,0 -0.1,-0.007 -0.149,-0.022 C 6.13,24.276 2.183,25.426 2.143,25.437 1.878,25.518 1.6,25.367 1.52,25.102 1.441,24.837 1.591,24.559 1.855,24.48 c 0.173,-0.052 4.286,-1.247 9.362,0.338 0.264,0.083 0.411,0.363 0.328,0.627 -0.066,0.213 -0.263,0.35 -0.476,0.35 z m 22.73,4.663 c 0.148,0 0.294,-0.065 0.393,-0.19 0.171,-0.217 0.134,-0.531 -0.083,-0.702 -0.162,-0.127 -4.02,-3.12 -10.648,-2.605 -0.275,0.021 -0.481,0.261 -0.46,0.536 0.022,0.275 0.257,0.501 0.537,0.46 6.233,-0.474 9.915,2.366 9.951,2.395 0.093,0.07 0.202,0.106 0.31,0.106 z m -8.868,-4.663 c 0.049,0 0.1,-0.007 0.149,-0.022 4.79,-1.497 8.737,-0.347 8.777,-0.336 0.265,0.081 0.543,-0.07 0.623,-0.335 0.079,-0.265 -0.071,-0.543 -0.335,-0.622 -0.173,-0.052 -4.286,-1.247 -9.362,0.338 -0.264,0.083 -0.411,0.363 -0.328,0.627 0.066,0.213 0.263,0.35 0.476,0.35 z" /> <path fill="#E75A70" d="M19.4 24.807h-2.8c-.64 0-1.163.523-1.163 1.163 0 .639.523 1.163 1.163 1.163h.237v.345c0 .639.523 1.163 1.163 1.163s1.163-.523 1.163-1.163v-.345h.237c.639 0 1.163-.523 1.163-1.163s-.524-1.163-1.163-1.163z" /> <path d="m 24.382555,24.11511 c -2.552,0 -4.627555,-2.075556 -4.627555,-4.627555 0,-2.552 2.075555,-4.627555 4.627555,-4.627555 1.844444,0 3.344889,1.500444 3.344889,3.343999 0,1.843556 -1.500445,3.344889 -3.344889,3.344889 -1.136,0 -2.060444,-0.924445 -2.060444,-2.061333 0,-1.136889 0.924444,-2.061333 2.060444,-2.061333 0.429333,0 0.777778,0.348444 0.777778,0.777777 0,0.429334 -0.347556,0.777778 -0.777778,0.777778 -0.278222,0 -0.504889,0.226667 -0.504889,0.505778 0,0.279111 0.226667,0.505777 0.504889,0.505777 0.985778,0 1.789333,-0.802666 1.789333,-1.789333 0,-0.985777 -0.802666,-1.788444 -1.789333,-1.788444 -1.693333,0 -3.072,1.377778 -3.072,3.072 0,1.693333 1.378667,3.071999 3.072,3.071999 2.400889,0 4.354666,-1.953777 4.354666,-4.354666 0,-0.429333 0.348445,-0.777778 0.777778,-0.777778 0.429333,0 0.777778,0.348445 0.777778,0.777778 8.89e-4,3.258667 -2.651556,5.910222 -5.910222,5.910222 z" fill="#292f33"/> <path d="m 11.617222,24.11511 c -1.8444453,0 -3.3440002,-1.500444 -3.3440002,-3.344 0,-1.844444 1.5004439,-3.344888 3.3440002,-3.344888 1.136889,0 2.061333,0.924444 2.061333,2.061333 0,1.136888 -0.924444,2.061333 -2.061333,2.061333 -0.429333,0 -0.777778,-0.348445 -0.777778,-0.777778 0,-0.429333 0.348445,-0.777778 0.777778,-0.777778 0.278222,0 0.505778,-0.226666 0.505778,-0.505777 0,-0.279111 -0.226667,-0.505778 -0.505778,-0.505778 -0.985778,0 -1.7884453,0.802667 -1.7884453,1.789333 0,0.985778 0.8026673,1.788444 1.7884453,1.788444 1.694222,0 3.072,-1.377777 3.072,-3.071999 0,-1.694222 -1.377778,-3.072 -3.072,-3.072 -2.4017781,0 -4.3546668,1.953778 -4.3546668,4.355555 0,0.429333 -0.3484442,0.777778 -0.7777775,0.777778 C 6.0554444,21.548888 5.707,21.200443 5.707,20.77111 5.707,17.511555 8.3585551,14.86 11.617222,14.86 c 2.552,0 4.627555,2.075555 4.627555,4.627555 0,2.551999 -2.074666,4.627555 -4.627555,4.627555 z" fill="#292f33"/> </svg>