<svg viewBox="0 0 36 36" version="1.1" xmlns="http://www.w3.org/2000/svg"> <path fill="#ffcc4d" d="m 32.348,13.999 c 0,0 3.445,-8.812 1.651,-11.998 -0.604,-1.073 -8,1.998 -10.723,5.442 0,0 -2.586,-0.86 -5.276,-0.86 -2.69,0 -5.276,0.86 -5.276,0.86 C 10.001,3.999 2.605,0.928 2.001,2.001 0.207,5.187 3.652,13.999 3.652,13.999 c -0.897,1.722 -1.233,4.345 -1.555,7.16 -0.354,3.086 0.35,5.546 0.658,6.089 0.35,0.617 2.123,2.605 4.484,4.306 3.587,2.583 8.967,3.445 10.761,3.445 1.794,0 7.174,-0.861 10.761,-3.445 2.361,-1.701 4.134,-3.689 4.484,-4.306 0.308,-0.543 1.012,-3.003 0.659,-6.089 -0.324,-2.814 -0.659,-5.438 -1.556,-7.16 z" /> <path fill="#f18f26" d="m 2.359,2.971 c 0.2,-0.599 5.348,2.173 6.518,5.404 0,0 -3.808,2.624 -4.528,4.624 0,0 -2.99,-7.028 -1.99,-10.028 z" /> <path fill="#ffcc4d" d="m 5.98,7.261 c 0,-1.414 5.457,2.733 4.457,3.733 -1,1 -1.255,0.72 -2.255,1.72 -1,1 -2.202,-4.453 -2.202,-5.453 z" /> <path fill="#f18f26" d="m 33.641,2.971 c -0.2,-0.599 -5.348,2.173 -6.518,5.404 0,0 3.808,2.624 4.528,4.624 0,0 2.99,-7.028 1.99,-10.028 z" /> <path fill="#ffcc4d" d="m 30.02,7.261 c 0,-1.414 -5.457,2.733 -4.457,3.733 1,1 1.255,0.72 2.255,1.72 1,1 2.202,-4.453 2.202,-5.453 z" /> <path fill="#292f33" d="M 23.378906 10 C 23.215612 9.9993426 23.050602 10.045041 22.904297 10.142578 C 22.513299 10.402677 22.40702 10.931268 22.667969 11.322266 C 22.743619 11.435316 24.565141 14.113285 29.009766 15.890625 C 29.112616 15.932275 29.218819 15.951172 29.324219 15.951172 C 29.660816 15.951171 29.981786 15.749213 30.115234 15.416016 C 30.289483 14.979968 30.076673 14.485646 29.640625 14.310547 C 25.721298 12.743156 24.096228 10.399903 24.080078 10.376953 C 23.916454 10.133642 23.651063 10.001096 23.378906 10 z M 12.623047 10.003906 C 12.350351 10.004396 12.083546 10.134705 11.919922 10.376953 C 11.903772 10.399903 10.279553 12.74511 6.359375 14.3125 C 5.9233276 14.48675 5.7105167 14.979968 5.8847656 15.416016 C 6.0182149 15.748364 6.3383332 15.951172 6.6757812 15.951172 C 6.7811806 15.951172 6.8884881 15.931425 6.9921875 15.890625 C 11.435962 14.113285 13.256381 11.437269 13.332031 11.324219 C 13.59213 10.934921 13.486104 10.410236 13.097656 10.148438 C 12.95167 10.050582 12.786664 10.003612 12.623047 10.003906 z " /> <path fill="#292f33" d="m 21.599999,29.1 c 0,2.4867 -1.6119,2.7 -3.6,2.7 -1.989,0 -3.6,-0.2133 -3.6,-2.7 0,-2.4849 1.611,-5.4 3.6,-5.4 1.9881,0 3.6,2.9151 3.6,5.4 z" /> <path fill="#5dadec" d="m 23.5,17.5 h 3.6 v 16.60957 l -3.6,-0.0414 z M 8.9000001,34.10957 12.5,34.06817 V 17.5 H 8.9 Z" /> <path fill="#292f33" d="M 11.015625 16.044922 C 8.8611459 16.053336 7.2460526 16.842375 7.1445312 16.892578 C 6.7246335 17.102527 6.5556762 17.613306 6.765625 18.033203 C 6.9755738 18.452251 7.4855024 18.623758 7.90625 18.412109 C 7.9359999 18.396809 10.960129 16.919518 13.945312 18.412109 C 14.066862 18.472459 14.196719 18.501953 14.324219 18.501953 C 14.636166 18.501953 14.936339 18.330701 15.085938 18.033203 C 15.295886 17.613306 15.124976 17.102527 14.705078 16.892578 C 13.420337 16.250646 12.144162 16.040514 11.015625 16.044922 z M 25.167969 16.044922 C 23.013455 16.053325 21.396443 16.840422 21.294922 16.890625 C 20.875023 17.100574 20.706067 17.611352 20.916016 18.03125 C 21.126814 18.451148 21.636743 18.622908 22.056641 18.412109 C 22.086391 18.396809 25.10967 16.919518 28.095703 18.412109 C 28.217252 18.472459 28.347111 18.501953 28.474609 18.501953 C 28.786557 18.501952 29.086729 18.328748 29.236328 18.03125 C 29.446277 17.611352 29.275366 17.100574 28.855469 16.890625 C 27.571604 16.248985 26.296523 16.04052 25.167969 16.044922 z " /> <ellipse fill="#5dadec" cx="18" cy="33.999546" rx="18" ry="2" /> <ellipse fill="#e75a70" cx="18" cy="29.190001" rx="2.7" ry="1.8"/> <path fill="#fee7b8" d="m 2.201,30.458 c -0.148,0 -0.294,-0.065 -0.393,-0.19 -0.171,-0.217 -0.134,-0.531 0.083,-0.702 0.162,-0.127 4.02,-3.12 10.648,-2.605 0.275,0.021 0.481,0.261 0.46,0.536 -0.021,0.275 -0.257,0.501 -0.537,0.46 -6.233,-0.474 -9.915,2.366 -9.951,2.395 -0.093,0.07 -0.202,0.106 -0.31,0.106 z m 8.868,-4.663 c -0.049,0 -0.1,-0.007 -0.149,-0.022 C 6.13,24.276 2.183,25.426 2.143,25.437 1.878,25.518 1.6,25.367 1.52,25.102 1.441,24.837 1.591,24.559 1.855,24.48 c 0.173,-0.052 4.286,-1.247 9.362,0.338 0.264,0.083 0.411,0.363 0.328,0.627 -0.066,0.213 -0.263,0.35 -0.476,0.35 z m 22.73,4.663 c 0.148,0 0.294,-0.065 0.393,-0.19 0.171,-0.217 0.134,-0.531 -0.083,-0.702 -0.162,-0.127 -4.02,-3.12 -10.648,-2.605 -0.275,0.021 -0.481,0.261 -0.46,0.536 0.022,0.275 0.257,0.501 0.537,0.46 6.233,-0.474 9.915,2.366 9.951,2.395 0.093,0.07 0.202,0.106 0.31,0.106 z m -8.868,-4.663 c 0.049,0 0.1,-0.007 0.149,-0.022 4.79,-1.497 8.737,-0.347 8.777,-0.336 0.265,0.081 0.543,-0.07 0.623,-0.335 0.079,-0.265 -0.071,-0.543 -0.335,-0.622 -0.173,-0.052 -4.286,-1.247 -9.362,0.338 -0.264,0.083 -0.411,0.363 -0.328,0.627 0.066,0.213 0.263,0.35 0.476,0.35 z" /> <path fill="#e75a70" d="m 19.4,19.44 h -2.8 c -0.64,0 -1.163,0.523 -1.163,1.163 0,0.639 0.523,1.163 1.163,1.163 h 0.237 v 0.345 c 0,0.639 0.523,1.163 1.163,1.163 0.64,0 1.163,-0.523 1.163,-1.163 V 21.766 H 19.4 c 0.639,0 1.163,-0.523 1.163,-1.163 0,-0.64 -0.524,-1.163 -1.163,-1.163 z" /> </svg>