<svg viewBox="0 0 36 36" version="1.1" xmlns="http://www.w3.org/2000/svg"> <path fill="#FFCC4D" d="M32.348 13.999s3.445-8.812 1.651-11.998c-.604-1.073-8 1.998-10.723 5.442 0 0-2.586-.86-5.276-.86s-5.276.86-5.276.86C10.001 3.999 2.605.928 2.001 2.001.207 5.187 3.652 13.999 3.652 13.999c-.897 1.722-1.233 4.345-1.555 7.16-.354 3.086.35 5.546.658 6.089.35.617 2.123 2.605 4.484 4.306 3.587 2.583 8.967 3.445 10.761 3.445s7.174-.861 10.761-3.445c2.361-1.701 4.134-3.689 4.484-4.306.308-.543 1.012-3.003.659-6.089-.324-2.814-.659-5.438-1.556-7.16z" /> <path fill="#F18F26" d="M2.359 2.971c.2-.599 5.348 2.173 6.518 5.404 0 0-3.808 2.624-4.528 4.624 0 0-2.99-7.028-1.99-10.028z" /> <path fill="#FFCC4D" d="M5.98 7.261c0-1.414 5.457 2.733 4.457 3.733s-1.255.72-2.255 1.72S5.98 8.261 5.98 7.261z" /> <path fill="#F18F26" d="M33.641 2.971c-.2-.599-5.348 2.173-6.518 5.404 0 0 3.808 2.624 4.528 4.624 0 0 2.99-7.028 1.99-10.028z" /> <path fill="#FFCC4D" d="M30.02 7.261c0-1.414-5.457 2.733-4.457 3.733s1.255.72 2.255 1.72 2.202-4.453 2.202-5.453z" /> <path fill="#292f33" d="m 14.001,20.001 c 0,1.105 -0.896,1.999 -2,1.999 -1.104,0 -2,-0.894 -2,-1.999 0,-1.104 0.896,-1.999 2,-1.999 1.104,0 2,0.896 2,1.999 z m 11.998,0 c 0,1.105 -0.896,1.999 -2,1.999 -1.105,0 -2,-0.894 -2,-1.999 0,-1.104 0.895,-1.999 2,-1.999 1.105,0 2,0.896 2,1.999 z" /> <path fill="#FEE7B8" d="M2.201 30.458c-.148 0-.294-.065-.393-.19-.171-.217-.134-.531.083-.702.162-.127 4.02-3.12 10.648-2.605.275.021.481.261.46.536-.021.275-.257.501-.537.46-6.233-.474-9.915 2.366-9.951 2.395-.093.07-.202.106-.31.106zm8.868-4.663c-.049 0-.1-.007-.149-.022-4.79-1.497-8.737-.347-8.777-.336-.265.081-.543-.07-.623-.335-.079-.265.071-.543.335-.622.173-.052 4.286-1.247 9.362.338.264.083.411.363.328.627-.066.213-.263.35-.476.35zm22.73 4.663c.148 0 .294-.065.393-.19.171-.217.134-.531-.083-.702-.162-.127-4.02-3.12-10.648-2.605-.275.021-.481.261-.46.536.022.275.257.501.537.46 6.233-.474 9.915 2.366 9.951 2.395.093.07.202.106.31.106zm-8.868-4.663c.049 0 .1-.007.149-.022 4.79-1.497 8.737-.347 8.777-.336.265.081.543-.07.623-.335.079-.265-.071-.543-.335-.622-.173-.052-4.286-1.247-9.362.338-.264.083-.411.363-.328.627.066.213.263.35.476.35z" /> <path fill="#E75A70" d="M19.4 24.807h-2.8c-.64 0-1.163.523-1.163 1.163 0 .639.523 1.163 1.163 1.163h.237v.345c0 .639.523 1.163 1.163 1.163s1.163-.523 1.163-1.163v-.345h.237c.639 0 1.163-.523 1.163-1.163s-.524-1.163-1.163-1.163z" /> <path fill="#292f33" d="m 28.888222,14.891 c -0.196445,0 -4.845334,0.03378 -7.739556,2.927111 -0.347555,0.347555 -0.347555,0.909333 0,1.256889 0.173334,0.173333 0.400889,0.260444 0.628445,0.260444 0.01155,0 0.02133,-0.0062 0.032,-0.0062 -0.01422,0.148444 -0.032,0.296 -0.032,0.450667 0,1.719111 0.994666,3.111111 2.222222,3.111111 1.227555,0 2.222222,-1.392 2.222222,-3.111111 0,-1.003556 -0.345778,-1.887112 -0.872889,-2.456 1.829333,-0.635556 3.514667,-0.655111 3.541333,-0.655111 0.489778,-0.0018 0.887112,-0.4 0.886223,-0.890667 -8.89e-4,-0.489778 -0.397334,-0.887111 -0.888,-0.887111 z" /> <path fill="#292f33" d="M 14.84934,17.818111 C 11.956079,14.924778 7.3064188,14.891 7.1099792,14.891 c -0.4906543,0 -0.8879777,0.397333 -0.8879777,0.887111 -8.888e-4,0.490667 0.3964345,0.888889 0.8870888,0.890666 0.025777,0 1.7110681,0.01956 3.5403557,0.655112 -0.527098,0.568888 -0.8728668,1.452555 -0.8728668,2.456111 0,1.719111 0.9946418,3.111 2.2221658,3.111 1.227525,0 2.222166,-1.392 2.222166,-3.111111 0,-0.154667 -0.01689,-0.302223 -0.03289,-0.450667 0.01156,0 0.02222,0.0062 0.03289,0.0062 0.22755,0 0.4551,-0.08711 0.628429,-0.260444 0.347547,-0.347556 0.347547,-0.909334 0,-1.256889 z" /> <path fill="#292f33" d="m 23.907161,32.346378 c -0.03552,-0.14129 -0.921941,-3.456489 -5.908159,-3.456489 -4.987008,0 -5.87264,3.315199 -5.90816,3.456489 -0.04341,0.171286 0.03394,0.348886 0.187071,0.437292 0.153921,0.08604 0.346518,0.06236 0.473601,-0.06079 0.015,-0.015 1.542357,-1.465002 5.247488,-1.465002 3.705129,0 5.233279,1.450005 5.247487,1.464213 0.07578,0.075 0.17681,0.114453 0.277845,0.114453 0.0663,0 0.133397,-0.01658 0.194177,-0.05052 0.154709,-0.08841 0.232063,-0.267583 0.18865,-0.439659 z" /> </svg>