<svg viewBox="0 0 36 36" xmlns="http://www.w3.org/2000/svg"> <path fill="#FFCC4D" d="M32.348 13.999s3.445-8.812 1.651-11.998c-.604-1.073-8 1.998-10.723 5.442 0 0-2.586-.86-5.276-.86s-5.276.86-5.276.86C10.001 3.999 2.605.928 2.001 2.001.207 5.187 3.652 13.999 3.652 13.999c-.897 1.722-1.233 4.345-1.555 7.16-.354 3.086.35 5.546.658 6.089.35.617 2.123 2.605 4.484 4.306 3.587 2.583 8.967 3.445 10.761 3.445s7.174-.861 10.761-3.445c2.361-1.701 4.134-3.689 4.484-4.306.308-.543 1.012-3.003.659-6.089-.324-2.814-.659-5.438-1.556-7.16z" /> <path fill="#F18F26" d="M2.359 2.971c.2-.599 5.348 2.173 6.518 5.404 0 0-3.808 2.624-4.528 4.624 0 0-2.99-7.028-1.99-10.028z" /> <path fill="#FFCC4D" d="M5.98 7.261c0-1.414 5.457 2.733 4.457 3.733s-1.255.72-2.255 1.72S5.98 8.261 5.98 7.261z" /> <path fill="#F18F26" d="M33.641 2.971c-.2-.599-5.348 2.173-6.518 5.404 0 0 3.808 2.624 4.528 4.624 0 0 2.99-7.028 1.99-10.028z" /> <path fill="#FFCC4D" d="M30.02 7.261c0-1.414-5.457 2.733-4.457 3.733s1.255.72 2.255 1.72 2.202-4.453 2.202-5.453z" /> <path fill="#292F33" d="M14.001 20.001c0 1.105-.896 1.999-2 1.999s-2-.894-2-1.999c0-1.104.896-1.999 2-1.999s2 .896 2 1.999zm11.998 0c0 1.105-.896 1.999-2 1.999-1.105 0-2-.894-2-1.999 0-1.104.895-1.999 2-1.999s2 .896 2 1.999z" /> <path fill="#fee7b8" d="m 2.201,29.557751 c -0.148,0 -0.294,-0.065 -0.393,-0.19 -0.171,-0.217 -0.134,-0.531 0.083,-0.702 0.162,-0.127 4.02,-3.12 10.648,-2.605 0.275,0.021 0.481,0.261 0.46,0.536 -0.021,0.275 -0.257,0.501 -0.537,0.46 -6.233,-0.474 -9.915,2.366 -9.951,2.395 -0.093,0.07 -0.202,0.106 -0.31,0.106 z m 8.868,-4.663 c -0.049,0 -0.1,-0.007 -0.149,-0.022 -4.79,-1.497 -8.737,-0.347 -8.777,-0.336 -0.265,0.081 -0.543,-0.07 -0.623,-0.335 -0.079,-0.265 0.071,-0.543 0.335,-0.622 0.173,-0.052 4.286,-1.247 9.362,0.338 0.264,0.083 0.411,0.363 0.328,0.627 -0.066,0.213 -0.263,0.35 -0.476,0.35 z m 22.73,4.663 c 0.148,0 0.294,-0.065 0.393,-0.19 0.171,-0.217 0.134,-0.531 -0.083,-0.702 -0.162,-0.127 -4.02,-3.12 -10.648,-2.605 -0.275,0.021 -0.481,0.261 -0.46,0.536 0.022,0.275 0.257,0.501 0.537,0.46 6.233,-0.474 9.915,2.366 9.951,2.395 0.093,0.07 0.202,0.106 0.31,0.106 z m -8.868,-4.663 c 0.049,0 0.1,-0.007 0.149,-0.022 4.79,-1.497 8.737,-0.347 8.777,-0.336 0.265,0.081 0.543,-0.07 0.623,-0.335 0.079,-0.265 -0.071,-0.543 -0.335,-0.622 -0.173,-0.052 -4.286,-1.247 -9.362,0.338 -0.264,0.083 -0.411,0.363 -0.328,0.627 0.066,0.213 0.263,0.35 0.476,0.35 z" /> <path fill="#67757f" d="m 24.736,29.997751 c -0.097,-0.258 -0.384,-0.392 -0.643,-0.294 -0.552,0.206 -1.076,0.311 -1.559,0.311 -1.152,0 -1.561,-0.306 -2.033,-0.659 -0.451,-0.338 -0.956,-0.715 -1.99,-0.803 v -2.339 c 0,-0.276 -0.224,-0.5 -0.5,-0.5 -0.276,0 -0.5,0.224 -0.5,0.5 v 2.373 c -0.81,0.115 -1.346,0.439 -1.816,0.743 -0.568,0.367 -1.059,0.685 -2.083,0.685 -0.482,0 -1.006,-0.104 -1.558,-0.311 -0.258,-0.095 -0.547,0.035 -0.643,0.294 -0.097,0.259 0.035,0.547 0.293,0.644 0.664,0.247 1.306,0.373 1.907,0.373 1.319,0 2.014,-0.449 2.627,-0.845 0.524,-0.339 0.98,-0.631 1.848,-0.635 0.992,0.008 1.358,0.278 1.815,0.621 0.538,0.403 1.147,0.859 2.633,0.859 0.601,0 1.244,-0.126 1.908,-0.373 0.259,-0.097 0.391,-0.385 0.294,-0.644 z" /> <path fill="#e75a70" d="m 19.4,23.906751 h -2.8 c -0.64,0 -1.163,0.523 -1.163,1.163 0,0.639 0.523,1.163 1.163,1.163 h 0.237 v 0.345 c 0,0.639 0.523,1.163 1.163,1.163 0.64,0 1.163,-0.523 1.163,-1.163 v -0.345 H 19.4 c 0.639,0 1.163,-0.523 1.163,-1.163 0,-0.64 -0.524,-1.163 -1.163,-1.163 z" /> <path fill="#ffffff" d="m 29.268865,14.913673 c -0.80267,2.440058 -3.097792,4.19121 -5.772471,4.19121 -0.128,0 -0.25689,-0.0044 -0.386668,-0.01244 -1.312895,-0.08267 -2.526234,-0.582236 -3.511127,-1.408033 0.032,0.44001 0.06756,0.886243 0.120889,1.368921 0.135112,1.233807 0.785782,2.206274 1.880898,2.811622 0.728892,0.403565 1.600007,0.61157 2.500456,0.66846 1.54134,0.09689 3.173347,-0.248895 4.331575,-0.808019 1.224005,-0.591125 2.019564,-1.65515 2.183121,-2.920069 0.162667,-1.257807 -0.314669,-2.599172 -1.346673,-3.891647 z" /> <path fill="#65471b" d="m 21.283051,10.926913 c -1.152894,0.488901 -1.730674,2.045382 -1.757341,4.701444 l 0.03467,0.06045 c 0.797337,1.172472 2.109342,1.976935 3.633794,2.072937 0.101334,0.0062 0.202667,0.0098 0.303112,0.0098 2.341344,0 4.310242,-1.721818 4.669355,-4.021428 -0.102223,-0.09333 -0.196446,-0.188448 -0.304891,-0.280895 -3.302237,-2.817844 -5.74847,-2.895179 -6.578696,-2.542282 z" /> <path fill="#f4900c" d="m 23.496394,19.104883 c 2.674679,0 4.969801,-1.751152 5.772471,-4.19121 -0.314668,-0.393787 -0.685337,-0.78224 -1.103116,-1.163583 -0.359113,2.29961 -2.328011,4.021428 -4.669355,4.021428 -0.100445,0 -0.201778,-0.0036 -0.303112,-0.0098 -1.524451,-0.096 -2.836457,-0.900465 -3.633794,-2.072937 l -0.03467,-0.06045 c -0.0062,0.623126 0.01867,1.309364 0.07378,2.056048 0.984893,0.825797 2.198232,1.325365 3.511127,1.408033 0.129778,0.0089 0.258668,0.01244 0.386668,0.01244 z" /> <ellipse fill="#ffffff" cx="21.338161" cy="13.702088" rx="0.98400444" ry="0.98402309" /> <path fill="#ffffff" d="m 12.50318,19.104922 c -2.6746786,0 -4.9697995,-1.751152 -5.7724698,-4.19121 -1.0320046,1.292475 -1.5084512,2.63384 -1.3466727,3.890758 0.1644452,1.264919 0.9591154,2.329833 2.1831209,2.920069 1.1582274,0.559124 2.7893446,0.90491 4.3315746,0.808019 0.900448,-0.05689 1.771563,-0.264006 2.500455,-0.66846 1.094228,-0.605348 1.744897,-1.577815 1.880898,-2.811622 0.05333,-0.481789 0.08889,-0.926244 0.120889,-1.365365 -0.980449,0.820464 -2.195565,1.321809 -3.511127,1.404477 -0.129778,0.0098 -0.258668,0.01333 -0.386668,0.01333 z" /> <path fill="#65471b" d="m 12.50318,17.771557 c 0.100445,0 0.201779,-0.0036 0.303112,-0.0098 1.524452,-0.096 2.836458,-0.900465 3.633794,-2.072937 l 0.03467,-0.06045 c -0.02756,-2.656062 -0.604447,-4.212543 -1.757341,-4.701444 -0.830226,-0.352897 -3.277348,-0.275562 -6.5786955,2.541393 -0.1084449,0.09245 -0.2017786,0.18756 -0.3048902,0.280896 0.3591127,2.300498 2.3280097,4.022316 4.6693537,4.022316 z" /> <path fill="#f4900c" d="m 16.473864,15.628396 -0.03467,0.06045 c -0.797337,1.172472 -2.109343,1.976935 -3.633795,2.072937 -0.101333,0.0062 -0.202667,0.0098 -0.303112,0.0098 -2.341344,0 -4.3102409,-1.721818 -4.6693536,-4.021428 -0.4177797,0.381343 -0.788448,0.769796 -1.1031161,1.163583 0.8026703,2.440058 3.0977921,4.19121 5.7724697,4.19121 0.128001,0 0.25689,-0.0044 0.386668,-0.01244 1.315562,-0.08267 2.530678,-0.584014 3.511127,-1.404477 0.05511,-0.747573 0.08089,-1.434701 0.07378,-2.059604 z" /> <path fill="#ffffff" d="m 10.389393,14.684374 c 0.542224,-0.03378 0.95467,-0.501346 0.920004,-1.04358 -0.03378,-0.542235 -0.501336,-0.954689 -1.04356,-0.920911 -0.5422246,0.03378 -0.9546707,0.501345 -0.9208928,1.04358 0.034667,0.542235 0.5022242,0.954689 1.0444488,0.920911 z" /> </svg>