<svg viewBox="0 0 36 36" version="1.1" xmlns="http://www.w3.org/2000/svg"> <path fill="#FFCC4D" d="M32.348 13.999s3.445-8.812 1.651-11.998c-.604-1.073-8 1.998-10.723 5.442 0 0-2.586-.86-5.276-.86s-5.276.86-5.276.86C10.001 3.999 2.605.928 2.001 2.001.207 5.187 3.652 13.999 3.652 13.999c-.897 1.722-1.233 4.345-1.555 7.16-.354 3.086.35 5.546.658 6.089.35.617 2.123 2.605 4.484 4.306 3.587 2.583 8.967 3.445 10.761 3.445s7.174-.861 10.761-3.445c2.361-1.701 4.134-3.689 4.484-4.306.308-.543 1.012-3.003.659-6.089-.324-2.814-.659-5.438-1.556-7.16z" /> <path fill="#ffffff" d="m 20.437444,30.528 c 0.0097,-0.0024 -0.883528,-0.269394 -1.49042,-0.203586 -0.223015,0.02559 -0.449077,0.04631 -0.680622,0.05423 v 2.752343 h 0.952383 c 0.670262,0 1.218659,-0.548397 1.218659,-1.21866 z m -4.874638,0 c -0.0097,-0.0024 0.883528,-0.269394 1.49042,-0.203586 0.223015,0.02559 0.449077,0.04631 0.680622,0.05423 v 2.752343 h -0.952383 c -0.670262,0 -1.218659,-0.548397 -1.218659,-1.21866 z" /> <path fill="#67757f" d="m 18.000049,30.388584 c -0.09018,0 -0.177315,-0.0067 -0.266887,-0.0098 v 2.751734 h 0.533164 v -2.752343 c -0.08835,0.003 -0.176096,0.01036 -0.266277,0.01036 z" /> <path fill="#F18F26" d="M2.359 2.971c.2-.599 5.348 2.173 6.518 5.404 0 0-3.808 2.624-4.528 4.624 0 0-2.99-7.028-1.99-10.028z" /> <path fill="#FFCC4D" d="M5.98 7.261c0-1.414 5.457 2.733 4.457 3.733s-1.255.72-2.255 1.72S5.98 8.261 5.98 7.261z" /> <path fill="#F18F26" d="M33.641 2.971c-.2-.599-5.348 2.173-6.518 5.404 0 0 3.808 2.624 4.528 4.624 0 0 2.99-7.028 1.99-10.028z" /> <path fill="#FFCC4D" d="M30.02 7.261c0-1.414-5.457 2.733-4.457 3.733s1.255.72 2.255 1.72 2.202-4.453 2.202-5.453z" /> <path d="m 25.999,20.001 c 0,1.105 -0.896,1.999 -2,1.999 -1.105,0 -2,-0.894 -2,-1.999 0,-1.104 0.895,-1.999 2,-1.999 1.105,0 2,0.896 2,1.999 z" fill="#292f33" /> <path d="m 14.001,20.001 c 0,1.105 -0.896,1.999 -2,1.999 -1.104,0 -2,-0.894 -2,-1.999 0,-1.104 0.896,-1.999 2,-1.999 1.104,0 2,0.896 2,1.999 z" fill="#292f33" /> <path fill="#FEE7B8" d="M2.201 30.458c-.148 0-.294-.065-.393-.19-.171-.217-.134-.531.083-.702.162-.127 4.02-3.12 10.648-2.605.275.021.481.261.46.536-.021.275-.257.501-.537.46-6.233-.474-9.915 2.366-9.951 2.395-.093.07-.202.106-.31.106zm8.868-4.663c-.049 0-.1-.007-.149-.022-4.79-1.497-8.737-.347-8.777-.336-.265.081-.543-.07-.623-.335-.079-.265.071-.543.335-.622.173-.052 4.286-1.247 9.362.338.264.083.411.363.328.627-.066.213-.263.35-.476.35zm22.73 4.663c.148 0 .294-.065.393-.19.171-.217.134-.531-.083-.702-.162-.127-4.02-3.12-10.648-2.605-.275.021-.481.261-.46.536.022.275.257.501.537.46 6.233-.474 9.915 2.366 9.951 2.395.093.07.202.106.31.106zm-8.868-4.663c.049 0 .1-.007.149-.022 4.79-1.497 8.737-.347 8.777-.336.265.081.543-.07.623-.335.079-.265-.071-.543-.335-.622-.173-.052-4.286-1.247-9.362.338-.264.083-.411.363-.328.627.066.213.263.35.476.35z" /> <path fill="#67757F" d="M24.736 30.898c-.097-.258-.384-.392-.643-.294-.552.206-1.076.311-1.559.311-1.152 0-1.561-.306-2.033-.659-.451-.338-.956-.715-1.99-.803v-2.339c0-.276-.224-.5-.5-.5s-.5.224-.5.5v2.373c-.81.115-1.346.439-1.816.743-.568.367-1.059.685-2.083.685-.482 0-1.006-.104-1.558-.311-.258-.095-.547.035-.643.294-.097.259.035.547.293.644.664.247 1.306.373 1.907.373 1.319 0 2.014-.449 2.627-.845.524-.339.98-.631 1.848-.635.992.008 1.358.278 1.815.621.538.403 1.147.859 2.633.859.601 0 1.244-.126 1.908-.373.259-.097.391-.385.294-.644z" /> <path fill="#E75A70" d="M19.4 24.807h-2.8c-.64 0-1.163.523-1.163 1.163 0 .639.523 1.163 1.163 1.163h.237v.345c0 .639.523 1.163 1.163 1.163s1.163-.523 1.163-1.163v-.345h.237c.639 0 1.163-.523 1.163-1.163s-.524-1.163-1.163-1.163z" /> <path fill="#292f33" d="m 34.042092,15.486508 c -0.163607,-0.158823 -1.212216,0.262152 -2.273263,-0.278418 -2.189069,-1.115583 -7.72106,-2.191939 -11.322308,0.359742 -0.385574,0.272678 -1.996759,0.318601 -2.447393,0.299466 -0.450635,0.02009 -2.061819,-0.02584 -2.447394,-0.299466 -3.600291,-2.551681 -9.1322814,-1.475325 -11.32135,-0.359742 -1.0610476,0.54057 -2.1096575,0.119595 -2.2732635,0.278418 -0.2363199,0.228665 -0.2363199,1.144285 9.568e-4,1.373908 0.235363,0.228666 1.4131356,0.492732 1.647542,1.17873 0.2363198,0.686954 0.2382333,4.743619 2.1173115,6.146231 1.759483,1.312675 5.8639872,1.707817 8.4654192,0.227709 2.269436,-1.29067 2.190025,-4.007872 2.606216,-5.626711 0.148298,-0.576926 0.566402,-0.867781 1.205519,-0.867781 0.639116,0 1.05722,0.290855 1.205519,0.867781 0.41619,1.617883 0.335822,4.336041 2.606215,5.626711 2.601432,1.479152 6.705937,1.084009 8.464462,-0.227709 1.880035,-1.401655 1.881949,-5.459277 2.117312,-6.146231 0.234406,-0.685998 1.412179,-0.951021 1.647543,-1.17873 0.237276,-0.229623 0.238233,-1.145243 9.56e-4,-1.373908 z m -19.320826,3.492177 c -0.07367,1.05722 -0.262153,3.087466 -1.527947,3.807907 -0.775933,0.442024 -1.787229,0.710874 -2.845407,0.710874 h -9.57e-4 c -1.1720314,0 -2.7966111,-0.331997 -3.4319004,-0.805593 C 6.1209433,22.099638 5.8186069,19.661812 5.7047524,18.750019 5.6320394,18.169264 5.4368594,16.750388 6.0759755,16.532247 7.0901419,16.186857 8.505191,15.91705 9.9527704,15.91705 c 0.6630346,0 2.8903736,0.04114 3.9753396,0.70896 0.961546,0.590321 0.834296,1.770963 0.793156,2.352675 z m 15.574151,-0.242061 c -0.113855,0.91275 -0.416191,3.363014 -1.210303,3.955249 -0.635288,0.473596 -2.259868,0.805593 -3.4319,0.805593 h -9.57e-4 c -1.059134,0 -2.069474,-0.26885 -2.846363,-0.710874 -1.265795,-0.719484 -1.454276,-2.737293 -1.527947,-3.794513 -0.04019,-0.58171 -0.16839,-1.770964 0.793154,-2.361286 1.085924,-0.667818 3.312306,-0.713743 3.975341,-0.713743 1.447579,0 2.861672,0.265023 3.876795,0.610413 0.639116,0.218142 0.444894,1.628407 0.37218,2.209161 z" /> </svg>