<svg viewBox="0 0 36 36" version="1.1" xmlns="http://www.w3.org/2000/svg"> <path fill="#FFCC4D" d="M32.348 13.999s3.445-8.812 1.651-11.998c-.604-1.073-8 1.998-10.723 5.442 0 0-2.586-.86-5.276-.86s-5.276.86-5.276.86C10.001 3.999 2.605.928 2.001 2.001.207 5.187 3.652 13.999 3.652 13.999c-.897 1.722-1.233 4.345-1.555 7.16-.354 3.086.35 5.546.658 6.089.35.617 2.123 2.605 4.484 4.306 3.587 2.583 8.967 3.445 10.761 3.445s7.174-.861 10.761-3.445c2.361-1.701 4.134-3.689 4.484-4.306.308-.543 1.012-3.003.659-6.089-.324-2.814-.659-5.438-1.556-7.16z" /> <path fill="#F18F26" d="M2.359 2.971c.2-.599 5.348 2.173 6.518 5.404 0 0-3.808 2.624-4.528 4.624 0 0-2.99-7.028-1.99-10.028z" /> <path fill="#FFCC4D" d="M5.98 7.261c0-1.414 5.457 2.733 4.457 3.733s-1.255.72-2.255 1.72S5.98 8.261 5.98 7.261z" /> <path fill="#F18F26" d="M33.641 2.971c-.2-.599-5.348 2.173-6.518 5.404 0 0 3.808 2.624 4.528 4.624 0 0 2.99-7.028 1.99-10.028z" /> <circle fill="#ff7892" cx="27.999901" cy="25.823019" r="4.4444499" /> <circle fill="#ff7892" cx="8.0004501" cy="25.823019" r="4.4444499" /> <path fill="#FFCC4D" d="M30.02 7.261c0-1.414-5.457 2.733-4.457 3.733s1.255.72 2.255 1.72 2.202-4.453 2.202-5.453z" /> <path fill="#292f33" d="m 14.001,20.001 c 0,1.105 -0.896,1.999 -2,1.999 -1.104,0 -2,-0.894 -2,-1.999 0,-1.104 0.896,-1.999 2,-1.999 1.104,0 2,0.896 2,1.999 z m 11.998,0 c 0,1.105 -0.896,1.999 -2,1.999 -1.105,0 -2,-0.894 -2,-1.999 0,-1.104 0.895,-1.999 2,-1.999 1.105,0 2,0.896 2,1.999 z" /> <path fill="#FEE7B8" d="M2.201 30.458c-.148 0-.294-.065-.393-.19-.171-.217-.134-.531.083-.702.162-.127 4.02-3.12 10.648-2.605.275.021.481.261.46.536-.021.275-.257.501-.537.46-6.233-.474-9.915 2.366-9.951 2.395-.093.07-.202.106-.31.106zm8.868-4.663c-.049 0-.1-.007-.149-.022-4.79-1.497-8.737-.347-8.777-.336-.265.081-.543-.07-.623-.335-.079-.265.071-.543.335-.622.173-.052 4.286-1.247 9.362.338.264.083.411.363.328.627-.066.213-.263.35-.476.35zm22.73 4.663c.148 0 .294-.065.393-.19.171-.217.134-.531-.083-.702-.162-.127-4.02-3.12-10.648-2.605-.275.021-.481.261-.46.536.022.275.257.501.537.46 6.233-.474 9.915 2.366 9.951 2.395.093.07.202.106.31.106zm-8.868-4.663c.049 0 .1-.007.149-.022 4.79-1.497 8.737-.347 8.777-.336.265.081.543-.07.623-.335.079-.265-.071-.543-.335-.622-.173-.052-4.286-1.247-9.362.338-.264.083-.411.363-.328.627.066.213.263.35.476.35z" /> <path fill="#67757f" d="m 24.735643,30.898377 c -0.097,-0.258 -0.384,-0.392 -0.643,-0.294 -0.552,0.206 -1.076,0.311 -1.559,0.311 -1.152,0 -1.561,-0.306 -2.033,-0.659 -0.451,-0.338 -0.956,-0.715 -1.99,-0.803 v -2.339 c 0,-0.276 -0.224,-0.5 -0.5,-0.5 -0.276,0 -0.5,0.224 -0.5,0.5 v 2.373 c -0.81,0.115 -1.346,0.439 -1.816,0.743 -0.568,0.367 -1.059,0.685 -2.083,0.685 -0.482,0 -1.006,-0.104 -1.558,-0.311 -0.258,-0.095 -0.547,0.035 -0.643,0.294 -0.097,0.259 0.035,0.547 0.293,0.644 0.664,0.247 1.306,0.373 1.907,0.373 1.319,0 2.014,-0.449 2.627,-0.845 0.524,-0.339 0.98,-0.631 1.848,-0.635 0.992,0.008 1.358,0.278 1.815,0.621 0.538,0.403 1.147,0.859 2.633,0.859 0.601,0 1.244,-0.126 1.908,-0.373 0.259,-0.097 0.391,-0.385 0.294,-0.644 z" /> <path fill="#E75A70" d="M19.4 24.807h-2.8c-.64 0-1.163.523-1.163 1.163 0 .639.523 1.163 1.163 1.163h.237v.345c0 .639.523 1.163 1.163 1.163s1.163-.523 1.163-1.163v-.345h.237c.639 0 1.163-.523 1.163-1.163s-.524-1.163-1.163-1.163z" /> <circle fill="#f5f8fa" cx="12.000455" cy="20.045235" r="4.888895" /> <circle fill="#292f33" cx="12.000455" cy="20.045235" r="2.222225" /> <circle fill="#f5f8fa" cx="23.999895" cy="20.045235" r="4.888895" /> <circle fill="#292f33" cx="23.999895" cy="20.045235" r="2.222225"/> <path d="m 7.1106712,15.15634 c -0.1848891,0 -0.3724449,-0.05778 -0.5324451,-0.177778 C 6.1853367,14.684339 6.1062255,14.127005 6.4004481,13.734116 9.3000073,9.8674445 13.170234,9.823 13.33379,9.823 c 0.490667,0 0.88889,0.398223 0.88889,0.88889 0,0.489778 -0.395556,0.887112 -0.885334,0.88889 -0.137778,0.0018 -3.17156,0.07644 -5.5146739,3.200004 -0.1742225,0.232889 -0.4417783,0.355556 -0.7120009,0.355556 z" fill="#292f33"/> <path d="m 28.88968,15.15634 c -0.271112,0 -0.53689,-0.122667 -0.712001,-0.355556 -2.34667,-3.129782 -5.387562,-3.198226 -5.516451,-3.200004 -0.48889,-0.0053 -0.883557,-0.405334 -0.88089,-0.893334 0.0027,-0.489779 0.397333,-0.884446 0.886223,-0.884446 0.163556,0 4.032894,0.044444 6.933342,3.911116 0.295111,0.392889 0.215111,0.950223 -0.177778,1.244446 -0.16,0.12 -0.346667,0.177778 -0.532445,0.177778 z" fill="#292f33"/> </svg>